<svg id="Lag_1" data-name="Lag 1" xmlns="http://www.w3.org/2000/svg" xmlns:xlink="http://www.w3.org/1999/xlink" width="672" height="288" viewBox="0 0 672 288"><defs><style>.cls-1{fill:url(#Ikke-navngivet_forløb_34);}.cls-2{fill:#ffab1a;}.cls-3{fill:#e99414;}.cls-4{fill:url(#Ikke-navngivet_forløb_31);}.cls-5{fill:#e99416;}.cls-6{fill:#a3b74e;}.cls-7{fill:#acc254;}.cls-8{fill:#374013;}.cls-9{fill:#626262;}.cls-10{fill:#f66723;}.cls-11{fill:url(#Ikke-navngivet_forløb_32);}.cls-12{fill:url(#Ikke-navngivet_forløb_31-2);}.cls-13{fill:url(#Ikke-navngivet_forløb_32-2);}.cls-14{fill:url(#Ikke-navngivet_forløb_33);}.cls-15{fill:url(#Ikke-navngivet_forløb_34-2);}.cls-16{fill:url(#Ikke-navngivet_forløb_35);}.cls-17{fill:url(#Ikke-navngivet_forløb_33-2);}.cls-18{fill:url(#Ikke-navngivet_forløb_35-2);}.cls-19{fill:url(#Ikke-navngivet_forløb_33-3);}.cls-20{fill:url(#Ikke-navngivet_forløb_34-3);}.cls-21{fill:url(#Ikke-navngivet_forløb_35-3);}.cls-22{fill:url(#Ikke-navngivet_forløb_33-4);}.cls-23{fill:url(#Ikke-navngivet_forløb_34-4);}.cls-24{fill:url(#Ikke-navngivet_forløb_35-4);}.cls-25{fill:url(#Ikke-navngivet_forløb_31-3);}.cls-26{fill:url(#Ikke-navngivet_forløb_32-3);}.cls-27{fill:url(#Ikke-navngivet_forløb_25);}.cls-28{fill:url(#Ikke-navngivet_forløb_25-2);}.cls-29{fill:url(#Ikke-navngivet_forløb_25-3);}.cls-30{fill:url(#Ikke-navngivet_forløb_25-4);}.cls-31{fill:url(#Ikke-navngivet_forløb_25-5);}.cls-32{fill:url(#Ikke-navngivet_forløb_25-6);}.cls-33{fill:url(#Ikke-navngivet_forløb_25-7);}.cls-34{fill:url(#Ikke-navngivet_forløb_25-8);}.cls-35{fill:url(#Ikke-navngivet_forløb_25-9);}.cls-36{fill:url(#Ikke-navngivet_forløb_25-10);}.cls-37{fill:url(#Ikke-navngivet_forløb_25-11);}.cls-38{fill:url(#Ikke-navngivet_forløb_25-12);}.cls-39{fill:url(#Ikke-navngivet_forløb_25-13);}.cls-40{fill:url(#Ikke-navngivet_forløb_25-14);}.cls-41{fill:url(#Ikke-navngivet_forløb_25-15);}.cls-42{fill:url(#Ikke-navngivet_forløb_25-16);}</style><linearGradient id="Ikke-navngivet_forløb_34" x1="460.66" y1="-166.32" x2="464.11" y2="-171.67" gradientTransform="matrix(0.98, -0.2, -0.2, -0.98, 52.24, 94.14)" gradientUnits="userSpaceOnUse"><stop offset="0" stop-color="#eb9516"/><stop offset="1" stop-color="#ffab1a"/></linearGradient><linearGradient id="Ikke-navngivet_forløb_31" x1="74.86" y1="-150.53" x2="69.74" y2="-157.41" gradientTransform="matrix(1, 0, 0, -1, 0, -6)" xlink:href="#Ikke-navngivet_forløb_34"/><linearGradient id="Ikke-navngivet_forløb_32" x1="24.09" y1="-154.09" x2="15.64" y2="-155.97" gradientTransform="matrix(1, 0, 0, -1, 0, -6)" xlink:href="#Ikke-navngivet_forløb_34"/><linearGradient id="Ikke-navngivet_forløb_31-2" x1="271.87" y1="-140.53" x2="266.74" y2="-147.41" gradientTransform="matrix(0.97, -0.24, -0.24, -0.97, 68.59, 72.28)" xlink:href="#Ikke-navngivet_forløb_34"/><linearGradient id="Ikke-navngivet_forløb_32-2" x1="231.3" y1="-142.69" x2="222.85" y2="-144.56" gradientTransform="matrix(0.97, -0.23, -0.23, -0.97, 61.82, 58.68)" xlink:href="#Ikke-navngivet_forløb_34"/><linearGradient id="Ikke-navngivet_forløb_33" x1="275.37" y1="-146.11" x2="272.27" y2="-154.08" gradientTransform="matrix(1, 0.01, 0.01, -1, -2.71, -9.78)" xlink:href="#Ikke-navngivet_forløb_34"/><linearGradient id="Ikke-navngivet_forløb_34-2" x1="224.12" y1="-170.08" x2="227.57" y2="-175.43" gradientTransform="matrix(1, 0, 0, -1, 0, -6)" xlink:href="#Ikke-navngivet_forløb_34"/><linearGradient id="Ikke-navngivet_forløb_35" x1="150.45" y1="-144.66" x2="141.93" y2="-144.31" gradientTransform="matrix(0.98, -0.18, -0.18, -0.98, 46.74, 28.61)" xlink:href="#Ikke-navngivet_forløb_34"/><linearGradient id="Ikke-navngivet_forløb_33-2" x1="501.71" y1="-183.27" x2="498.61" y2="-191.24" gradientTransform="matrix(0.99, -0.14, -0.14, -0.99, 36.51, 29.4)" xlink:href="#Ikke-navngivet_forløb_34"/><linearGradient id="Ikke-navngivet_forløb_35-2" x1="452.92" y1="-147.62" x2="444.4" y2="-147.27" gradientTransform="matrix(0.99, -0.14, -0.14, -0.99, 38.63, 62.34)" xlink:href="#Ikke-navngivet_forløb_34"/><linearGradient id="Ikke-navngivet_forløb_33-3" x1="173.79" y1="-147.79" x2="170.69" y2="-155.77" gradientTransform="matrix(1, 0, 0, -1, 0, -6)" xlink:href="#Ikke-navngivet_forløb_34"/><linearGradient id="Ikke-navngivet_forløb_34-3" x1="12.09" y1="-157.68" x2="15.54" y2="-163.03" gradientTransform="matrix(0.95, -0.3, -0.3, -0.95, 71.31, 22.82)" xlink:href="#Ikke-navngivet_forløb_34"/><linearGradient id="Ikke-navngivet_forløb_35-3" x1="102.72" y1="-151.99" x2="94.19" y2="-151.64" gradientTransform="matrix(1, -0.05, -0.05, -1, 12.57, -0.27)" xlink:href="#Ikke-navngivet_forløb_34"/><linearGradient id="Ikke-navngivet_forløb_33-4" x1="504.88" y1="-146.9" x2="501.78" y2="-154.87" gradientTransform="matrix(0.99, 0.11, 0.11, -0.99, -22.87, -57.57)" xlink:href="#Ikke-navngivet_forløb_34"/><linearGradient id="Ikke-navngivet_forløb_34-4" x1="135.46" y1="-160.31" x2="138.91" y2="-165.66" gradientTransform="matrix(0.73, -0.69, -0.69, -0.73, 211.59, 148.4)" xlink:href="#Ikke-navngivet_forløb_34"/><linearGradient id="Ikke-navngivet_forløb_35-4" x1="297.21" y1="-136.86" x2="288.68" y2="-136.51" gradientTransform="matrix(0.95, -0.3, -0.3, -0.95, 88.93, 104.06)" xlink:href="#Ikke-navngivet_forløb_34"/><linearGradient id="Ikke-navngivet_forløb_31-3" x1="446.2" y1="-240.69" x2="441.07" y2="-247.57" gradientTransform="matrix(0.89, -0.46, -0.46, -0.89, 148.49, 132.33)" xlink:href="#Ikke-navngivet_forløb_34"/><linearGradient id="Ikke-navngivet_forløb_32-3" x1="672.34" y1="-88.73" x2="663.89" y2="-90.61" gradientTransform="matrix(0.98, 0.19, 0.19, -0.98, -39.3, -67.93)" xlink:href="#Ikke-navngivet_forløb_34"/><linearGradient id="Ikke-navngivet_forløb_25" x1="74.86" y1="-246.53" x2="69.74" y2="-253.4" gradientTransform="matrix(1, 0, 0, -1, 0, -6)" xlink:href="#Ikke-navngivet_forløb_34"/><linearGradient id="Ikke-navngivet_forløb_25-2" x1="24.09" y1="-250.09" x2="15.64" y2="-251.97" gradientTransform="matrix(1, 0, 0, -1, 0, -6)" xlink:href="#Ikke-navngivet_forløb_34"/><linearGradient id="Ikke-navngivet_forløb_25-3" x1="170.86" y1="-248.53" x2="165.74" y2="-255.4" gradientTransform="matrix(1, 0.01, 0.01, -1, 3.66, -8.1)" xlink:href="#Ikke-navngivet_forløb_34"/><linearGradient id="Ikke-navngivet_forløb_25-4" x1="120.09" y1="-252.09" x2="111.64" y2="-253.97" gradientTransform="matrix(1, 0.01, 0.01, -1, 3.66, -8.1)" xlink:href="#Ikke-navngivet_forløb_34"/><linearGradient id="Ikke-navngivet_forløb_25-5" x1="266.9" y1="-243.53" x2="261.77" y2="-250.41" gradientTransform="matrix(1, -0.02, -0.02, -1, -4.12, -1.85)" xlink:href="#Ikke-navngivet_forløb_34"/><linearGradient id="Ikke-navngivet_forløb_25-6" x1="216.12" y1="-247.09" x2="207.67" y2="-248.97" gradientTransform="matrix(1, -0.02, -0.02, -1, -4.12, -1.85)" xlink:href="#Ikke-navngivet_forløb_34"/><linearGradient id="Ikke-navngivet_forløb_25-7" x1="74.07" y1="-48.05" x2="68.95" y2="-54.93" gradientTransform="matrix(1, -0.06, -0.06, -1, -2.61, 2.13)" xlink:href="#Ikke-navngivet_forløb_34"/><linearGradient id="Ikke-navngivet_forløb_25-8" x1="23.3" y1="-51.62" x2="14.85" y2="-53.49" gradientTransform="matrix(1, -0.06, -0.06, -1, -2.61, 2.13)" xlink:href="#Ikke-navngivet_forløb_34"/><linearGradient id="Ikke-navngivet_forløb_25-9" x1="170.88" y1="-51.62" x2="165.75" y2="-58.5" gradientTransform="matrix(1, -0.03, -0.03, -1, -1.38, 1.24)" xlink:href="#Ikke-navngivet_forløb_34"/><linearGradient id="Ikke-navngivet_forløb_25-10" x1="120.1" y1="-55.18" x2="111.65" y2="-57.06" gradientTransform="matrix(1, -0.03, -0.03, -1, -1.38, 1.24)" xlink:href="#Ikke-navngivet_forløb_34"/><linearGradient id="Ikke-navngivet_forløb_25-11" x1="266.86" y1="-54.53" x2="261.74" y2="-61.4" gradientTransform="matrix(1, 0, 0, -1, 0, -6)" xlink:href="#Ikke-navngivet_forløb_34"/><linearGradient id="Ikke-navngivet_forløb_25-12" x1="216.09" y1="-58.09" x2="207.64" y2="-59.97" gradientTransform="matrix(1, 0, 0, -1, 0, -6)" xlink:href="#Ikke-navngivet_forløb_34"/><linearGradient id="Ikke-navngivet_forløb_25-13" x1="363.89" y1="-55.65" x2="358.76" y2="-62.52" gradientTransform="matrix(1, 0.02, 0.02, -1, 1.19, -15.51)" xlink:href="#Ikke-navngivet_forløb_34"/><linearGradient id="Ikke-navngivet_forløb_25-14" x1="313.11" y1="-59.21" x2="304.66" y2="-61.08" gradientTransform="matrix(1, 0.02, 0.02, -1, 1.19, -15.51)" xlink:href="#Ikke-navngivet_forløb_34"/><linearGradient id="Ikke-navngivet_forløb_25-15" x1="459.86" y1="-53.48" x2="454.73" y2="-60.35" gradientTransform="matrix(1, 0.03, 0.03, -1, 1.8, -20.72)" xlink:href="#Ikke-navngivet_forløb_34"/><linearGradient id="Ikke-navngivet_forløb_25-16" x1="409.08" y1="-57.04" x2="400.63" y2="-58.92" gradientTransform="matrix(1, 0.03, 0.03, -1, 1.8, -20.72)" xlink:href="#Ikke-navngivet_forløb_34"/></defs><title>character</title><g id="Layer0_3_MEMBER_1_FILL" data-name="Layer0 3 MEMBER 1 FILL"><path class="cls-1" d="M540.38,177.26a16.76,16.76,0,0,0,5.48,1.15c1.64.08,2.57-.21,2.78-.86l.1,0a7.3,7.3,0,0,0-.43-6,7.52,7.52,0,0,0-4.46-4,7.26,7.26,0,0,0-6,.32,7.93,7.93,0,0,0-4.15,4.24l0,.1c-.25.63.29,1.44,1.61,2.44A19.85,19.85,0,0,0,540.38,177.26Z"/></g><g id="Layer0_3_MEMBER_2_FILL" data-name="Layer0 3 MEMBER 2 FILL"><path class="cls-2" d="M545.9,155.83a2.73,2.73,0,0,0-2,1.35,2.94,2.94,0,0,0-.5,2.45,9.68,9.68,0,0,1-3.6,10,3.27,3.27,0,0,0-1.2,2.2,3.55,3.55,0,0,0,.75,2.4,3.18,3.18,0,0,0,2.25,1.15,3,3,0,0,0,2.35-.7q7.89-6.5,5.85-16.35a3.14,3.14,0,0,0-3.85-2.5Z"/></g><g id="Layer0_2_MEMBER_2_FILL" data-name="Layer0 2 MEMBER 2 FILL"><path class="cls-3" d="M328.66,174.33a2.85,2.85,0,0,0,2.28-1,19.79,19.79,0,0,0,3.15-4.38q-1.74-2.6-6.07-2.82a11.72,11.72,0,0,1-1.93,2.74,3.5,3.5,0,0,0-.94,2.34,3.58,3.58,0,0,0,1.13,2.32A3.39,3.39,0,0,0,328.66,174.33Z"/><path class="cls-3" d="M330.3,154.38a3,3,0,0,0-1.87,1.56,3.66,3.66,0,0,0-.13,2.61,9.52,9.52,0,0,1-.28,7.59q4.34.23,6.07,2.82a15.42,15.42,0,0,0,.44-12.62,2.92,2.92,0,0,0-1.67-1.85A3.21,3.21,0,0,0,330.3,154.38Z"/></g><g id="Layer0_2_MEMBER_0_FILL" data-name="Layer0 2 MEMBER 0 FILL"><path class="cls-2" d="M79.15,162.65a6.37,6.37,0,0,0,3.1-3.65,5.87,5.87,0,0,0-.45-4.7,6.06,6.06,0,0,0-3.75-3.05,8.21,8.21,0,0,1-1-.25,6.49,6.49,0,0,0-6.85,4.4,6.16,6.16,0,0,0,0,3.3,9.81,9.81,0,0,0,.55,1.4,5.76,5.76,0,0,0,3.65,3A5.56,5.56,0,0,0,79.15,162.65Z"/><path class="cls-4" d="M73.65,141.1l-4,.9q-4.35,6.75-.1,15.3a9.53,9.53,0,0,0,.65,1.4,6.16,6.16,0,0,1,0-3.3A6.49,6.49,0,0,1,77.1,151Q71.55,146.29,73.65,141.1Z"/></g><g id="Layer0_2_MEMBER_1_FILL" data-name="Layer0 2 MEMBER 1 FILL"><path class="cls-2" d="M61.3,158.2a3.18,3.18,0,0,0-2.25-1,3,3,0,0,0-2.4.9q-6,5.25-5.75,12.25a8,8,0,0,1,6.8-1.45,10.13,10.13,0,0,1,3.35-6,3.34,3.34,0,0,0,1.15-2.25A3.51,3.51,0,0,0,61.3,158.2Z"/><path class="cls-5" d="M50.9,170.3a17.8,17.8,0,0,0,.65,4.3,3.22,3.22,0,0,0,1.55,2.05,3.47,3.47,0,0,0,2.5.35,3,3,0,0,0,1.9-1.5,3,3,0,0,0,.4-2.45,11.2,11.2,0,0,1-.2-4.2A8,8,0,0,0,50.9,170.3Z"/></g><g id="Layer0_2_MEMBER_2_FILL-2" data-name="Layer0 2 MEMBER 2 FILL"><path class="cls-5" d="M43.3,177a2.9,2.9,0,0,0,2-1.55,20.21,20.21,0,0,0,1.9-5q-2.35-2.06-6.6-1.15a11.6,11.6,0,0,1-1.15,3.15,3.52,3.52,0,0,0-.3,2.5,3.58,3.58,0,0,0,1.7,1.95A3.47,3.47,0,0,0,43.3,177Z"/><path class="cls-2" d="M39.7,157.3a3,3,0,0,0-1.4,2,3.63,3.63,0,0,0,.55,2.55,9.5,9.5,0,0,1,1.7,7.4q4.25-.9,6.6,1.15a15.46,15.46,0,0,0-2.85-12.3,2.89,2.89,0,0,0-2.1-1.35A3.15,3.15,0,0,0,39.7,157.3Z"/></g><g id="Layer0_2_MEMBER_3_FILL" data-name="Layer0 2 MEMBER 3 FILL"><path class="cls-5" d="M27.15,112.65a6.81,6.81,0,0,0-4.75,1.95,6.45,6.45,0,0,0-2,4.75V161.1a6.57,6.57,0,0,0,6.75,6.55l8.5,0a6.59,6.59,0,0,1-4.5-1.9,6.22,6.22,0,0,1-1.95-4.7V119.3a6.2,6.2,0,0,1,1.95-4.7,6.73,6.73,0,0,1,4.55-1.9Z"/><path class="cls-2" d="M73.45,119.35a6.39,6.39,0,0,0-1.9-4.7,6.66,6.66,0,0,0-4.65-2l-31.2,0a6.73,6.73,0,0,0-4.55,1.9,6.2,6.2,0,0,0-1.95,4.7v41.8a6.22,6.22,0,0,0,1.95,4.7,6.59,6.59,0,0,0,4.5,1.9h31.2a7,7,0,0,0,4.7-1.85,6.65,6.65,0,0,0,2-4.8l0-41.7M69.9,122.9l-.05,18.45q-.1,3.3-3.55,3.25l-28.55.05c-2.3,0-3.49-1.12-3.55-3.35V119.8c0-2.3,1.21-3.44,3.55-3.4l28.55-.05c2.4,0,3.58,1.16,3.55,3.5Z"/><path class="cls-6" d="M66.35,119.6c2.26,0,3.45,1.06,3.55,3.3l-.05-3.05c0-2.34-1.15-3.5-3.55-3.5l-28.55.05c-2.34,0-3.52,1.1-3.55,3.4V123c.1-2.24,1.3-3.35,3.6-3.35Z"/><path class="cls-7" d="M69.85,141.35l.05-18.45c-.1-2.24-1.29-3.34-3.55-3.3H37.8c-2.3,0-3.5,1.11-3.6,3.35V141.3c.06,2.23,1.25,3.35,3.55,3.35l28.55-.05Q69.75,144.64,69.85,141.35Z"/></g><g id="Layer0_2_MEMBER_4_FILL" data-name="Layer0 2 MEMBER 4 FILL"><path class="cls-8" d="M39,125.4l.6.75a5.53,5.53,0,0,1,5-.7v-2c-2.64-.67-4.5,0-5.6,1.9m5.75,2.85a2.82,2.82,0,0,0-2-.75,3.09,3.09,0,0,0-2,.75,3,3,0,0,0-.85,2.1,2.42,2.42,0,0,0,.85,1.9,2.47,2.47,0,0,0,2,.85,2.62,2.62,0,0,0,2-.85,2.5,2.5,0,0,0,.85-1.95,2.81,2.81,0,0,0-.85-2.05m11.9,9a6.61,6.61,0,0,0,1.35-2.1c.46-1.37-.12-2.05-1.75-2.05l-7.4,0c-1.64,0-2.09.75-1.35,2.35a6.92,6.92,0,0,0,1.3,1.9,5.45,5.45,0,0,0,4,1.55,5.25,5.25,0,0,0,3.9-1.6m7.1-9a3.11,3.11,0,0,0-2-.7,2.3,2.3,0,0,0-1.9.75,2.48,2.48,0,0,0-.95,2,2.42,2.42,0,0,0,.9,1.95,2.65,2.65,0,0,0,2,.85,2.44,2.44,0,0,0,2-.85,2.62,2.62,0,0,0,.85-1.95,2.81,2.81,0,0,0-.85-2.05m1.15-2.8q-1.65-2.91-5.55-2v2a5.1,5.1,0,0,1,5,.65Z"/></g><g id="Layer0_2_MEMBER_5_FILL" data-name="Layer0 2 MEMBER 5 FILL"><path class="cls-9" d="M49.4,153.05c0-.47-.22-.69-.65-.65l-4,.35-.35-3.85c0-.44-.24-.62-.7-.55l-4,.3c-.44,0-.65.25-.65.65l.35,3.85-3.85.3q-.75,0-.75.75l.35,4a.71.71,0,0,0,.8.65l3.9-.35.25,3.85a.66.66,0,0,0,.8.6l3.9-.25a.58.58,0,0,0,.6-.7l-.35-3.9,4.1-.35c.36,0,.53-.27.5-.7l-.35-3.95m5.5-3.2a4.55,4.55,0,0,0-1.4,3.5A5,5,0,0,0,55,157a4.89,4.89,0,0,0,3.6,1.45,4.37,4.37,0,0,0,1.15-.15,4.72,4.72,0,0,0,1.45,3.35,5,5,0,0,0,3.6,1.45,5.68,5.68,0,0,0,3.65-1.45,5,5,0,0,0,1.45-3.55,4.84,4.84,0,0,0-1.45-3.55,5.41,5.41,0,0,0-3.7-1.5,5.77,5.77,0,0,0-1.1.1,4.51,4.51,0,0,0-1.4-3.25,5.35,5.35,0,0,0-3.65-1.5,5.15,5.15,0,0,0-3.6,1.5H54.9m1.35,1.3a3.1,3.1,0,0,1,2.3-.9,3.23,3.23,0,0,1,2.3.9,3.32,3.32,0,0,1,.95,2.2,3.18,3.18,0,0,1-1,2.25,2.84,2.84,0,0,1-2.25.9,3,3,0,0,1-2.3-.9,2.87,2.87,0,0,1-.85-2.25,2.8,2.8,0,0,1,.85-2.2M61.6,158a3.09,3.09,0,0,1,.9-2.2,3.22,3.22,0,0,1,2.3-.9,3.18,3.18,0,0,1,2.25.9,2.92,2.92,0,0,1,1,2.2,2.78,2.78,0,0,1-1,2.2,3.08,3.08,0,0,1-2.25,1,3.29,3.29,0,0,1-2.25-1A2.89,2.89,0,0,1,61.6,158Z"/><path class="cls-10" d="M62.5,155.8a3.09,3.09,0,0,0-.9,2.2,2.89,2.89,0,0,0,.9,2.2,3.29,3.29,0,0,0,2.25,1,3.08,3.08,0,0,0,2.25-1,2.78,2.78,0,0,0,1-2.2,2.92,2.92,0,0,0-1-2.2,3.18,3.18,0,0,0-2.25-.9,3.22,3.22,0,0,0-2.3.9m-4-5.55a3.1,3.1,0,0,0-2.3.9,2.8,2.8,0,0,0-.85,2.2,2.87,2.87,0,0,0,.85,2.25,3,3,0,0,0,2.3.9,2.84,2.84,0,0,0,2.25-.9,3.18,3.18,0,0,0,1-2.25,3.32,3.32,0,0,0-.95-2.2A3.23,3.23,0,0,0,58.55,150.25Z"/></g><g id="Layer0_2_MEMBER_6_FILL" data-name="Layer0 2 MEMBER 6 FILL"><path class="cls-2" d="M34.45,178.55v.1H50.4v-.05l.05,0a7.53,7.53,0,0,0-2.4-5.4,7.63,7.63,0,0,0-5.65-2.4,7.52,7.52,0,0,0-5.6,2.35,7.42,7.42,0,0,0-2.35,5.4Z"/></g><g id="Layer0_2_MEMBER_7_FILL" data-name="Layer0 2 MEMBER 7 FILL"><path class="cls-2" d="M48.75,173.1a7.42,7.42,0,0,0-2.35,5.4v.15h16v-.05l0,0a8.22,8.22,0,0,0-8-7.8A7.68,7.68,0,0,0,48.75,173.1Z"/></g><g id="Layer0_2_MEMBER_1_FILL-2" data-name="Layer0 2 MEMBER 1 FILL"><path class="cls-2" d="M452.48,158a3.18,3.18,0,0,0-2.25-1,3,3,0,0,0-2.4.9q-6,5.25-5.75,12.25a8,8,0,0,1,6.8-1.45,10.13,10.13,0,0,1,3.35-6,3.34,3.34,0,0,0,1.15-2.25A3.51,3.51,0,0,0,452.48,158Z"/><path class="cls-5" d="M442.08,170.05a17.8,17.8,0,0,0,.65,4.3,3.22,3.22,0,0,0,1.55,2.05,3.47,3.47,0,0,0,2.5.35,3,3,0,0,0,1.9-1.5,3,3,0,0,0,.4-2.45,11.2,11.2,0,0,1-.2-4.2A8,8,0,0,0,442.08,170.05Z"/></g><g id="Layer0_2_MEMBER_7_FILL-2" data-name="Layer0 2 MEMBER 7 FILL"><path class="cls-2" d="M439.93,172.85a7.42,7.42,0,0,0-2.35,5.4v.15h15.95v-.05l.05,0a8.22,8.22,0,0,0-8-7.8A7.68,7.68,0,0,0,439.93,172.85Z"/></g><g id="Layer0_2_MEMBER_8_FILL" data-name="Layer0 2 MEMBER 8 FILL"><path class="cls-11" d="M18.25,152.55a5.71,5.71,0,0,1,3.3,1.9q-1.15-7.26,4-9.8l-3.7-1.85q-7.6,2.3-10.15,11.55a12.48,12.48,0,0,0-.5,1.45,6.59,6.59,0,0,1,2.25-2.55A6.57,6.57,0,0,1,18.25,152.55Z"/><path class="cls-2" d="M22.9,159.9a6.17,6.17,0,0,0-.8-4.7,6,6,0,0,0-.55-.75,5.71,5.71,0,0,0-3.3-1.9,6.57,6.57,0,0,0-4.8.7,6.59,6.59,0,0,0-2.25,2.55,5.35,5.35,0,0,0-.45,1.35,5.81,5.81,0,0,0,.8,4.7,5.35,5.35,0,0,0,3.85,2.65,6.17,6.17,0,0,0,7.5-4.6Z"/></g><g id="Layer0_2_MEMBER_0_FILL-2" data-name="Layer0 2 MEMBER 0 FILL"><path class="cls-2" d="M375.18,158.46a6.33,6.33,0,0,0,2.12-4.3,5.92,5.92,0,0,0-1.59-4.45,6.15,6.15,0,0,0-4.38-2,6.52,6.52,0,0,1-1,0,6.5,6.5,0,0,0-5.56,6,6.22,6.22,0,0,0,.81,3.2,12.34,12.34,0,0,0,.87,1.22,5.78,5.78,0,0,0,4.27,2A5.52,5.52,0,0,0,375.18,158.46Z"/><path class="cls-12" d="M364.57,138.91,361,140.75q-2.55,7.6,3.66,14.86a9.9,9.9,0,0,0,1,1.2,6.22,6.22,0,0,1-.81-3.2,6.5,6.5,0,0,1,5.56-6Q363.82,144.47,364.57,138.91Z"/></g><g id="Layer0_2_MEMBER_1_FILL-3" data-name="Layer0 2 MEMBER 1 FILL"><path class="cls-2" d="M356.23,155a3.25,3.25,0,0,0-4.58.83q-4.74,6.4-3,13.19A8,8,0,0,1,355,166.2a10.24,10.24,0,0,1,2-6.63,3.29,3.29,0,0,0,.65-2.44A3.49,3.49,0,0,0,356.23,155Z"/><path class="cls-5" d="M348.63,169.05a17.64,17.64,0,0,0,1.54,4.07,3.2,3.2,0,0,0,1.95,1.67,3.48,3.48,0,0,0,2.52-.18,3,3,0,0,0,1.54-1.87,3,3,0,0,0-.13-2.48A11.46,11.46,0,0,1,355,166.2,8,8,0,0,0,348.63,169.05Z"/></g><g id="Layer0_2_MEMBER_3_FILL-2" data-name="Layer0 2 MEMBER 3 FILL"><path class="cls-5" d="M320.37,111.65a6.82,6.82,0,0,0-4.75,1.95,6.49,6.49,0,0,0-2,4.75V160.1a6.57,6.57,0,0,0,6.75,6.55l8.5,0a6.59,6.59,0,0,1-4.5-1.9,6.29,6.29,0,0,1-1.95-4.7V118.3a6.28,6.28,0,0,1,1.95-4.7,6.74,6.74,0,0,1,4.55-1.9Z"/><path class="cls-2" d="M366.67,118.35a6.36,6.36,0,0,0-1.9-4.7,6.62,6.62,0,0,0-4.65-2l-31.2,0a6.74,6.74,0,0,0-4.55,1.9,6.28,6.28,0,0,0-1.95,4.7v41.8a6.29,6.29,0,0,0,1.95,4.7,6.59,6.59,0,0,0,4.5,1.9h31.2a7,7,0,0,0,4.7-1.85,6.65,6.65,0,0,0,2-4.8l-.05-41.7m-3.55,3.55-.05,18.45q-.1,3.3-3.55,3.25l-28.55.05q-3.45,0-3.55-3.35V118.8c0-2.3,1.22-3.44,3.55-3.4l28.55-.05c2.4,0,3.58,1.16,3.55,3.5Z"/><path class="cls-6" d="M359.57,118.6q3.4-.06,3.55,3.3l-.05-3.05c0-2.34-1.15-3.5-3.55-3.5L331,115.4c-2.33,0-3.52,1.1-3.55,3.4V122c.1-2.24,1.3-3.35,3.6-3.35Z"/><path class="cls-7" d="M363.07,140.35l.05-18.45q-.15-3.36-3.55-3.3H331c-2.3,0-3.5,1.11-3.6,3.35V140.3q.1,3.34,3.55,3.35l28.55-.05Q363,143.64,363.07,140.35Z"/></g><g id="Layer0_2_MEMBER_4_FILL-2" data-name="Layer0 2 MEMBER 4 FILL"><path class="cls-8" d="M332.22,124.4l.6.75a5.53,5.53,0,0,1,5-.7v-2q-3.94-1-5.6,1.9m5.75,2.85a2.81,2.81,0,0,0-2-.75,3.09,3.09,0,0,0-2,.75,3,3,0,0,0-.85,2.1,2.42,2.42,0,0,0,.85,1.9,2.49,2.49,0,0,0,2,.85,2.59,2.59,0,0,0,2-.85,2.47,2.47,0,0,0,.85-1.95,2.77,2.77,0,0,0-.85-2.05m11.9,9a6.61,6.61,0,0,0,1.35-2.1c.47-1.37-.12-2.05-1.75-2.05l-7.4,0c-1.63,0-2.08.75-1.35,2.35a6.92,6.92,0,0,0,1.3,1.9,5.47,5.47,0,0,0,4,1.55,5.22,5.22,0,0,0,3.9-1.6m7.1-9a3.11,3.11,0,0,0-2.05-.7,2.3,2.3,0,0,0-1.9.75,2.51,2.51,0,0,0-.95,2,2.42,2.42,0,0,0,.9,1.95,2.65,2.65,0,0,0,2,.85,2.43,2.43,0,0,0,2-.85,2.59,2.59,0,0,0,.85-1.95,2.77,2.77,0,0,0-.85-2.05m1.15-2.8q-1.65-2.91-5.55-2v2a5.1,5.1,0,0,1,5,.65Z"/></g><g id="Layer0_2_MEMBER_5_FILL-2" data-name="Layer0 2 MEMBER 5 FILL"><path class="cls-9" d="M342.62,152.05c0-.47-.22-.69-.65-.65l-4,.35-.35-3.85c0-.44-.23-.62-.7-.55l-4,.3c-.43,0-.65.25-.65.65l.35,3.85-3.85.3q-.75,0-.75.75l.35,4a.71.71,0,0,0,.8.65l3.9-.35.25,3.85a.66.66,0,0,0,.8.6l3.9-.25a.58.58,0,0,0,.6-.7l-.35-3.9,4.1-.35c.37,0,.53-.27.5-.7l-.35-3.95m5.5-3.2a4.59,4.59,0,0,0-1.4,3.5,5,5,0,0,0,1.45,3.6,4.92,4.92,0,0,0,3.6,1.45,4.37,4.37,0,0,0,1.15-.15,4.77,4.77,0,0,0,1.45,3.35,5,5,0,0,0,3.6,1.45,5.66,5.66,0,0,0,3.65-1.45,4.93,4.93,0,0,0,1.45-3.55,4.8,4.8,0,0,0-1.45-3.55,5.39,5.39,0,0,0-3.7-1.5,5.85,5.85,0,0,0-1.1.1,4.47,4.47,0,0,0-1.4-3.25,5.33,5.33,0,0,0-3.65-1.5,5.15,5.15,0,0,0-3.6,1.5h-.05m1.35,1.3a3.12,3.12,0,0,1,2.3-.9,3.22,3.22,0,0,1,2.3.9,3.27,3.27,0,0,1,.95,2.2,3.14,3.14,0,0,1-1,2.25,2.84,2.84,0,0,1-2.25.9,3,3,0,0,1-2.3-.9,2.9,2.9,0,0,1-.85-2.25,2.84,2.84,0,0,1,.85-2.2m5.35,6.85a3.09,3.09,0,0,1,.9-2.2,3.22,3.22,0,0,1,2.3-.9,3.15,3.15,0,0,1,2.25.9,2.92,2.92,0,0,1,1,2.2,2.75,2.75,0,0,1-1,2.2,3.08,3.08,0,0,1-2.25,1,3.29,3.29,0,0,1-2.25-1A2.89,2.89,0,0,1,354.82,157Z"/><path class="cls-10" d="M355.72,154.8a3.09,3.09,0,0,0-.9,2.2,2.89,2.89,0,0,0,.9,2.2,3.29,3.29,0,0,0,2.25,1,3.08,3.08,0,0,0,2.25-1,2.75,2.75,0,0,0,1-2.2,2.92,2.92,0,0,0-1-2.2,3.15,3.15,0,0,0-2.25-.9,3.22,3.22,0,0,0-2.3.9m-4-5.55a3.12,3.12,0,0,0-2.3.9,2.84,2.84,0,0,0-.85,2.2,2.9,2.9,0,0,0,.85,2.25,3,3,0,0,0,2.3.9,2.84,2.84,0,0,0,2.25-.9,3.14,3.14,0,0,0,1-2.25,3.27,3.27,0,0,0-.95-2.2A3.22,3.22,0,0,0,351.77,149.25Z"/></g><g id="Layer0_2_MEMBER_7_FILL-3" data-name="Layer0 2 MEMBER 7 FILL"><path class="cls-2" d="M347.7,172.85a7.46,7.46,0,0,0-2.35,5.4v.15H361.3v-.05l.05,0a8.22,8.22,0,0,0-8-7.8A7.7,7.7,0,0,0,347.7,172.85Z"/></g><g id="Layer0_2_MEMBER_8_FILL-2" data-name="Layer0 2 MEMBER 8 FILL"><path class="cls-13" d="M314.65,151.18a5.75,5.75,0,0,1,3.65,1.11q-2.76-6.81,1.69-10.45l-4-1q-6.88,4-7.28,13.54a13.66,13.66,0,0,0-.16,1.53,6.74,6.74,0,0,1,1.62-3A6.61,6.61,0,0,1,314.65,151.18Z"/><path class="cls-2" d="M320.84,157.29A6.13,6.13,0,0,0,319,152.9a5,5,0,0,0-.7-.61,5.75,5.75,0,0,0-3.65-1.11,6.61,6.61,0,0,0-4.51,1.77,6.74,6.74,0,0,0-1.62,3,5,5,0,0,0-.13,1.42,5.77,5.77,0,0,0,1.84,4.39,5.32,5.32,0,0,0,4.34,1.72,6.13,6.13,0,0,0,4.46-1.8A6,6,0,0,0,320.84,157.29Z"/></g><g id="Layer0_3_MEMBER_0_FILL" data-name="Layer0 3 MEMBER 0 FILL"><path class="cls-14" d="M271.18,147a6.57,6.57,0,0,1,3.47-1.6q-6.56-3.18-5.84-8.78l-3.53,1.91q-2.49,7.58,3.67,14.85c.59.71.92,1.09,1,1.16a6.36,6.36,0,0,1-.86-3.21A6.17,6.17,0,0,1,271.18,147Z"/><path class="cls-2" d="M280.63,152.45a5.73,5.73,0,0,0-1-4.6,6,6,0,0,0-4-2.64l-.89-.14a6.51,6.51,0,0,0-3.66,1.11,6.18,6.18,0,0,0-2.69,4,6.48,6.48,0,0,0,.4,3.3,12.69,12.69,0,0,0,.65,1.36,5.85,5.85,0,0,0,4,2.53,5.51,5.51,0,0,0,4.54-.92A6.43,6.43,0,0,0,280.63,152.45Z"/></g><g id="Layer0_3_MEMBER_1_FILL-2" data-name="Layer0 3 MEMBER 1 FILL"><path class="cls-15" d="M226,174.56a16.93,16.93,0,0,0,5.15,2.2c1.6.4,2.57.3,2.9-.3h.1a7.34,7.34,0,0,0,.75-6,7.49,7.49,0,0,0-3.6-4.8,7.2,7.2,0,0,0-5.9-.85,7.91,7.91,0,0,0-4.9,3.35v.1c-.37.57,0,1.47,1.1,2.7A19.88,19.88,0,0,0,226,174.56Z"/></g><g id="Layer0_3_MEMBER_2_FILL-2" data-name="Layer0 3 MEMBER 2 FILL"><path class="cls-2" d="M230.74,154.51a2.75,2.75,0,0,0-2.05,1.35,3,3,0,0,0-.5,2.45,9.68,9.68,0,0,1-3.6,10,3.27,3.27,0,0,0-1.2,2.2,3.66,3.66,0,0,0,.75,2.4,3.18,3.18,0,0,0,2.25,1.15,3,3,0,0,0,2.35-.7q7.9-6.5,5.85-16.35a3.08,3.08,0,0,0-1.4-2.1A3.11,3.11,0,0,0,230.74,154.51Z"/></g><g id="Layer0_3_MEMBER_3_FILL" data-name="Layer0 3 MEMBER 3 FILL"><path class="cls-5" d="M227.89,111a6.66,6.66,0,0,1,4.5-1.95L224,109a6.58,6.58,0,0,0-4.7,2,6.41,6.41,0,0,0-1.95,4.7v41.8a6.35,6.35,0,0,0,1.95,4.65A6.15,6.15,0,0,0,224,164l8.35.05a6.47,6.47,0,0,1-4.45-1.95,6.19,6.19,0,0,1-1.9-4.65V115.61A6.19,6.19,0,0,1,227.89,111Z"/><path class="cls-2" d="M269.59,115.66a6.31,6.31,0,0,0-1.85-4.65,6.39,6.39,0,0,0-4.6-2.05l-30.75.05a6.66,6.66,0,0,0-4.5,1.95,6.19,6.19,0,0,0-1.9,4.65v41.85a6.19,6.19,0,0,0,1.9,4.65,6.47,6.47,0,0,0,4.45,1.95h30.8a6.65,6.65,0,0,0,4.6-1.9,6.53,6.53,0,0,0,1.9-4.75l-.05-41.75m-38.7,22v-21.5q0-3.45,3.5-3.4l28.2,0c2.37,0,3.53,1.17,3.5,3.5l.05,3-.05,18.45c-.07,2.2-1.23,3.28-3.5,3.25l-28.2.05C232.12,141,231,139.84,230.89,137.61Z"/><path class="cls-6" d="M230.89,116.11v3.15q.15-3.35,3.55-3.35h28.2q3.35,0,3.5,3.3l-.05-3c0-2.33-1.13-3.5-3.5-3.5l-28.2,0Q230.94,112.67,230.89,116.11Z"/><path class="cls-7" d="M230.89,119.26v18.35c.07,2.23,1.23,3.35,3.5,3.35l28.2-.05c2.27,0,3.43-1,3.5-3.25l.05-18.45q-.15-3.34-3.5-3.3h-28.2Q231,115.91,230.89,119.26Z"/></g><g id="Layer0_3_MEMBER_4_FILL" data-name="Layer0 3 MEMBER 4 FILL"><path class="cls-8" d="M260.64,122.46l.55-.65c-1.07-2-2.88-2.63-5.45-2v2a5,5,0,0,1,4.9.6m-.55,2.15a3,3,0,0,0-2-.75,2.23,2.23,0,0,0-1.85.8,2.46,2.46,0,0,0-.95,2,2.56,2.56,0,0,0,.9,2,2.66,2.66,0,0,0,1.95.8,2.48,2.48,0,0,0,2-.8,2.9,2.9,0,0,0,0-4m-14.75,4.8c-1.6,0-2,.75-1.3,2.35a6.78,6.78,0,0,0,1.25,1.85,5.3,5.3,0,0,0,3.9,1.6,5.24,5.24,0,0,0,3.9-1.65,5.38,5.38,0,0,0,1.3-2.05c.47-1.4-.1-2.1-1.7-2.1h-7.35m-9.1-7a5.56,5.56,0,0,1,4.95-.65v-2q-3.9-1-5.5,2l.55.7m5.1,2.15a2.72,2.72,0,0,0-2-.8,2.91,2.91,0,0,0-2,.8,2.88,2.88,0,0,0-.85,2,2.55,2.55,0,0,0,.85,2,2.48,2.48,0,0,0,2,.8,2.66,2.66,0,0,0,2-.8,2.72,2.72,0,0,0,.8-2A2.84,2.84,0,0,0,241.34,124.61Z"/></g><g id="Layer0_3_MEMBER_5_FILL" data-name="Layer0 3 MEMBER 5 FILL"><path class="cls-9" d="M245.89,149.41c0-.47-.22-.68-.65-.65l-3.85.35-.35-3.85c0-.47-.23-.67-.7-.6l-3.9.3a.61.61,0,0,0-.6.7l.3,3.85-3.8.3q-.75,0-.75.75l.35,3.95a.7.7,0,0,0,.8.6l3.85-.35.25,3.85a.67.67,0,0,0,.8.65l3.85-.3a.58.58,0,0,0,.6-.7l-.35-3.85,4-.35c.37,0,.53-.27.5-.7l-.35-4m18.75,1.45a5.22,5.22,0,0,0-3.65-1.5,5.06,5.06,0,0,0-1.05.1,4.37,4.37,0,0,0-1.4-3.25,5.08,5.08,0,0,0-3.6-1.55,5.19,5.19,0,0,0-3.6,1.55h-.05a4.6,4.6,0,0,0-1.35,3.5,5.21,5.21,0,0,0,1.4,3.6,5.11,5.11,0,0,0,3.6,1.4,4.37,4.37,0,0,0,1.15-.15,4.87,4.87,0,0,0,5,4.85,5.4,5.4,0,0,0,3.6-1.45,4.92,4.92,0,0,0,1.45-3.55,4.82,4.82,0,0,0-1.45-3.55m-3.55.35a3,3,0,0,1,2.2.9,3.08,3.08,0,0,1,.95,2.25,2.75,2.75,0,0,1-1,2.2,2.87,2.87,0,0,1-2.2,1,3.21,3.21,0,0,1-2.2-1,2.89,2.89,0,0,1-.9-2.2,3.29,3.29,0,0,1,.9-2.25,3.15,3.15,0,0,1,2.25-.9m-3.9-3.75a3.33,3.33,0,0,1,.95,2.25,3.08,3.08,0,0,1-1,2.2,2.62,2.62,0,0,1-2.2,1,2.83,2.83,0,0,1-2.25-1,2.77,2.77,0,0,1-.9-2.2,2.84,2.84,0,0,1,.9-2.25,3.4,3.4,0,0,1,4.5,0Z"/><path class="cls-10" d="M258.14,149.71a3.33,3.33,0,0,0-.95-2.25,3.4,3.4,0,0,0-4.5,0,2.84,2.84,0,0,0-.9,2.25,2.77,2.77,0,0,0,.9,2.2,2.83,2.83,0,0,0,2.25,1,2.62,2.62,0,0,0,2.2-1,3.08,3.08,0,0,0,1-2.2m5.15,2.4a3,3,0,0,0-2.2-.9,3.15,3.15,0,0,0-2.25.9,3.29,3.29,0,0,0-.9,2.25,2.89,2.89,0,0,0,.9,2.2,3.21,3.21,0,0,0,2.2,1,2.87,2.87,0,0,0,2.2-1,2.75,2.75,0,0,0,1-2.2A3.08,3.08,0,0,0,263.29,152.11Z"/></g><g id="Layer0_3_MEMBER_6_MEMBER_0_FILL" data-name="Layer0 3 MEMBER 6 MEMBER 0 FILL"><path class="cls-5" d="M260.14,165.61a3.27,3.27,0,0,0-1-2.4,3.21,3.21,0,0,0-2.35-1,3,3,0,0,0-2.35,1,3.21,3.21,0,0,0-1.05,2.4,3,3,0,0,0,1.05,2.35,3,3,0,0,0,2.35,1,3.21,3.21,0,0,0,2.35-1A3.1,3.1,0,0,0,260.14,165.61Z"/></g><g id="Layer0_3_MEMBER_6_MEMBER_1_FILL" data-name="Layer0 3 MEMBER 6 MEMBER 1 FILL"><path class="cls-5" d="M263.24,165.26c-.83.63-1.72,1.33-2.65,2.1a35.31,35.31,0,0,0-3.75,3.4q-2.65,2.44-1.8,5a.54.54,0,0,0,.2.25s0,0,0,.1c.5.7,1.68.82,3.55.35a18.65,18.65,0,0,0,6-2.95,24.27,24.27,0,0,0,3.35-2.75,12.87,12.87,0,0,0,1.45-1.7c1.13-1.6,1.47-2.77,1-3.5,0-.07-.07-.1-.1-.1a2.21,2.21,0,0,1-.25-.3Q267.54,163.35,263.24,165.26Z"/><path class="cls-2" d="M264.34,161.21a8.61,8.61,0,0,0-7.2,1.15,8.75,8.75,0,0,0-3.65,6.25,10.45,10.45,0,0,0,.7,5.35,7.63,7.63,0,0,0,.85,1.75q-.85-2.51,1.8-5a35.31,35.31,0,0,1,3.75-3.4c.93-.77,1.82-1.47,2.65-2.1q4.31-1.9,7-.15l-.5-.6a9.21,9.21,0,0,0-1.85-1.75A10.91,10.91,0,0,0,264.34,161.21Z"/></g><g id="Layer0_3_MEMBER_7_FILL" data-name="Layer0 3 MEMBER 7 FILL"><path class="cls-16" d="M214.73,147.58a5.86,5.86,0,0,1,3.16,2.22q-.54-7.32,4.65-9.5l-3.43-2.11q-7.68,1.71-10.91,10.65a14.45,14.45,0,0,0-.59,1.48A5.68,5.68,0,0,1,210,148,5.94,5.94,0,0,1,214.73,147.58Z"/><path class="cls-2" d="M218.38,150.52c-.15-.24-.31-.48-.49-.72a5.86,5.86,0,0,0-3.16-2.22,5.94,5.94,0,0,0-4.7.41,6.11,6.11,0,0,0-3,3.65,5.88,5.88,0,0,0,.4,4.66,5.3,5.3,0,0,0,3.55,3,6,6,0,0,0,4.81-.37,5.79,5.79,0,0,0,2.95-3.6A6.06,6.06,0,0,0,218.38,150.52Z"/></g><g id="Layer0_3_MEMBER_0_FILL-2" data-name="Layer0 3 MEMBER 0 FILL"><path class="cls-17" d="M560.33,147.83a6.58,6.58,0,0,1,3.19-2.11q-7-2.16-7.11-7.79l-3.19,2.42q-1.32,7.86,5.88,14.12c.69.61,1.08.94,1.15,1a6.43,6.43,0,0,1-1.34-3A6.23,6.23,0,0,1,560.33,147.83Z"/><path class="cls-2" d="M570.5,151.83a5.7,5.7,0,0,0-1.65-4.4,6,6,0,0,0-4.35-2h-.9a6.55,6.55,0,0,0-3.45,1.65,6.17,6.17,0,0,0-2,4.35,6.55,6.55,0,0,0,.9,3.2,14.65,14.65,0,0,0,.85,1.25,5.9,5.9,0,0,0,4.3,1.9,5.54,5.54,0,0,0,4.35-1.6A6.37,6.37,0,0,0,570.5,151.83Z"/></g><g id="Layer0_3_MEMBER_3_FILL-2" data-name="Layer0 3 MEMBER 3 FILL"><path class="cls-5" d="M516,111.62a6.66,6.66,0,0,1,4.5-2l-8.4,0a6.58,6.58,0,0,0-4.7,2,6.41,6.41,0,0,0-1.95,4.7v41.8a6.35,6.35,0,0,0,1.95,4.65,6.16,6.16,0,0,0,4.7,1.9l8.35.05a6.49,6.49,0,0,1-4.45-1.95,6.19,6.19,0,0,1-1.9-4.65V116.27A6.19,6.19,0,0,1,516,111.62Z"/><path class="cls-2" d="M557.66,116.32a6.27,6.27,0,0,0-1.85-4.65,6.39,6.39,0,0,0-4.6-2l-30.75,0a6.66,6.66,0,0,0-4.5,2,6.19,6.19,0,0,0-1.9,4.65v41.85a6.19,6.19,0,0,0,1.9,4.65,6.49,6.49,0,0,0,4.45,1.95h30.8a6.65,6.65,0,0,0,4.6-1.9,6.53,6.53,0,0,0,1.9-4.75l-.05-41.75m-38.7,22v-21.5c0-2.3,1.2-3.43,3.5-3.4l28.2-.05q3.55,0,3.5,3.5l.05,3.05-.05,18.45q-.09,3.3-3.5,3.25l-28.2.05Q519.07,141.62,519,138.27Z"/><path class="cls-6" d="M519,116.77v3.15c.1-2.23,1.29-3.35,3.55-3.35h28.2c2.24,0,3.4,1.07,3.5,3.3l-.05-3.05q.06-3.5-3.5-3.5l-28.2.05C520.16,113.34,519,114.47,519,116.77Z"/><path class="cls-7" d="M519,119.92v18.35q.1,3.34,3.5,3.35l28.2-.05q3.4,0,3.5-3.25l.05-18.45c-.1-2.23-1.26-3.33-3.5-3.3h-28.2C520.25,116.57,519.06,117.69,519,119.92Z"/></g><g id="Layer0_3_MEMBER_4_FILL-2" data-name="Layer0 3 MEMBER 4 FILL"><path class="cls-8" d="M548.71,123.12l.55-.65c-1.06-2-2.88-2.63-5.45-2v2a5,5,0,0,1,4.9.6m-.55,2.15a3,3,0,0,0-2-.75,2.23,2.23,0,0,0-1.85.8,2.46,2.46,0,0,0-1,2,2.56,2.56,0,0,0,.9,2,2.69,2.69,0,0,0,1.95.8,2.48,2.48,0,0,0,2-.8,2.9,2.9,0,0,0,0-4m-14.75,4.8c-1.6,0-2,.75-1.3,2.35a6.78,6.78,0,0,0,1.25,1.85,5.3,5.3,0,0,0,3.9,1.6,5.21,5.21,0,0,0,3.9-1.65,5.26,5.26,0,0,0,1.3-2.05c.47-1.4-.1-2.1-1.7-2.1h-7.35m-9.1-6.95a5.57,5.57,0,0,1,5-.65v-2q-3.9-1-5.5,2l.55.7m5.1,2.15a2.72,2.72,0,0,0-2-.8,2.82,2.82,0,0,0-2.8,2.85,2.59,2.59,0,0,0,.85,2,2.49,2.49,0,0,0,2,.8,2.66,2.66,0,0,0,1.95-.8,2.68,2.68,0,0,0,.8-2A2.79,2.79,0,0,0,529.41,125.27Z"/></g><g id="Layer0_3_MEMBER_5_FILL-2" data-name="Layer0 3 MEMBER 5 FILL"><path class="cls-9" d="M534,150.07c0-.47-.21-.68-.65-.65l-3.85.35-.35-3.85c0-.47-.23-.67-.7-.6l-3.9.3a.61.61,0,0,0-.6.7l.3,3.85-3.8.3q-.75,0-.75.75l.35,3.95a.7.7,0,0,0,.8.6l3.85-.35.25,3.85a.68.68,0,0,0,.8.65l3.85-.3a.57.57,0,0,0,.6-.7l-.35-3.85,4-.35c.37,0,.54-.27.5-.7l-.35-4m18.75,1.45a5.26,5.26,0,0,0-4.7-1.4,4.37,4.37,0,0,0-1.4-3.25,5.08,5.08,0,0,0-3.6-1.55,5.22,5.22,0,0,0-3.6,1.55h0a4.6,4.6,0,0,0-1.35,3.5,5.21,5.21,0,0,0,1.4,3.6,5.11,5.11,0,0,0,3.6,1.4,4.32,4.32,0,0,0,1.15-.15,4.87,4.87,0,0,0,5,4.85,5.4,5.4,0,0,0,3.6-1.45,4.92,4.92,0,0,0,1.45-3.55,4.82,4.82,0,0,0-1.45-3.55m-3.55.35a3,3,0,0,1,2.2.9,3,3,0,0,1,.95,2.25,2.75,2.75,0,0,1-1,2.2,2.85,2.85,0,0,1-2.2,1,3.23,3.23,0,0,1-2.2-1,2.89,2.89,0,0,1-.9-2.2,3.29,3.29,0,0,1,.9-2.25,3.18,3.18,0,0,1,2.25-.9m-3.9-3.75a3.33,3.33,0,0,1,1,2.25,3,3,0,0,1-1,2.2,2.61,2.61,0,0,1-2.2,1,2.86,2.86,0,0,1-2.25-1,2.77,2.77,0,0,1-.9-2.2,2.84,2.84,0,0,1,.9-2.25,3.4,3.4,0,0,1,4.5,0Z"/><path class="cls-10" d="M546.21,150.37a3.33,3.33,0,0,0-1-2.25,3.4,3.4,0,0,0-4.5,0,2.84,2.84,0,0,0-.9,2.25,2.77,2.77,0,0,0,.9,2.2,2.86,2.86,0,0,0,2.25,1,2.61,2.61,0,0,0,2.2-1,3,3,0,0,0,1-2.2m5.15,2.4a3,3,0,0,0-2.2-.9,3.18,3.18,0,0,0-2.25.9A3.29,3.29,0,0,0,546,155a2.89,2.89,0,0,0,.9,2.2,3.23,3.23,0,0,0,2.2,1,2.85,2.85,0,0,0,2.2-1,2.75,2.75,0,0,0,1-2.2A3,3,0,0,0,551.36,152.77Z"/></g><g id="Layer0_3_MEMBER_6_MEMBER_0_FILL-2" data-name="Layer0 3 MEMBER 6 MEMBER 0 FILL"><path class="cls-5" d="M527.38,166.86a3.26,3.26,0,0,0-.77-2.48,3.23,3.23,0,0,0-2.24-1.22,3,3,0,0,0-2.44.78,3.2,3.2,0,0,0-1.27,2.29,3.53,3.53,0,0,0,3.07,3.66,3.26,3.26,0,0,0,2.44-.78A3.14,3.14,0,0,0,527.38,166.86Z"/></g><g id="Layer0_3_MEMBER_6_MEMBER_1_FILL-2" data-name="Layer0 3 MEMBER 6 MEMBER 1 FILL"><path class="cls-5" d="M530.5,167.8c-.89.56-1.83,1.17-2.83,1.85a33.76,33.76,0,0,0-4.06,3q-2.86,2.19-2.25,4.76a.49.49,0,0,0,.18.27s0,0,0,.1c.43.75,1.6,1,3.5.68a18.41,18.41,0,0,0,6.2-2.38,24.1,24.1,0,0,0,3.59-2.42,12.52,12.52,0,0,0,1.6-1.56c1.28-1.48,1.72-2.61,1.33-3.39,0-.07-.06-.1-.09-.11a2.13,2.13,0,0,1-.23-.32Q535,166.32,530.5,167.8Z"/><path class="cls-2" d="M532,163.88a8.59,8.59,0,0,0-7.28.47,8.7,8.7,0,0,0-4.22,5.88,10.37,10.37,0,0,0,.2,5.39,7.6,7.6,0,0,0,.68,1.82q-.61-2.56,2.25-4.76a33.76,33.76,0,0,1,4.06-3c1-.68,1.94-1.29,2.83-1.85q4.46-1.49,7,.51l-.44-.64a9,9,0,0,0-1.68-1.92A10.69,10.69,0,0,0,532,163.88Z"/></g><g id="Layer0_3_MEMBER_7_FILL-2" data-name="Layer0 3 MEMBER 7 FILL"><path class="cls-18" d="M501.55,148.23a5.87,5.87,0,0,1,3.06,2.35q-.24-7.35,5-9.31L506.3,139q-7.74,1.41-11.33,10.2a15.17,15.17,0,0,0-.65,1.46,5.7,5.7,0,0,1,2.51-2.23A6,6,0,0,1,501.55,148.23Z"/><path class="cls-2" d="M505.07,151.32a8.23,8.23,0,0,0-.46-.74,5.87,5.87,0,0,0-3.06-2.35,6,6,0,0,0-4.72.22,5.7,5.7,0,0,0-2.51,2.23,5.06,5.06,0,0,0-.62,1.3,5.82,5.82,0,0,0,.21,4.67,5.31,5.31,0,0,0,3.43,3.14,6,6,0,0,0,4.82-.18,5.8,5.8,0,0,0,3.09-3.47A6,6,0,0,0,505.07,151.32Z"/></g><g id="Layer0_3_MEMBER_0_FILL-3" data-name="Layer0 3 MEMBER 0 FILL"><path class="cls-19" d="M174.19,149.08a6.55,6.55,0,0,1,3.45-1.65q-6.6-3.1-5.95-8.7l-3.5,2q-2.4,7.59,3.85,14.8c.6.7.93,1.08,1,1.15a6.35,6.35,0,0,1-.9-3.2A6.17,6.17,0,0,1,174.19,149.08Z"/><path class="cls-2" d="M184.54,153.83a5.7,5.7,0,0,0-1.65-4.4,6,6,0,0,0-4.35-2h-.9a6.55,6.55,0,0,0-3.45,1.65,6.17,6.17,0,0,0-2.05,4.35,6.35,6.35,0,0,0,.9,3.2,12.64,12.64,0,0,0,.85,1.25,5.9,5.9,0,0,0,4.3,1.9,5.54,5.54,0,0,0,4.35-1.6A6.42,6.42,0,0,0,184.54,153.83Z"/></g><g id="Layer0_3_MEMBER_1_FILL-3" data-name="Layer0 3 MEMBER 1 FILL"><path class="cls-20" d="M135.71,178.79a17.2,17.2,0,0,0,5.57.53c1.65-.11,2.54-.5,2.68-1.17l.09,0a7.35,7.35,0,0,0-1.09-5.9,7.53,7.53,0,0,0-4.89-3.48,7.21,7.21,0,0,0-5.88,1,7.84,7.84,0,0,0-3.65,4.68l0,.09c-.18.65.45,1.4,1.87,2.24A20.05,20.05,0,0,0,135.71,178.79Z"/></g><g id="Layer0_3_MEMBER_2_FILL-3" data-name="Layer0 3 MEMBER 2 FILL"><path class="cls-2" d="M136.27,156.54a2.8,2.8,0,0,0-1.56,1.91,3,3,0,0,0,.26,2.48,9.67,9.67,0,0,1-.44,10.62,3.34,3.34,0,0,0-.48,2.46,3.63,3.63,0,0,0,1.43,2.07,3.19,3.19,0,0,0,2.49.42,3,3,0,0,0,2-1.37q5.58-8.58.68-17.35a3.14,3.14,0,0,0-4.42-1.24Z"/></g><g id="Layer0_3_MEMBER_3_FILL-3" data-name="Layer0 3 MEMBER 3 FILL"><path class="cls-5" d="M130.44,112.63a6.57,6.57,0,0,1,4.5-1.95l-8.4-.05a6.58,6.58,0,0,0-4.7,2,6.4,6.4,0,0,0-2,4.7v41.8a6.35,6.35,0,0,0,2,4.65,6.15,6.15,0,0,0,4.7,1.9l8.35,0a6.47,6.47,0,0,1-4.45-1.95,6.19,6.19,0,0,1-1.9-4.65V117.28A6.19,6.19,0,0,1,130.44,112.63Z"/><path class="cls-2" d="M172.14,117.33a6.66,6.66,0,0,0-6.45-6.7l-30.75.05a6.57,6.57,0,0,0-4.5,1.95,6.19,6.19,0,0,0-1.9,4.65v41.85a6.19,6.19,0,0,0,1.9,4.65,6.47,6.47,0,0,0,4.45,1.95h30.8a6.69,6.69,0,0,0,4.6-1.9,6.55,6.55,0,0,0,1.9-4.75l-.05-41.75m-38.7,22v-21.5c0-2.3,1.2-3.44,3.5-3.4l28.2,0c2.37,0,3.53,1.16,3.5,3.5l.05,3-.05,18.45c-.07,2.2-1.23,3.28-3.5,3.25l-28.2,0C134.67,142.63,133.51,141.51,133.44,139.28Z"/><path class="cls-6" d="M133.44,117.78v3.15c.1-2.24,1.28-3.35,3.55-3.35h28.2q3.34-.06,3.5,3.3l-.05-3c0-2.34-1.13-3.5-3.5-3.5l-28.2,0C134.64,114.34,133.47,115.48,133.44,117.78Z"/><path class="cls-7" d="M133.44,120.93v18.35c.07,2.23,1.23,3.35,3.5,3.35l28.2,0c2.27,0,3.43-1.05,3.5-3.25l.05-18.45q-.15-3.36-3.5-3.3H137C134.72,117.58,133.54,118.69,133.44,120.93Z"/></g><g id="Layer0_3_MEMBER_4_FILL-3" data-name="Layer0 3 MEMBER 4 FILL"><path class="cls-8" d="M163.19,124.13l.55-.65c-1.07-2-2.88-2.64-5.45-2v2a5,5,0,0,1,4.9.6m-.55,2.15a3,3,0,0,0-2-.75,2.2,2.2,0,0,0-1.85.8,2.46,2.46,0,0,0-1,2,2.57,2.57,0,0,0,.9,2,2.66,2.66,0,0,0,1.95.8,2.51,2.51,0,0,0,2-.8,2.85,2.85,0,0,0,.8-2,2.82,2.82,0,0,0-.8-2m-14.75,4.8c-1.6,0-2,.75-1.3,2.35a6.94,6.94,0,0,0,1.25,1.85,5.34,5.34,0,0,0,3.9,1.6,5.24,5.24,0,0,0,3.9-1.65,5.46,5.46,0,0,0,1.3-2c.47-1.4-.1-2.1-1.7-2.1h-7.35m-9.1-7a5.53,5.53,0,0,1,5-.65v-2q-3.9-1-5.5,2l.55.7m5.1,2.15a2.68,2.68,0,0,0-2-.8,2.91,2.91,0,0,0-1.95.8,2.88,2.88,0,0,0-.85,2.05,2.59,2.59,0,0,0,.85,1.95,2.51,2.51,0,0,0,2,.8,2.66,2.66,0,0,0,1.95-.8,2.74,2.74,0,0,0,.8-2A2.82,2.82,0,0,0,143.89,126.28Z"/></g><g id="Layer0_3_MEMBER_5_FILL-3" data-name="Layer0 3 MEMBER 5 FILL"><path class="cls-9" d="M148.44,151.08c0-.47-.22-.69-.65-.65l-3.85.35-.35-3.85c0-.47-.23-.67-.7-.6l-3.9.3c-.4,0-.6.26-.6.7l.3,3.85-3.8.3q-.75,0-.75.75l.35,4a.7.7,0,0,0,.8.6l3.85-.35.25,3.85a.68.68,0,0,0,.8.65l3.85-.3a.58.58,0,0,0,.6-.7l-.35-3.85,4-.35c.37,0,.53-.27.5-.7l-.35-3.95m18.75,1.45a5.22,5.22,0,0,0-3.65-1.5,5.06,5.06,0,0,0-1,.1,4.36,4.36,0,0,0-1.4-3.25,5.08,5.08,0,0,0-3.6-1.55,5.19,5.19,0,0,0-3.6,1.55h0a4.6,4.6,0,0,0-1.35,3.5,5.24,5.24,0,0,0,1.4,3.6,5.11,5.11,0,0,0,3.6,1.4,4.37,4.37,0,0,0,1.15-.15,4.91,4.91,0,0,0,1.4,3.4,5,5,0,0,0,3.55,1.45,5.45,5.45,0,0,0,3.6-1.45,4.93,4.93,0,0,0,1.45-3.55,4.8,4.8,0,0,0-1.45-3.55m-3.55.35a3,3,0,0,1,2.2.9,3.08,3.08,0,0,1,.95,2.25,2.75,2.75,0,0,1-1,2.2,2.9,2.9,0,0,1-2.2,1,3.26,3.26,0,0,1-2.2-1,2.89,2.89,0,0,1-.9-2.2,3.25,3.25,0,0,1,.9-2.25,3.15,3.15,0,0,1,2.25-.9m-3.9-3.75a3.33,3.33,0,0,1,.95,2.25,3.1,3.1,0,0,1-1,2.2,2.65,2.65,0,0,1-2.2.95,2.86,2.86,0,0,1-2.25-.95,2.79,2.79,0,0,1-.9-2.2,2.84,2.84,0,0,1,.9-2.25,3.4,3.4,0,0,1,4.5,0Z"/><path class="cls-10" d="M160.69,151.38a3.33,3.33,0,0,0-.95-2.25,3.4,3.4,0,0,0-4.5,0,2.84,2.84,0,0,0-.9,2.25,2.79,2.79,0,0,0,.9,2.2,2.86,2.86,0,0,0,2.25.95,2.65,2.65,0,0,0,2.2-.95,3.1,3.1,0,0,0,1-2.2m5.15,2.4a3,3,0,0,0-2.2-.9,3.15,3.15,0,0,0-2.25.9,3.25,3.25,0,0,0-.9,2.25,2.89,2.89,0,0,0,.9,2.2,3.26,3.26,0,0,0,2.2,1,2.9,2.9,0,0,0,2.2-1,2.75,2.75,0,0,0,1-2.2A3.08,3.08,0,0,0,165.84,153.78Z"/></g><g id="Layer0_3_MEMBER_6_MEMBER_0_FILL-3" data-name="Layer0 3 MEMBER 6 MEMBER 0 FILL"><path class="cls-5" d="M161,167.86a4.14,4.14,0,0,0-1-2.81,3.1,3.1,0,0,0-2.4-1.17,2.9,2.9,0,0,0-2.39,1.17,4,4,0,0,0-1.07,2.81,3.85,3.85,0,0,0,1.07,2.76,2.9,2.9,0,0,0,2.39,1.17,3.1,3.1,0,0,0,2.4-1.17A3.94,3.94,0,0,0,161,167.86Z"/></g><g id="Layer0_3_MEMBER_6_MEMBER_1_FILL-3" data-name="Layer0 3 MEMBER 6 MEMBER 1 FILL"><path class="cls-5" d="M163,174.76c-.92.26-10.38,2.53-10.14,3.9a.46.46,0,0,0,.15.23s0,0,0,.09q.53.95,3.36,1.11a21.21,21.21,0,0,0,6.28-.73,24.07,24.07,0,0,0,3.73-1.21,11.32,11.32,0,0,0,1.71-.9c1.39-.9,1.93-1.68,1.62-2.33a.14.14,0,0,0-.08-.1,2,2,0,0,1-.19-.28C167.94,173.24,164.81,174.39,163,174.76Z"/><path class="cls-2" d="M165.62,168.57a7.82,7.82,0,0,0-6.74-1.07,8.43,8.43,0,0,0-5.13,4.63,10.17,10.17,0,0,0-1,5.09,7.37,7.37,0,0,0,.22,1.85c0-1.69,3.18-2,5.24-3,1.07-.24,10.29-2.57,11.53-1-.08-.23-.25-1.7-.33-1.93A8.65,8.65,0,0,0,168.3,171,9.93,9.93,0,0,0,165.62,168.57Z"/></g><g id="Layer0_3_MEMBER_7_FILL-3" data-name="Layer0 3 MEMBER 7 FILL"><path class="cls-21" d="M116.5,149.23a5.86,5.86,0,0,1,2.84,2.6q.42-7.32,5.85-8.81l-3.14-2.54q-7.83.71-12.19,9.15a14.57,14.57,0,0,0-.78,1.39,5.71,5.71,0,0,1,2.7-2A5.92,5.92,0,0,1,116.5,149.23Z"/><path class="cls-2" d="M119.73,152.61a7.09,7.09,0,0,0-.39-.78,5.86,5.86,0,0,0-2.84-2.6,5.92,5.92,0,0,0-4.72-.2,5.71,5.71,0,0,0-2.7,2,5.48,5.48,0,0,0-.73,1.24,5.86,5.86,0,0,0-.21,4.67,5.32,5.32,0,0,0,3.14,3.44,6.06,6.06,0,0,0,4.81.25,5.77,5.77,0,0,0,3.39-3.19A6,6,0,0,0,119.73,152.61Z"/></g><g id="Layer0_3_MEMBER_0_FILL-4" data-name="Layer0 3 MEMBER 0 FILL"><path class="cls-22" d="M462.85,150.16a6.52,6.52,0,0,1,3.61-1.27c-4.16-2.53-5.81-5.63-5-9.29l-3.69,1.56q-3.21,7.29,2.23,15.13c.52.76.81,1.18.87,1.25a6.49,6.49,0,0,1-.55-3.28A6.15,6.15,0,0,1,462.85,150.16Z"/><path class="cls-2" d="M472.63,156a5.75,5.75,0,0,0-1.17-4.55,6,6,0,0,0-4.11-2.45l-.89-.1a6.52,6.52,0,0,0-3.61,1.27,6.15,6.15,0,0,0-2.51,4.1,6.49,6.49,0,0,0,.55,3.28,12.5,12.5,0,0,0,.71,1.33,5.87,5.87,0,0,0,4.07,2.36,5.54,5.54,0,0,0,4.5-1.13A6.42,6.42,0,0,0,472.63,156Z"/></g><g id="Layer0_3_MEMBER_1_FILL-4" data-name="Layer0 3 MEMBER 1 FILL"><path class="cls-23" d="M428.75,177.92A16.67,16.67,0,0,0,434,176c1.44-.81,2.07-1.54,1.9-2.21l.07-.07a7.34,7.34,0,0,0-3.54-4.83,7.54,7.54,0,0,0-5.92-1,7.25,7.25,0,0,0-4.87,3.44,7.91,7.91,0,0,0-1.25,5.8l.07.08c.12.66,1,1.06,2.66,1.2A19.68,19.68,0,0,0,428.75,177.92Z"/></g><g id="Layer0_3_MEMBER_2_FILL-4" data-name="Layer0 3 MEMBER 2 FILL"><path class="cls-2" d="M423.08,158.1a2.75,2.75,0,0,0-1.29,2.09,3,3,0,0,0,.59,2.43,9.67,9.67,0,0,1,1,10.58,3.31,3.31,0,0,0-.16,2.5,3.66,3.66,0,0,0,1.69,1.86,3.18,3.18,0,0,0,2.53.09,3,3,0,0,0,1.83-1.62q4.42-9.24-1.6-17.29a3.07,3.07,0,0,0-2.16-1.32A3.15,3.15,0,0,0,423.08,158.1Z"/></g><g id="Layer0_3_MEMBER_3_FILL-4" data-name="Layer0 3 MEMBER 3 FILL"><path class="cls-5" d="M420.17,113.9a6.66,6.66,0,0,1,4.5-2l-8.4,0a6.62,6.62,0,0,0-4.7,2,6.41,6.41,0,0,0-1.95,4.7v41.8a6.35,6.35,0,0,0,1.95,4.65,6.11,6.11,0,0,0,4.7,1.9l8.35.05a6.38,6.38,0,0,1-4.45-1.95,6.19,6.19,0,0,1-1.9-4.65V118.55A6.19,6.19,0,0,1,420.17,113.9Z"/><path class="cls-2" d="M461.87,118.6A6.34,6.34,0,0,0,460,114a6.43,6.43,0,0,0-4.6-2l-30.75,0a6.66,6.66,0,0,0-4.5,2,6.19,6.19,0,0,0-1.9,4.65V160.4a6.19,6.19,0,0,0,1.9,4.65,6.38,6.38,0,0,0,4.45,1.95h30.8a6.61,6.61,0,0,0,4.6-1.9,6.53,6.53,0,0,0,1.9-4.75l-.05-41.75m-38.7,22v-21.5q0-3.45,3.5-3.4l28.2-.05c2.37,0,3.53,1.17,3.5,3.5l.05,3.05-.05,18.45c-.07,2.2-1.23,3.29-3.5,3.25l-28.2.05C424.4,143.9,423.24,142.79,423.17,140.55Z"/><path class="cls-6" d="M423.17,119.05v3.15q.15-3.35,3.55-3.35h28.2q3.34,0,3.5,3.3l-.05-3.05c0-2.33-1.13-3.5-3.5-3.5l-28.2.05Q423.22,115.61,423.17,119.05Z"/><path class="cls-7" d="M423.17,122.2v18.35c.07,2.24,1.23,3.35,3.5,3.35l28.2-.05c2.27,0,3.43-1,3.5-3.25l.05-18.45q-.15-3.34-3.5-3.3h-28.2Q423.31,118.85,423.17,122.2Z"/></g><g id="Layer0_3_MEMBER_4_FILL-4" data-name="Layer0 3 MEMBER 4 FILL"><path class="cls-8" d="M452.92,125.4l.55-.65c-1.07-2-2.88-2.63-5.45-2v2a5,5,0,0,1,4.9.6m-.55,2.15a3,3,0,0,0-2.05-.75,2.26,2.26,0,0,0-1.85.8,2.49,2.49,0,0,0-1,2,2.56,2.56,0,0,0,.9,2,2.62,2.62,0,0,0,1.95.8,2.44,2.44,0,0,0,2-.8,2.82,2.82,0,0,0,.8-2,2.85,2.85,0,0,0-.8-2m-14.75,4.8c-1.6,0-2,.75-1.3,2.35a6.64,6.64,0,0,0,1.25,1.85,5.3,5.3,0,0,0,3.9,1.6,5.24,5.24,0,0,0,3.9-1.65,5.38,5.38,0,0,0,1.3-2.05c.47-1.4-.1-2.1-1.7-2.1h-7.35m-9.1-6.95a5.6,5.6,0,0,1,5-.65v-2q-3.9-1-5.5,2l.55.7m5.1,2.15a2.72,2.72,0,0,0-2-.8,3,3,0,0,0-1.95.8,2.9,2.9,0,0,0-.85,2,2.55,2.55,0,0,0,.85,2,2.44,2.44,0,0,0,2,.8,2.62,2.62,0,0,0,1.95-.8,2.72,2.72,0,0,0,.8-2A2.85,2.85,0,0,0,433.62,127.55Z"/></g><g id="Layer0_3_MEMBER_5_FILL-4" data-name="Layer0 3 MEMBER 5 FILL"><path class="cls-9" d="M438.17,152.35c0-.46-.22-.68-.65-.65l-3.85.35-.35-3.85c0-.46-.23-.66-.7-.6l-3.9.3a.61.61,0,0,0-.6.7l.3,3.85-3.8.3q-.75.06-.75.75l.35,3.95a.7.7,0,0,0,.8.6l3.85-.35.25,3.85a.67.67,0,0,0,.8.65l3.85-.3a.58.58,0,0,0,.6-.7l-.35-3.85,4-.35c.37,0,.53-.26.5-.7l-.35-4m18.75,1.45a5.31,5.31,0,0,0-3.65-1.5,5.85,5.85,0,0,0-1,.1,4.39,4.39,0,0,0-1.4-3.25,5.12,5.12,0,0,0-3.6-1.55,5.23,5.23,0,0,0-3.6,1.55h-.05a4.62,4.62,0,0,0-1.35,3.5,5.21,5.21,0,0,0,1.4,3.6,5.06,5.06,0,0,0,3.6,1.4,4.37,4.37,0,0,0,1.15-.15,4.87,4.87,0,0,0,4.95,4.85,5.35,5.35,0,0,0,3.6-1.45,4.92,4.92,0,0,0,1.45-3.55,4.82,4.82,0,0,0-1.45-3.55m-3.55.35a3,3,0,0,1,2.2.9,3.11,3.11,0,0,1,.95,2.25,2.73,2.73,0,0,1-1,2.2,2.83,2.83,0,0,1-2.2,1,3.17,3.17,0,0,1-2.2-1,2.88,2.88,0,0,1-.9-2.2,3.29,3.29,0,0,1,.9-2.25,3.15,3.15,0,0,1,2.25-.9m-3.9-3.75a3.37,3.37,0,0,1,.95,2.25,3.08,3.08,0,0,1-1,2.2,2.59,2.59,0,0,1-2.2,1,3.16,3.16,0,0,1-3.15-3.15,2.84,2.84,0,0,1,.9-2.25,3.4,3.4,0,0,1,4.5,0Z"/><path class="cls-10" d="M450.42,152.65a3.37,3.37,0,0,0-.95-2.25,3.4,3.4,0,0,0-4.5,0,2.84,2.84,0,0,0-.9,2.25,3.16,3.16,0,0,0,3.15,3.15,2.59,2.59,0,0,0,2.2-1,3.08,3.08,0,0,0,1-2.2m5.15,2.4a3,3,0,0,0-2.2-.9,3.15,3.15,0,0,0-2.25.9,3.29,3.29,0,0,0-.9,2.25,2.88,2.88,0,0,0,.9,2.2,3.17,3.17,0,0,0,2.2,1,2.83,2.83,0,0,0,2.2-1,2.73,2.73,0,0,0,1-2.2A3.11,3.11,0,0,0,455.57,155.05Z"/></g><g id="Layer0_3_MEMBER_7_FILL-4" data-name="Layer0 3 MEMBER 7 FILL"><path class="cls-24" d="M407.82,150.57a5.81,5.81,0,0,1,3.39,1.82c-.94-4.8.22-8.14,3.48-10L411,140.72q-7.41,2.63-9.54,11.88a12.66,12.66,0,0,0-.4,1.55,5.59,5.59,0,0,1,2.12-2.6A5.94,5.94,0,0,1,407.82,150.57Z"/><path class="cls-2" d="M411.79,153.05a7.21,7.21,0,0,0-.58-.66,5.81,5.81,0,0,0-3.39-1.82,5.94,5.94,0,0,0-4.62,1,5.59,5.59,0,0,0-2.12,2.6,5.07,5.07,0,0,0-.41,1.38,5.89,5.89,0,0,0,1,4.57,5.29,5.29,0,0,0,3.89,2.56,6,6,0,0,0,4.73-1,5.77,5.77,0,0,0,2.49-3.92A6.05,6.05,0,0,0,411.79,153.05Z"/></g><g id="Layer0_3_MEMBER_1_FILL-5" data-name="Layer0 3 MEMBER 1 FILL"><path class="cls-3" d="M326.28,177.34a16.82,16.82,0,0,0,5.33,1.72c1.63.25,2.58.07,2.86-.56h.1a7.35,7.35,0,0,0,.2-6,7.52,7.52,0,0,0-4-4.45,7.25,7.25,0,0,0-6-.31,7.91,7.91,0,0,0-4.57,3.79v.1c-.31.6.13,1.46,1.34,2.59A20.06,20.06,0,0,0,326.28,177.34Z"/></g><g id="Layer0_3_MEMBER_1_FILL-6" data-name="Layer0 3 MEMBER 1 FILL"><path class="cls-2" d="M326.28,177.34a16.82,16.82,0,0,0,5.33,1.72c1.63.25,2.58.07,2.86-.56h.1a7.35,7.35,0,0,0,.2-6,7.52,7.52,0,0,0-4-4.45C331.51,170.43,328.41,176.92,326.28,177.34Z"/></g><g id="Layer0_2_MEMBER_2_FILL-3" data-name="Layer0 2 MEMBER 2 FILL"><path class="cls-3" d="M639.94,174.19a2.87,2.87,0,0,0,2-1.42,19.8,19.8,0,0,0,2.22-4.92c-1.47-1.46-3.64-2-6.51-1.57a11.25,11.25,0,0,1-1.35,3.07,3.48,3.48,0,0,0-.46,2.47,3.58,3.58,0,0,0,1.57,2.06A3.38,3.38,0,0,0,639.94,174.19Z"/><path class="cls-3" d="M637.63,154.3a3,3,0,0,0-1.53,1.9,3.66,3.66,0,0,0,.39,2.58,9.49,9.49,0,0,1,1.21,7.5c2.87-.42,5,.11,6.51,1.57a15.44,15.44,0,0,0-2-12.46,2.93,2.93,0,0,0-2-1.48A3.19,3.19,0,0,0,637.63,154.3Z"/></g><g id="Layer0_2_MEMBER_0_FILL-3" data-name="Layer0 2 MEMBER 0 FILL"><path class="cls-2" d="M667.49,155.85a6.3,6.3,0,0,0,1.09-4.66,5.9,5.9,0,0,0-2.56-4,6,6,0,0,0-4.73-1,9.25,9.25,0,0,1-1,.21,6.48,6.48,0,0,0-4.07,7.05,6.19,6.19,0,0,0,1.51,2.93,11.59,11.59,0,0,0,1.13,1,5.74,5.74,0,0,0,4.6.94A5.49,5.49,0,0,0,667.49,155.85Z"/><path class="cls-25" d="M652.73,139.22l-3.1,2.61q-.78,8,6.92,13.65a10.75,10.75,0,0,0,1.22.94,6.19,6.19,0,0,1-1.51-2.93,6.48,6.48,0,0,1,4.07-7.05Q653.25,144.81,652.73,139.22Z"/></g><g id="Layer0_2_MEMBER_1_FILL-4" data-name="Layer0 2 MEMBER 1 FILL"><path class="cls-2" d="M624,155a3.17,3.17,0,0,0-2.42-.56,3.11,3.11,0,0,0-2.15,1.39q-4.75,6.4-3,13.19a8,8,0,0,1,6.34-2.85,10.17,10.17,0,0,1,2-6.63,3.29,3.29,0,0,0,.65-2.44A3.44,3.44,0,0,0,624,155Z"/><path class="cls-5" d="M616.37,169.05a18.11,18.11,0,0,0,1.54,4.07,3.2,3.2,0,0,0,2,1.67,3.48,3.48,0,0,0,2.52-.18,2.92,2.92,0,0,0,1.54-1.87,3,3,0,0,0-.13-2.48,11.43,11.43,0,0,1-1.08-4.06A8,8,0,0,0,616.37,169.05Z"/></g><g id="Layer0_2_MEMBER_3_FILL-3" data-name="Layer0 2 MEMBER 3 FILL"><path class="cls-5" d="M608.37,111.65a6.82,6.82,0,0,0-4.75,1.95,6.49,6.49,0,0,0-2,4.75V160.1a6.57,6.57,0,0,0,6.75,6.55l8.5,0a6.59,6.59,0,0,1-4.5-1.9,6.29,6.29,0,0,1-2-4.7V118.3a6.28,6.28,0,0,1,2-4.7,6.74,6.74,0,0,1,4.55-1.9Z"/><path class="cls-2" d="M654.67,118.35a6.36,6.36,0,0,0-1.9-4.7,6.62,6.62,0,0,0-4.65-2l-31.2,0a6.74,6.74,0,0,0-4.55,1.9,6.28,6.28,0,0,0-2,4.7v41.8a6.29,6.29,0,0,0,2,4.7,6.59,6.59,0,0,0,4.5,1.9h31.2a7,7,0,0,0,4.7-1.85,6.65,6.65,0,0,0,2-4.8l-.05-41.7m-3.55,3.55,0,18.45q-.11,3.3-3.55,3.25l-28.55.05q-3.45,0-3.55-3.35V118.8c0-2.3,1.22-3.44,3.55-3.4l28.55-.05c2.4,0,3.58,1.16,3.55,3.5Z"/><path class="cls-6" d="M647.57,118.6q3.4-.06,3.55,3.3l0-3.05c0-2.34-1.15-3.5-3.55-3.5L619,115.4c-2.33,0-3.52,1.1-3.55,3.4V122c.1-2.24,1.3-3.35,3.6-3.35Z"/><path class="cls-7" d="M651.07,140.35l0-18.45q-.15-3.36-3.55-3.3H619c-2.3,0-3.5,1.11-3.6,3.35V140.3q.11,3.34,3.55,3.35l28.55-.05Q651,143.64,651.07,140.35Z"/></g><g id="Layer0_2_MEMBER_4_FILL-3" data-name="Layer0 2 MEMBER 4 FILL"><path class="cls-8" d="M620.22,124.4l.6.75a5.53,5.53,0,0,1,5-.7v-2q-3.95-1-5.6,1.9m5.75,2.85a2.81,2.81,0,0,0-2-.75,3.09,3.09,0,0,0-2,.75,3,3,0,0,0-.85,2.1,2.42,2.42,0,0,0,.85,1.9,2.49,2.49,0,0,0,2,.85,2.59,2.59,0,0,0,2-.85,2.47,2.47,0,0,0,.85-1.95,2.77,2.77,0,0,0-.85-2.05m11.9,9a6.61,6.61,0,0,0,1.35-2.1c.47-1.37-.12-2.05-1.75-2.05l-7.4,0c-1.63,0-2.08.75-1.35,2.35a6.92,6.92,0,0,0,1.3,1.9,5.47,5.47,0,0,0,4,1.55,5.22,5.22,0,0,0,3.9-1.6m7.1-9a3.11,3.11,0,0,0-2.05-.7,2.3,2.3,0,0,0-1.9.75,2.51,2.51,0,0,0-.95,2,2.42,2.42,0,0,0,.9,1.95,2.65,2.65,0,0,0,2,.85,2.43,2.43,0,0,0,2-.85,2.59,2.59,0,0,0,.85-1.95,2.77,2.77,0,0,0-.85-2.05m1.15-2.8q-1.65-2.91-5.55-2v2a5.1,5.1,0,0,1,5,.65Z"/></g><g id="Layer0_2_MEMBER_5_FILL-3" data-name="Layer0 2 MEMBER 5 FILL"><path class="cls-9" d="M630.62,152.05c0-.47-.22-.69-.65-.65l-4,.35-.35-3.85c0-.44-.23-.62-.7-.55l-4,.3c-.43,0-.65.25-.65.65l.35,3.85-3.85.3q-.75,0-.75.75l.35,4a.71.71,0,0,0,.8.65l3.9-.35.25,3.85a.66.66,0,0,0,.8.6l3.9-.25a.58.58,0,0,0,.6-.7l-.35-3.9,4.1-.35c.37,0,.53-.27.5-.7l-.35-3.95m5.5-3.2a4.59,4.59,0,0,0-1.4,3.5,5,5,0,0,0,1.45,3.6,4.92,4.92,0,0,0,3.6,1.45,4.37,4.37,0,0,0,1.15-.15,4.77,4.77,0,0,0,1.45,3.35,5,5,0,0,0,3.6,1.45,5.66,5.66,0,0,0,3.65-1.45,4.93,4.93,0,0,0,1.45-3.55,4.8,4.8,0,0,0-1.45-3.55,5.39,5.39,0,0,0-3.7-1.5,5.85,5.85,0,0,0-1.1.1,4.47,4.47,0,0,0-1.4-3.25,5.33,5.33,0,0,0-3.65-1.5,5.15,5.15,0,0,0-3.6,1.5h0m1.35,1.3a3.12,3.12,0,0,1,2.3-.9,3.22,3.22,0,0,1,2.3.9,3.27,3.27,0,0,1,.95,2.2,3.14,3.14,0,0,1-1,2.25,2.84,2.84,0,0,1-2.25.9,3,3,0,0,1-2.3-.9,2.9,2.9,0,0,1-.85-2.25,2.84,2.84,0,0,1,.85-2.2m5.35,6.85a3.09,3.09,0,0,1,.9-2.2,3.22,3.22,0,0,1,2.3-.9,3.15,3.15,0,0,1,2.25.9,2.92,2.92,0,0,1,1,2.2,2.75,2.75,0,0,1-1,2.2,3.08,3.08,0,0,1-2.25,1,3.29,3.29,0,0,1-2.25-1A2.89,2.89,0,0,1,642.82,157Z"/><path class="cls-10" d="M643.72,154.8a3.09,3.09,0,0,0-.9,2.2,2.89,2.89,0,0,0,.9,2.2,3.29,3.29,0,0,0,2.25,1,3.08,3.08,0,0,0,2.25-1,2.75,2.75,0,0,0,1-2.2,2.92,2.92,0,0,0-1-2.2,3.15,3.15,0,0,0-2.25-.9,3.22,3.22,0,0,0-2.3.9m-4-5.55a3.12,3.12,0,0,0-2.3.9,2.84,2.84,0,0,0-.85,2.2,2.9,2.9,0,0,0,.85,2.25,3,3,0,0,0,2.3.9,2.84,2.84,0,0,0,2.25-.9,3.14,3.14,0,0,0,1-2.25,3.27,3.27,0,0,0-.95-2.2A3.22,3.22,0,0,0,639.77,149.25Z"/></g><g id="Layer0_2_MEMBER_7_FILL-4" data-name="Layer0 2 MEMBER 7 FILL"><path class="cls-2" d="M615.44,172.85a7.5,7.5,0,0,0-2.35,5.4v.15H629v-.05l.05,0a7.45,7.45,0,0,0-2.4-5.4,7.55,7.55,0,0,0-5.6-2.4A7.7,7.7,0,0,0,615.44,172.85Z"/></g><g id="Layer0_2_MEMBER_8_FILL-3" data-name="Layer0 2 MEMBER 8 FILL"><path class="cls-26" d="M597.21,150.59a5.72,5.72,0,0,1,2.87,2.5q.25-7.34,5.8-8.86l-3.28-2.52q-7.9.81-12.17,9.4a14.21,14.21,0,0,0-.76,1.33,6.82,6.82,0,0,1,2.69-2.08A6.68,6.68,0,0,1,597.21,150.59Z"/><path class="cls-2" d="M600.37,158.69a6.1,6.1,0,0,0,.11-4.76,4.64,4.64,0,0,0-.4-.84,5.72,5.72,0,0,0-2.87-2.5,6.68,6.68,0,0,0-4.85-.23,6.82,6.82,0,0,0-2.69,2.08,4.94,4.94,0,0,0-.7,1.24,5.77,5.77,0,0,0-.11,4.76,5.34,5.34,0,0,0,3.27,3.34,6.1,6.1,0,0,0,4.81.17A6,6,0,0,0,600.37,158.69Z"/></g><g id="Layer0_3_MEMBER_1_FILL-7" data-name="Layer0 3 MEMBER 1 FILL"><path class="cls-3" d="M638.2,177.6a16.69,16.69,0,0,0,5.56.64q2.47-.11,2.7-1.11l.09,0a7.34,7.34,0,0,0-1-5.92,7.49,7.49,0,0,0-4.82-3.57,7.21,7.21,0,0,0-5.89.87,7.87,7.87,0,0,0-3.74,4.61l0,.09q-.28,1,1.83,2.28A20,20,0,0,0,638.2,177.6Z"/></g><g id="Layer0_3_MEMBER_1_FILL-8" data-name="Layer0 3 MEMBER 1 FILL"><path class="cls-2" d="M638.2,177.6a16.69,16.69,0,0,0,5.56.64q2.47-.11,2.7-1.11l.09,0a7.34,7.34,0,0,0-1-5.92,7.49,7.49,0,0,0-4.82-3.57C642,169.8,640.21,176.77,638.2,177.6Z"/></g><path class="cls-5" d="M435.88,174.16c0-.58-16.95,1.73-15.19,3.38,1.69,1.86,7.53.5,9,.21S435.65,175.54,435.88,174.16Z"/><g id="Layer0_2_MEMBER_0_FILL-4" data-name="Layer0 2 MEMBER 0 FILL"><path class="cls-2" d="M79.15,258.65a6.37,6.37,0,0,0,3.1-3.65,5.87,5.87,0,0,0-.45-4.7,6.06,6.06,0,0,0-3.75-3.05,8.21,8.21,0,0,1-1-.25,6.49,6.49,0,0,0-6.85,4.4,6.16,6.16,0,0,0,0,3.3,9.81,9.81,0,0,0,.55,1.4,5.76,5.76,0,0,0,3.65,2.95A5.56,5.56,0,0,0,79.15,258.65Z"/><path class="cls-27" d="M73.65,237.1l-4,.9q-4.35,6.75-.1,15.3a9.53,9.53,0,0,0,.65,1.4,6.16,6.16,0,0,1,0-3.3A6.49,6.49,0,0,1,77.1,247Q71.55,242.29,73.65,237.1Z"/></g><g id="Layer0_2_MEMBER_1_FILL-5" data-name="Layer0 2 MEMBER 1 FILL"><path class="cls-2" d="M61.3,254.2a3.18,3.18,0,0,0-2.25-1,3,3,0,0,0-2.4.9q-6,5.25-5.75,12.25a8,8,0,0,1,6.8-1.45,10.13,10.13,0,0,1,3.35-6.05,3.34,3.34,0,0,0,1.15-2.25A3.51,3.51,0,0,0,61.3,254.2Z"/><path class="cls-5" d="M50.9,266.3a17.8,17.8,0,0,0,.65,4.3,3.22,3.22,0,0,0,1.55,2,3.47,3.47,0,0,0,2.5.35,3,3,0,0,0,1.9-1.5,3,3,0,0,0,.4-2.45,11.2,11.2,0,0,1-.2-4.2A8,8,0,0,0,50.9,266.3Z"/></g><g id="Layer0_2_MEMBER_2_FILL-4" data-name="Layer0 2 MEMBER 2 FILL"><path class="cls-5" d="M43.3,273a2.9,2.9,0,0,0,2-1.55,20.21,20.21,0,0,0,1.9-5.05q-2.35-2.06-6.6-1.15a11.6,11.6,0,0,1-1.15,3.15,3.52,3.52,0,0,0-.3,2.5,3.58,3.58,0,0,0,1.7,2A3.47,3.47,0,0,0,43.3,273Z"/><path class="cls-2" d="M39.7,253.3a3,3,0,0,0-1.4,2,3.63,3.63,0,0,0,.55,2.55,9.5,9.5,0,0,1,1.7,7.4q4.25-.9,6.6,1.15a15.46,15.46,0,0,0-2.85-12.3,2.89,2.89,0,0,0-2.1-1.35A3.15,3.15,0,0,0,39.7,253.3Z"/></g><g id="Layer0_2_MEMBER_3_FILL-4" data-name="Layer0 2 MEMBER 3 FILL"><path class="cls-5" d="M27.15,208.65a6.81,6.81,0,0,0-4.75,1.95,6.45,6.45,0,0,0-2,4.75V257.1a6.57,6.57,0,0,0,6.75,6.55l8.5.05a6.59,6.59,0,0,1-4.5-1.9,6.22,6.22,0,0,1-1.95-4.7V215.3a6.2,6.2,0,0,1,1.95-4.7,6.73,6.73,0,0,1,4.55-1.9Z"/><path class="cls-2" d="M73.45,215.35a6.39,6.39,0,0,0-1.9-4.7,6.66,6.66,0,0,0-4.65-2l-31.2,0a6.73,6.73,0,0,0-4.55,1.9,6.2,6.2,0,0,0-1.95,4.7v41.8a6.22,6.22,0,0,0,1.95,4.7,6.59,6.59,0,0,0,4.5,1.9h31.2a7,7,0,0,0,4.7-1.85,6.65,6.65,0,0,0,2-4.8l0-41.7M69.9,218.9l-.05,18.45q-.1,3.3-3.55,3.25l-28.55.05c-2.3,0-3.49-1.12-3.55-3.35V215.8c0-2.3,1.21-3.44,3.55-3.4l28.55-.05c2.4,0,3.58,1.16,3.55,3.5Z"/><path class="cls-6" d="M66.35,215.6c2.26,0,3.45,1.06,3.55,3.3l-.05-3.05c0-2.34-1.15-3.5-3.55-3.5l-28.55.05c-2.34,0-3.52,1.1-3.55,3.4V219c.1-2.24,1.3-3.35,3.6-3.35Z"/><path class="cls-7" d="M69.85,237.35l.05-18.45c-.1-2.24-1.29-3.34-3.55-3.3H37.8c-2.3,0-3.5,1.11-3.6,3.35V237.3c.06,2.23,1.25,3.35,3.55,3.35l28.55-.05Q69.75,240.65,69.85,237.35Z"/></g><g id="Layer0_2_MEMBER_4_FILL-4" data-name="Layer0 2 MEMBER 4 FILL"><path class="cls-8" d="M39,221.4l.6.75a5.53,5.53,0,0,1,5-.7V219.5c-2.64-.67-4.5,0-5.6,1.9m5.75,2.85a2.82,2.82,0,0,0-2-.75,3.09,3.09,0,0,0-2,.75,3,3,0,0,0-.85,2.1,2.42,2.42,0,0,0,.85,1.9,2.47,2.47,0,0,0,2,.85,2.62,2.62,0,0,0,2-.85,2.5,2.5,0,0,0,.85-1.95,2.81,2.81,0,0,0-.85-2.05m11.9,9a6.61,6.61,0,0,0,1.35-2.1c.46-1.37-.12-2.05-1.75-2.05l-7.4,0c-1.64,0-2.09.75-1.35,2.35a6.92,6.92,0,0,0,1.3,1.9,5.45,5.45,0,0,0,4,1.55,5.25,5.25,0,0,0,3.9-1.6m7.1-9a3.11,3.11,0,0,0-2-.7,2.3,2.3,0,0,0-1.9.75,2.48,2.48,0,0,0-.95,2,2.42,2.42,0,0,0,.9,1.95,2.65,2.65,0,0,0,2,.85,2.44,2.44,0,0,0,2-.85,2.62,2.62,0,0,0,.85-1.95,2.81,2.81,0,0,0-.85-2.05m1.15-2.8q-1.65-2.91-5.55-1.95v2a5.1,5.1,0,0,1,5,.65Z"/></g><g id="Layer0_2_MEMBER_5_FILL-4" data-name="Layer0 2 MEMBER 5 FILL"><path class="cls-9" d="M49.4,249.05c0-.47-.22-.69-.65-.65l-4,.35-.35-3.85c0-.44-.24-.62-.7-.55l-4,.3c-.44,0-.65.25-.65.65l.35,3.85-3.85.3q-.75,0-.75.75l.35,4a.71.71,0,0,0,.8.65l3.9-.35.25,3.85a.66.66,0,0,0,.8.6l3.9-.25a.58.58,0,0,0,.6-.7l-.35-3.9,4.1-.35c.36,0,.53-.27.5-.7l-.35-3.95m5.5-3.2a4.55,4.55,0,0,0-1.4,3.5A5,5,0,0,0,55,253a4.89,4.89,0,0,0,3.6,1.45,4.37,4.37,0,0,0,1.15-.15,4.72,4.72,0,0,0,1.45,3.35,5,5,0,0,0,3.6,1.45,5.68,5.68,0,0,0,3.65-1.45,5,5,0,0,0,1.45-3.55,4.84,4.84,0,0,0-1.45-3.55,5.41,5.41,0,0,0-3.7-1.5,5.77,5.77,0,0,0-1.1.1,4.51,4.51,0,0,0-1.4-3.25,5.35,5.35,0,0,0-3.65-1.5,5.15,5.15,0,0,0-3.6,1.5H54.9m1.35,1.3a3.1,3.1,0,0,1,2.3-.9,3.23,3.23,0,0,1,2.3.9,3.32,3.32,0,0,1,.95,2.2,3.18,3.18,0,0,1-1,2.25,2.84,2.84,0,0,1-2.25.9,3,3,0,0,1-2.3-.9,2.87,2.87,0,0,1-.85-2.25,2.8,2.8,0,0,1,.85-2.2M61.6,254a3.09,3.09,0,0,1,.9-2.2,3.22,3.22,0,0,1,2.3-.9,3.18,3.18,0,0,1,2.25.9,2.92,2.92,0,0,1,1,2.2,2.78,2.78,0,0,1-1,2.2,3.08,3.08,0,0,1-2.25,1,3.29,3.29,0,0,1-2.25-1A2.89,2.89,0,0,1,61.6,254Z"/><path class="cls-10" d="M62.5,251.8a3.09,3.09,0,0,0-.9,2.2,2.89,2.89,0,0,0,.9,2.2,3.29,3.29,0,0,0,2.25,1,3.08,3.08,0,0,0,2.25-1,2.78,2.78,0,0,0,1-2.2,2.92,2.92,0,0,0-1-2.2,3.18,3.18,0,0,0-2.25-.9,3.22,3.22,0,0,0-2.3.9m-4-5.55a3.1,3.1,0,0,0-2.3.9,2.8,2.8,0,0,0-.85,2.2,2.87,2.87,0,0,0,.85,2.25,3,3,0,0,0,2.3.9,2.84,2.84,0,0,0,2.25-.9,3.18,3.18,0,0,0,1-2.25,3.32,3.32,0,0,0-.95-2.2A3.23,3.23,0,0,0,58.55,246.25Z"/></g><g id="Layer0_2_MEMBER_6_FILL-2" data-name="Layer0 2 MEMBER 6 FILL"><path class="cls-2" d="M34.45,274.55v.1H50.4v0l.05-.05a7.53,7.53,0,0,0-2.4-5.4,7.63,7.63,0,0,0-5.65-2.4,7.52,7.52,0,0,0-5.6,2.35,7.42,7.42,0,0,0-2.35,5.4Z"/></g><g id="Layer0_2_MEMBER_7_FILL-5" data-name="Layer0 2 MEMBER 7 FILL"><path class="cls-2" d="M48.75,269.1a7.42,7.42,0,0,0-2.35,5.4v.15h16v0l0-.05a8.22,8.22,0,0,0-8-7.8A7.68,7.68,0,0,0,48.75,269.1Z"/></g><g id="Layer0_2_MEMBER_8_FILL-4" data-name="Layer0 2 MEMBER 8 FILL"><path class="cls-28" d="M18.25,248.55a5.71,5.71,0,0,1,3.3,1.9q-1.15-7.26,4-9.8l-3.7-1.85q-7.6,2.3-10.15,11.55a12.48,12.48,0,0,0-.5,1.45,6.59,6.59,0,0,1,2.25-2.55A6.57,6.57,0,0,1,18.25,248.55Z"/><path class="cls-2" d="M22.9,255.9a6.17,6.17,0,0,0-.8-4.7,6,6,0,0,0-.55-.75,5.71,5.71,0,0,0-3.3-1.9,6.57,6.57,0,0,0-4.8.7,6.59,6.59,0,0,0-2.25,2.55,5.35,5.35,0,0,0-.45,1.35,5.81,5.81,0,0,0,.8,4.7,5.35,5.35,0,0,0,3.85,2.65,6.17,6.17,0,0,0,7.5-4.6Z"/></g><g id="Layer0_2_MEMBER_0_FILL-5" data-name="Layer0 2 MEMBER 0 FILL"><path class="cls-2" d="M174.81,261.13a6.33,6.33,0,0,0,3.15-3.6,5.86,5.86,0,0,0-.38-4.71,6.06,6.06,0,0,0-3.7-3.1,8.17,8.17,0,0,1-.95-.27,6.13,6.13,0,0,0-7,7.6,10.09,10.09,0,0,0,.53,1.41,5.76,5.76,0,0,0,3.6,3A5.54,5.54,0,0,0,174.81,261.13Z"/><path class="cls-29" d="M169.63,239.5l-4,.84q-4.46,6.69-.33,15.3a9.37,9.37,0,0,0,.63,1.41,6.29,6.29,0,0,1,7-7.6Q167.46,244.67,169.63,239.5Z"/></g><g id="Layer0_2_MEMBER_1_FILL-6" data-name="Layer0 2 MEMBER 1 FILL"><path class="cls-2" d="M157.3,254.2a3.18,3.18,0,0,0-2.25-1,3,3,0,0,0-2.4.9q-6,5.25-5.75,12.25a8,8,0,0,1,6.8-1.45,10.13,10.13,0,0,1,3.35-6.05,3.34,3.34,0,0,0,1.15-2.25A3.51,3.51,0,0,0,157.3,254.2Z"/><path class="cls-5" d="M146.9,266.3a17.8,17.8,0,0,0,.65,4.3,3.22,3.22,0,0,0,1.55,2,3.47,3.47,0,0,0,2.5.35,3,3,0,0,0,1.9-1.5,3,3,0,0,0,.4-2.45,11.2,11.2,0,0,1-.2-4.2A8,8,0,0,0,146.9,266.3Z"/></g><g id="Layer0_2_MEMBER_2_FILL-5" data-name="Layer0 2 MEMBER 2 FILL"><path class="cls-5" d="M139.3,273a2.9,2.9,0,0,0,1.95-1.55,20.21,20.21,0,0,0,1.9-5.05q-2.35-2.06-6.6-1.15a11.6,11.6,0,0,1-1.15,3.15,3.52,3.52,0,0,0-.3,2.5,3.58,3.58,0,0,0,1.7,2A3.47,3.47,0,0,0,139.3,273Z"/><path class="cls-2" d="M135.7,253.3a3,3,0,0,0-1.4,2,3.63,3.63,0,0,0,.55,2.55,9.5,9.5,0,0,1,1.7,7.4q4.24-.9,6.6,1.15a15.46,15.46,0,0,0-2.85-12.3,2.89,2.89,0,0,0-2.1-1.35A3.15,3.15,0,0,0,135.7,253.3Z"/></g><g id="Layer0_2_MEMBER_3_FILL-5" data-name="Layer0 2 MEMBER 3 FILL"><path class="cls-5" d="M123.56,210.36a6.86,6.86,0,0,0-4.78,1.88,6.51,6.51,0,0,0-2.07,4.72l-.62,41.74a6.57,6.57,0,0,0,6.65,6.65l8.5.18a6.55,6.55,0,0,1-4.47-2,6.21,6.21,0,0,1-1.88-4.72l.62-41.8a6.25,6.25,0,0,1,2-4.67,6.77,6.77,0,0,1,4.58-1.83Z"/><path class="cls-2" d="M169.75,217.75a6.37,6.37,0,0,0-1.83-4.73A6.63,6.63,0,0,0,163.3,211l-31.19-.41a6.77,6.77,0,0,0-4.58,1.83,6.25,6.25,0,0,0-2,4.67l-.62,41.8a6.21,6.21,0,0,0,1.88,4.72,6.55,6.55,0,0,0,4.47,2l31.19.47a7,7,0,0,0,4.73-1.78,6.66,6.66,0,0,0,2-4.77l.57-41.7m-3.6,3.5-.32,18.44q-.15,3.3-3.6,3.2l-28.55-.37c-2.3,0-3.47-1.17-3.5-3.41l.27-18.35.05-3.15c.07-2.29,1.27-3.41,3.6-3.34l28.55.37c2.4,0,3.56,1.22,3.5,3.56Z"/><path class="cls-6" d="M162.65,217.89c2.27,0,3.43,1.12,3.5,3.36V218.2c.06-2.34-1.1-3.52-3.5-3.56l-28.55-.37c-2.33-.07-3.53,1-3.6,3.34l-.05,3.15c.14-2.23,1.35-3.33,3.65-3.29Z"/><path class="cls-7" d="M165.83,239.69l.32-18.44c-.07-2.24-1.23-3.35-3.5-3.36l-28.55-.42c-2.3,0-3.51,1.06-3.65,3.29l-.27,18.35c0,2.24,1.2,3.37,3.5,3.41l28.55.37Q165.68,243,165.83,239.69Z"/></g><g id="Layer0_2_MEMBER_4_FILL-5" data-name="Layer0 2 MEMBER 4 FILL"><path class="cls-8" d="M135.22,223.29l.59.75a5.56,5.56,0,0,1,5-.62l0-1.95c-2.63-.71-4.5-.1-5.63,1.82m5.7,2.93a2.76,2.76,0,0,0-2-.78,3.15,3.15,0,0,0-2,.72,3,3,0,0,0-.88,2.09,2.45,2.45,0,0,0,.82,1.91,2.49,2.49,0,0,0,2,.88,2.56,2.56,0,0,0,2-.82,2.46,2.46,0,0,0,.88-1.94,2.76,2.76,0,0,0-.82-2.06m11.77,9.18a6.51,6.51,0,0,0,1.38-2.08c.49-1.36-.09-2-1.72-2.08l-7.4-.16q-2.44-.09-1.38,2.33a6.88,6.88,0,0,0,1.27,1.92,5.44,5.44,0,0,0,3.93,1.61,5.22,5.22,0,0,0,3.92-1.54m7.23-8.9a3.19,3.19,0,0,0-2-.73,2.36,2.36,0,0,0-1.91.73,2.49,2.49,0,0,0-1,2,2.41,2.41,0,0,0,.87,2,2.62,2.62,0,0,0,2,.88,2.38,2.38,0,0,0,2-.82,2.54,2.54,0,0,0,.88-1.93,2.82,2.82,0,0,0-.82-2.07m1.19-2.78c-1.07-1.95-2.91-2.62-5.52-2l0,2a5.15,5.15,0,0,1,5,.72Z"/></g><g id="Layer0_2_MEMBER_5_FILL-5" data-name="Layer0 2 MEMBER 5 FILL"><path class="cls-9" d="M145.2,251.09c0-.47-.2-.69-.64-.66l-3.95.29-.29-3.86c0-.43-.23-.62-.7-.56l-4,.25a.6.6,0,0,0-.66.64l.29,3.85-3.85.24c-.5,0-.76.27-.76.74l.29,4a.71.71,0,0,0,.79.66l3.9-.29.2,3.85a.66.66,0,0,0,.79.61l3.9-.19a.58.58,0,0,0,.61-.69l-.29-3.91,4.1-.28c.37,0,.54-.26.51-.7l-.29-3.95m5.55-3.12a4.61,4.61,0,0,0-1.45,3.48,5,5,0,0,0,1.39,3.62,4.91,4.91,0,0,0,3.58,1.5,3.94,3.94,0,0,0,1.15-.13,4.8,4.8,0,0,0,1.4,3.37,5,5,0,0,0,3.58,1.51,5.62,5.62,0,0,0,3.67-1.4,4.9,4.9,0,0,0,1.51-3.53,4.84,4.84,0,0,0-1.4-3.57,5.4,5.4,0,0,0-3.68-1.55,5.88,5.88,0,0,0-1.1.08,4.47,4.47,0,0,0-1.35-3.27,5.36,5.36,0,0,0-3.63-1.55A5.16,5.16,0,0,0,150.8,248h-.05m1.33,1.32a3.14,3.14,0,0,1,2.31-.87,3.25,3.25,0,0,1,2.29.94,3.3,3.3,0,0,1,.92,2.21,3.14,3.14,0,0,1-1,2.24,2.81,2.81,0,0,1-2.26.86,3,3,0,0,1-2.29-.93,2.87,2.87,0,0,1-.81-2.26,2.82,2.82,0,0,1,.88-2.19m5.25,6.93a3.11,3.11,0,0,1,.93-2.19,3.18,3.18,0,0,1,2.31-.86,3.14,3.14,0,0,1,2.24.93,3,3,0,0,1,.92,2.22,2.77,2.77,0,0,1-1,2.18,3,3,0,0,1-2.26,1,3.23,3.23,0,0,1-2.23-1A2.82,2.82,0,0,1,157.33,256.22Z"/><path class="cls-10" d="M158.26,254a3.11,3.11,0,0,0-.93,2.19,2.82,2.82,0,0,0,.87,2.21,3.23,3.23,0,0,0,2.23,1,3,3,0,0,0,2.26-1,2.77,2.77,0,0,0,1-2.18,3,3,0,0,0-.92-2.22,3.14,3.14,0,0,0-2.24-.93,3.18,3.18,0,0,0-2.31.86m-3.87-5.61a3.14,3.14,0,0,0-2.31.87,2.82,2.82,0,0,0-.88,2.19,2.87,2.87,0,0,0,.81,2.26,3,3,0,0,0,2.29.93,2.81,2.81,0,0,0,2.26-.86,3.14,3.14,0,0,0,1-2.24,3.3,3.3,0,0,0-.92-2.21A3.25,3.25,0,0,0,154.39,248.42Z"/></g><g id="Layer0_2_MEMBER_6_FILL-3" data-name="Layer0 2 MEMBER 6 FILL"><path class="cls-2" d="M130.45,274.55v.1h16v0l0-.05a7.53,7.53,0,0,0-2.4-5.4,7.63,7.63,0,0,0-5.65-2.4,7.52,7.52,0,0,0-5.6,2.35,7.42,7.42,0,0,0-2.35,5.4Z"/></g><g id="Layer0_2_MEMBER_7_FILL-6" data-name="Layer0 2 MEMBER 7 FILL"><path class="cls-2" d="M144.75,269.1a7.42,7.42,0,0,0-2.35,5.4v.15h15.95v0l.05-.05a8.22,8.22,0,0,0-8-7.8A7.68,7.68,0,0,0,144.75,269.1Z"/></g><g id="Layer0_2_MEMBER_8_FILL-5" data-name="Layer0 2 MEMBER 8 FILL"><path class="cls-30" d="M114.06,250.12a5.81,5.81,0,0,1,3.28,1.95q-1.05-7.26,4.14-9.74l-3.67-1.9q-7.64,2.19-10.32,11.4a12.5,12.5,0,0,0-.52,1.44,6.78,6.78,0,0,1,2.28-2.52A6.65,6.65,0,0,1,114.06,250.12Z"/><path class="cls-2" d="M118.6,257.54a6.1,6.1,0,0,0-.73-4.71,6.86,6.86,0,0,0-.53-.76,5.81,5.81,0,0,0-3.28-1.95,6.65,6.65,0,0,0-4.81.63,6.78,6.78,0,0,0-2.28,2.52,4.81,4.81,0,0,0-.47,1.34,5.77,5.77,0,0,0,.73,4.71A5.34,5.34,0,0,0,111,262a6.1,6.1,0,0,0,4.76-.68A6,6,0,0,0,118.6,257.54Z"/></g><g id="Layer0_2_MEMBER_0_FILL-6" data-name="Layer0 2 MEMBER 0 FILL"><path class="cls-2" d="M271.53,255.08a6.32,6.32,0,0,0,3-3.7,5.85,5.85,0,0,0-.54-4.69,6.08,6.08,0,0,0-3.8-3,8.8,8.8,0,0,1-1-.23,6.14,6.14,0,0,0-6.72,7.82,10.13,10.13,0,0,0,.58,1.39,5.73,5.73,0,0,0,3.7,2.88A5.5,5.5,0,0,0,271.53,255.08Z"/><path class="cls-31" d="M265.66,233.63l-3.94,1q-4.23,6.83.17,15.3a10.36,10.36,0,0,0,.67,1.39,6.28,6.28,0,0,1,6.72-7.82Q263.64,238.87,265.66,233.63Z"/></g><g id="Layer0_2_MEMBER_1_FILL-7" data-name="Layer0 2 MEMBER 1 FILL"><path class="cls-2" d="M253.3,254.2a3.18,3.18,0,0,0-2.25-1,3,3,0,0,0-2.4.9q-6,5.25-5.75,12.25a8,8,0,0,1,6.8-1.45,10.13,10.13,0,0,1,3.35-6.05,3.34,3.34,0,0,0,1.15-2.25A3.51,3.51,0,0,0,253.3,254.2Z"/><path class="cls-5" d="M242.9,266.3a17.8,17.8,0,0,0,.65,4.3,3.22,3.22,0,0,0,1.55,2,3.47,3.47,0,0,0,2.5.35,3,3,0,0,0,1.9-1.5,3,3,0,0,0,.4-2.45,11.2,11.2,0,0,1-.2-4.2A8,8,0,0,0,242.9,266.3Z"/></g><g id="Layer0_2_MEMBER_2_FILL-6" data-name="Layer0 2 MEMBER 2 FILL"><path class="cls-5" d="M235.3,273a2.9,2.9,0,0,0,1.95-1.55,20.21,20.21,0,0,0,1.9-5.05q-2.35-2.06-6.6-1.15a11.6,11.6,0,0,1-1.15,3.15,3.52,3.52,0,0,0-.3,2.5,3.58,3.58,0,0,0,1.7,2A3.47,3.47,0,0,0,235.3,273Z"/><path class="cls-2" d="M231.7,253.3a3,3,0,0,0-1.4,2,3.63,3.63,0,0,0,.55,2.55,9.5,9.5,0,0,1,1.7,7.4q4.24-.9,6.6,1.15a15.46,15.46,0,0,0-2.85-12.3,2.89,2.89,0,0,0-2.1-1.35A3.15,3.15,0,0,0,231.7,253.3Z"/></g><g id="Layer0_2_MEMBER_3_FILL-6" data-name="Layer0 2 MEMBER 3 FILL"><path class="cls-5" d="M218.67,206a6.82,6.82,0,0,0-4.71,2A6.48,6.48,0,0,0,212,212.8l.72,41.75a6.58,6.58,0,0,0,6.86,6.43l8.5-.1a6.58,6.58,0,0,1-4.53-1.82,6.26,6.26,0,0,1-2-4.67l-.72-41.79a6.22,6.22,0,0,1,1.87-4.73,6.74,6.74,0,0,1,4.51-2Z"/><path class="cls-2" d="M265.08,211.89a6.36,6.36,0,0,0-2-4.67,6.6,6.6,0,0,0-4.68-1.92l-31.2.59a6.74,6.74,0,0,0-4.51,2,6.22,6.22,0,0,0-1.87,4.73l.72,41.79a6.26,6.26,0,0,0,2,4.67,6.58,6.58,0,0,0,4.53,1.82l31.2-.54a7,7,0,0,0,4.67-1.93,6.64,6.64,0,0,0,1.86-4.83l-.77-41.69m-3.49,3.61.27,18.44c0,2.21-1.19,3.31-3.49,3.32l-28.55.54q-3.45.06-3.6-3.29l-.32-18.35-.05-3.15q0-3.45,3.49-3.46l28.54-.54c2.4,0,3.61,1.1,3.61,3.44Z"/><path class="cls-6" d="M258,212.26c2.26-.07,3.47,1,3.6,3.24l-.1-3.05c0-2.34-1.21-3.48-3.61-3.44l-28.54.54q-3.51,0-3.49,3.46l.05,3.15q.09-3.34,3.54-3.41Z"/><path class="cls-7" d="M261.86,233.94l-.27-18.44c-.13-2.23-1.34-3.31-3.6-3.24l-28.55.49q-3.45.06-3.54,3.41l.32,18.35q.15,3.35,3.6,3.29l28.55-.54C260.67,237.25,261.83,236.15,261.86,233.94Z"/></g><g id="Layer0_2_MEMBER_4_FILL-6" data-name="Layer0 2 MEMBER 4 FILL"><path class="cls-8" d="M230.74,218.53l.62.74a5.54,5.54,0,0,1,5-.79l0-1.95c-2.65-.62-4.5.05-5.57,2m5.8,2.75a2.82,2.82,0,0,0-2-.72,3.15,3.15,0,0,0-2,.79,2.91,2.91,0,0,0-.81,2.11,2.4,2.4,0,0,0,.88,1.89,2.46,2.46,0,0,0,2.06.81,2.55,2.55,0,0,0,1.94-.88,2.5,2.5,0,0,0,.82-2,2.82,2.82,0,0,0-.89-2m12.05,8.79a6.49,6.49,0,0,0,1.32-2.12c.44-1.37-.15-2-1.79-2l-7.4.08c-1.63,0-2.07.78-1.31,2.37a6.86,6.86,0,0,0,1.34,1.88,5.45,5.45,0,0,0,4,1.48,5.18,5.18,0,0,0,3.87-1.67m6.95-9.12a3.13,3.13,0,0,0-2.06-.66,2.35,2.35,0,0,0-1.89.78,2.54,2.54,0,0,0-.92,2,2.43,2.43,0,0,0,.94,1.93,2.63,2.63,0,0,0,2,.82,2.44,2.44,0,0,0,2-.89,2.57,2.57,0,0,0,.81-2,2.81,2.81,0,0,0-.88-2m1.1-2.82q-1.69-2.87-5.58-1.85l0,2a5.12,5.12,0,0,1,5,.56Z"/></g><g id="Layer0_2_MEMBER_5_FILL-6" data-name="Layer0 2 MEMBER 5 FILL"><path class="cls-9" d="M241.62,246c0-.47-.23-.68-.66-.64l-4,.42-.41-3.85c0-.43-.25-.61-.71-.54l-3.95.37a.61.61,0,0,0-.64.66l.42,3.85-3.84.36c-.5.05-.75.3-.74.77l.42,3.94a.72.72,0,0,0,.81.64l3.89-.42.32,3.84a.65.65,0,0,0,.81.59l3.89-.32a.58.58,0,0,0,.59-.71l-.42-3.89,4.1-.42c.36,0,.53-.28.49-.71l-.42-3.94m5.44-3.3a4.63,4.63,0,0,0-1.34,3.53,5,5,0,0,0,1.51,3.57,4.94,4.94,0,0,0,3.63,1.39A4.84,4.84,0,0,0,252,251a4.71,4.71,0,0,0,1.5,3.32,5,5,0,0,0,3.63,1.39,5.63,5.63,0,0,0,3.62-1.51,5,5,0,0,0,1.39-3.58,4.81,4.81,0,0,0-1.51-3.52,5.43,5.43,0,0,0-3.73-1.44,6.73,6.73,0,0,0-1.09.12,4.48,4.48,0,0,0-1.46-3.22,5.35,5.35,0,0,0-3.67-1.44,5.22,5.22,0,0,0-3.58,1.56h-.05m1.37,1.28a3.1,3.1,0,0,1,2.29-.94,3.18,3.18,0,0,1,2.31.86,3.31,3.31,0,0,1,1,2.18,3.17,3.17,0,0,1-1,2.27,2.82,2.82,0,0,1-2.23.94,3,3,0,0,1-2.32-.86,2.9,2.9,0,0,1-.89-2.24,2.82,2.82,0,0,1,.81-2.21m5.47,6.75a3.1,3.1,0,0,1,.86-2.21,3.27,3.27,0,0,1,2.29-.94,3.17,3.17,0,0,1,2.26.86,2.88,2.88,0,0,1,1,2.18,2.74,2.74,0,0,1-1,2.22,3,3,0,0,1-2.23,1,3.27,3.27,0,0,1-2.27-1A2.92,2.92,0,0,1,253.9,250.73Z"/><path class="cls-10" d="M254.76,248.52a3.1,3.1,0,0,0-.86,2.21,2.92,2.92,0,0,0,.94,2.19,3.27,3.27,0,0,0,2.27,1,3,3,0,0,0,2.23-1,2.74,2.74,0,0,0,1-2.22,2.88,2.88,0,0,0-1-2.18,3.17,3.17,0,0,0-2.26-.86,3.27,3.27,0,0,0-2.29.94m-4-5.48a3.1,3.1,0,0,0-2.29.94,2.82,2.82,0,0,0-.81,2.21,2.9,2.9,0,0,0,.89,2.24,3,3,0,0,0,2.32.86,2.82,2.82,0,0,0,2.23-.94,3.17,3.17,0,0,0,1-2.27,3.31,3.31,0,0,0-1-2.18A3.18,3.18,0,0,0,250.72,243Z"/></g><g id="Layer0_2_MEMBER_6_FILL-4" data-name="Layer0 2 MEMBER 6 FILL"><path class="cls-2" d="M226.45,274.55v.1h16v0l0-.05a7.53,7.53,0,0,0-2.4-5.4,7.63,7.63,0,0,0-5.65-2.4,7.52,7.52,0,0,0-5.6,2.35,7.42,7.42,0,0,0-2.35,5.4Z"/></g><g id="Layer0_2_MEMBER_7_FILL-7" data-name="Layer0 2 MEMBER 7 FILL"><path class="cls-2" d="M240.75,269.1a7.42,7.42,0,0,0-2.35,5.4v.15h15.95v0l.05-.05a8.22,8.22,0,0,0-8-7.8A7.68,7.68,0,0,0,240.75,269.1Z"/></g><g id="Layer0_2_MEMBER_8_FILL-6" data-name="Layer0 2 MEMBER 8 FILL"><path class="cls-32" d="M210.46,246a5.78,5.78,0,0,1,3.34,1.85q-1.28-7.23,3.83-9.87l-3.74-1.79Q206.35,238.65,204,248c-.32.9-.48,1.39-.48,1.45a6.77,6.77,0,0,1,2.21-2.58A6.63,6.63,0,0,1,210.46,246Z"/><path class="cls-2" d="M215.24,253.3a6.15,6.15,0,0,0-.88-4.68,6,6,0,0,0-.56-.74,5.78,5.78,0,0,0-3.34-1.85,6.63,6.63,0,0,0-4.78.79,6.77,6.77,0,0,0-2.21,2.58,6,6,0,0,0-.43,1.36,5.84,5.84,0,0,0,.89,4.69,5.34,5.34,0,0,0,3.89,2.58,6.11,6.11,0,0,0,4.74-.83A6,6,0,0,0,215.24,253.3Z"/></g><g id="Layer0_2_MEMBER_0_FILL-7" data-name="Layer0 2 MEMBER 0 FILL"><path class="cls-2" d="M79.36,63.77A6.28,6.28,0,0,0,82.25,60a5.86,5.86,0,0,0-.71-4.67,6.09,6.09,0,0,0-3.92-2.83,8.58,8.58,0,0,1-1-.19A6.46,6.46,0,0,0,70.07,57a6.13,6.13,0,0,0,.18,3.3,12.28,12.28,0,0,0,.63,1.37,5.78,5.78,0,0,0,3.81,2.74A5.5,5.5,0,0,0,79.36,63.77Z"/><path class="cls-33" d="M72.66,42.57l-3.9,1.12q-4,7,.77,15.28a10.17,10.17,0,0,0,.72,1.36A5.94,5.94,0,0,1,73,53.16a6,6,0,0,1,3.66-.9Q70.86,47.88,72.66,42.57Z"/></g><g id="Layer0_2_MEMBER_1_FILL-8" data-name="Layer0 2 MEMBER 1 FILL"><path class="cls-2" d="M61.3,62.2a3.18,3.18,0,0,0-2.25-1.05,3,3,0,0,0-2.4.9q-6,5.25-5.75,12.25a8,8,0,0,1,6.8-1.45,10.13,10.13,0,0,1,3.35-6,3.34,3.34,0,0,0,1.15-2.25A3.51,3.51,0,0,0,61.3,62.2Z"/><path class="cls-5" d="M50.9,74.3a17.8,17.8,0,0,0,.65,4.3,3.22,3.22,0,0,0,1.55,2.05,3.47,3.47,0,0,0,2.5.35,3,3,0,0,0,1.9-1.5,3,3,0,0,0,.4-2.45,11.2,11.2,0,0,1-.2-4.2A8,8,0,0,0,50.9,74.3Z"/></g><g id="Layer0_2_MEMBER_2_FILL-7" data-name="Layer0 2 MEMBER 2 FILL"><path class="cls-5" d="M43.3,81a2.9,2.9,0,0,0,2-1.55,20.21,20.21,0,0,0,1.9-5q-2.35-2.06-6.6-1.15A11.6,11.6,0,0,1,39.4,76.4a3.52,3.52,0,0,0-.3,2.5,3.58,3.58,0,0,0,1.7,1.95A3.47,3.47,0,0,0,43.3,81Z"/><path class="cls-2" d="M39.7,61.3a3,3,0,0,0-1.4,2,3.63,3.63,0,0,0,.55,2.55,9.5,9.5,0,0,1,1.7,7.4q4.25-.9,6.6,1.15A15.46,15.46,0,0,0,44.3,62.1a2.89,2.89,0,0,0-2.1-1.35A3.15,3.15,0,0,0,39.7,61.3Z"/></g><g id="Layer0_2_MEMBER_3_FILL-7" data-name="Layer0 2 MEMBER 3 FILL"><path class="cls-5" d="M24.62,16.79A6.81,6.81,0,0,0,20,19a6.5,6.5,0,0,0-1.73,4.86l2.36,41.68a6.57,6.57,0,0,0,7.11,6.16l8.49-.43a6.64,6.64,0,0,1-4.6-1.64A6.23,6.23,0,0,1,29.41,65L27.05,23.31a6.2,6.2,0,0,1,1.68-4.8,6.77,6.77,0,0,1,4.43-2.16Z"/><path class="cls-2" d="M71.23,20.86a6.41,6.41,0,0,0-2.16-4.58,6.66,6.66,0,0,0-4.76-1.74L33.16,16.35a6.77,6.77,0,0,0-4.43,2.16,6.2,6.2,0,0,0-1.68,4.8L29.41,65a6.23,6.23,0,0,0,2.21,4.59,6.64,6.64,0,0,0,4.6,1.64l31.15-1.76A7,7,0,0,0,72,67.39a6.6,6.6,0,0,0,1.67-4.9l-2.4-41.63m-3.35,3.75,1,18.42q.08,3.3-3.37,3.45L37,48.14c-2.29.13-3.54-.92-3.73-3.15l-1-18.32-.17-3.14q-.15-3.45,3.35-3.6l28.5-1.66c2.4-.14,3.64,1,3.74,3.29Z"/><path class="cls-6" d="M64.15,21.51c2.26-.16,3.51.87,3.73,3.1l-.22-3.05c-.1-2.33-1.34-3.43-3.74-3.29l-28.5,1.66q-3.49.15-3.35,3.6l.17,3.14c0-2.23,1.11-3.42,3.41-3.55Z"/><path class="cls-7" d="M68.88,43l-1-18.42c-.22-2.23-1.47-3.26-3.73-3.1l-28.5,1.61c-2.3.13-3.43,1.32-3.41,3.55l1,18.32c.19,2.23,1.44,3.28,3.73,3.15l28.5-1.66Q69,46.33,68.88,43Z"/></g><g id="Layer0_2_MEMBER_4_FILL-7" data-name="Layer0 2 MEMBER 4 FILL"><path class="cls-8" d="M37.17,28.85l.65.71a5.55,5.55,0,0,1,5-1l-.11-1.95c-2.67-.51-4.5.22-5.49,2.22m5.91,2.52a2.83,2.83,0,0,0-2-.64,3.19,3.19,0,0,0-2,.86,3,3,0,0,0-.73,2.15,2.91,2.91,0,0,0,3,2.58,2.55,2.55,0,0,0,1.9-1,2.44,2.44,0,0,0,.74-2,2.79,2.79,0,0,0-1-2m12.39,8.31a6.34,6.34,0,0,0,1.22-2.17q.59-2.09-1.86-1.95l-7.39.37c-1.63.06-2,.87-1.21,2.42a6.58,6.58,0,0,0,1.4,1.82,5.42,5.42,0,0,0,4,1.33,5.24,5.24,0,0,0,3.81-1.82m6.58-9.38A3.14,3.14,0,0,0,60,29.71a2.36,2.36,0,0,0-1.86.86,2.5,2.5,0,0,0-.83,2,2.38,2.38,0,0,0,1,1.89,2.59,2.59,0,0,0,2,.74,2.42,2.42,0,0,0,2-1,2.59,2.59,0,0,0,.74-2,2.83,2.83,0,0,0-1-2m1-2.87c-1.21-1.86-3.1-2.41-5.66-1.63l.12,2a5.13,5.13,0,0,1,5,.36Z"/></g><g id="Layer0_2_MEMBER_5_FILL-7" data-name="Layer0 2 MEMBER 5 FILL"><path class="cls-9" d="M49.12,55.87c0-.47-.26-.67-.69-.62l-3.92.58L43.94,52c0-.43-.27-.6-.73-.51L39.29,52c-.44.06-.64.29-.62.69l.57,3.82L35.41,57a.69.69,0,0,0-.7.79l.57,3.93a.7.7,0,0,0,.83.6L40,61.79l.47,3.83a.65.65,0,0,0,.83.55l3.88-.47a.57.57,0,0,0,.56-.73l-.57-3.87,4.07-.58c.37-.06.52-.3.46-.73l-.57-3.92m5.31-3.51a4.6,4.6,0,0,0-1.2,3.57,5,5,0,0,0,1.65,3.52,4.9,4.9,0,0,0,3.68,1.24,4.26,4.26,0,0,0,1.14-.21,4.74,4.74,0,0,0,1.63,3.26A5,5,0,0,0,65,65a5.6,5.6,0,0,0,3.56-1.65,4.92,4.92,0,0,0,1.25-3.63,4.84,4.84,0,0,0-1.65-3.46A5.41,5.41,0,0,0,64.39,55a6.83,6.83,0,0,0-1.09.16A4.49,4.49,0,0,0,61.72,52,5.34,5.34,0,0,0,58,50.66a5.16,5.16,0,0,0-3.51,1.7h0m1.42,1.22a3.16,3.16,0,0,1,2.25-1,3.23,3.23,0,0,1,2.34.77,3.31,3.31,0,0,1,1.08,2.15,3.17,3.17,0,0,1-.88,2.3,2.79,2.79,0,0,1-2.19,1A2.94,2.94,0,0,1,56.1,58a2.85,2.85,0,0,1-1-2.19,2.82,2.82,0,0,1,.72-2.25m5.73,6.54a3.11,3.11,0,0,1,.77-2.25,3.25,3.25,0,0,1,2.25-1,3.19,3.19,0,0,1,2.3.77A3,3,0,0,1,68,59.76,2.73,2.73,0,0,1,67.09,62a3.06,3.06,0,0,1-2.19,1.13,3.29,3.29,0,0,1-2.3-.88A2.87,2.87,0,0,1,61.58,60.12Z"/><path class="cls-10" d="M62.35,57.87a3.11,3.11,0,0,0-.77,2.25,2.87,2.87,0,0,0,1,2.14,3.29,3.29,0,0,0,2.3.88A3.06,3.06,0,0,0,67.09,62,2.73,2.73,0,0,0,68,59.76a3,3,0,0,0-1.07-2.15,3.19,3.19,0,0,0-2.3-.77,3.25,3.25,0,0,0-2.25,1M58.1,52.55a3.16,3.16,0,0,0-2.25,1,2.82,2.82,0,0,0-.72,2.25,2.85,2.85,0,0,0,1,2.19,2.94,2.94,0,0,0,2.35.77,2.79,2.79,0,0,0,2.19-1,3.17,3.17,0,0,0,.88-2.3,3.31,3.31,0,0,0-1.08-2.15A3.23,3.23,0,0,0,58.1,52.55Z"/></g><g id="Layer0_2_MEMBER_6_FILL-5" data-name="Layer0 2 MEMBER 6 FILL"><path class="cls-2" d="M34.45,82.55v.1H50.4V82.6l.05,0a7.53,7.53,0,0,0-2.4-5.4,7.63,7.63,0,0,0-5.65-2.4,7.52,7.52,0,0,0-5.6,2.35,7.42,7.42,0,0,0-2.35,5.4Z"/></g><g id="Layer0_2_MEMBER_7_FILL-8" data-name="Layer0 2 MEMBER 7 FILL"><path class="cls-2" d="M48.75,77.1a7.42,7.42,0,0,0-2.35,5.4v.15h16V82.6l0,0a8.22,8.22,0,0,0-8-7.8A7.68,7.68,0,0,0,48.75,77.1Z"/></g><g id="Layer0_2_MEMBER_8_FILL-7" data-name="Layer0 2 MEMBER 8 FILL"><path class="cls-34" d="M18,57.13a5.7,5.7,0,0,1,3.4,1.71q-1.56-7.19,3.44-10L21,47.19q-7.46,2.72-9.48,12.1c-.28.92-.42,1.41-.42,1.48a6.85,6.85,0,0,1,2.11-2.67A6.58,6.58,0,0,1,18,57.13Z"/><path class="cls-2" d="M23.05,64.2A6.14,6.14,0,0,0,22,59.55a5.83,5.83,0,0,0-4-2.42,6.58,6.58,0,0,0-4.75,1,6.85,6.85,0,0,0-2.11,2.67,5.61,5.61,0,0,0-.37,1.37,5.82,5.82,0,0,0,1.07,4.65,5.37,5.37,0,0,0,4,2.43,6.1,6.1,0,0,0,4.7-1A6,6,0,0,0,23.05,64.2Z"/></g><g id="Layer0_2_MEMBER_0_FILL-8" data-name="Layer0 2 MEMBER 0 FILL"><path class="cls-2" d="M175.81,65.65a6.3,6.3,0,0,0,3-3.74,5.89,5.89,0,0,0-.59-4.69,6.11,6.11,0,0,0-3.84-2.93,8.47,8.47,0,0,1-1-.22A6.12,6.12,0,0,0,166.8,62a9.67,9.67,0,0,0,.59,1.38,5.71,5.71,0,0,0,3.74,2.84A5.48,5.48,0,0,0,175.81,65.65Z"/><path class="cls-35" d="M169.66,44.28l-3.92,1q-4.14,6.87.36,15.29a9.76,9.76,0,0,0,.7,1.38,6.28,6.28,0,0,1,6.61-7.9Q167.73,49.54,169.66,44.28Z"/></g><g id="Layer0_2_MEMBER_1_FILL-9" data-name="Layer0 2 MEMBER 1 FILL"><path class="cls-2" d="M157.3,62.2a3.18,3.18,0,0,0-2.25-1.05,3,3,0,0,0-2.4.9q-6,5.25-5.75,12.25a8,8,0,0,1,6.8-1.45,10.13,10.13,0,0,1,3.35-6,3.34,3.34,0,0,0,1.15-2.25A3.51,3.51,0,0,0,157.3,62.2Z"/><path class="cls-5" d="M146.9,74.3a17.8,17.8,0,0,0,.65,4.3,3.22,3.22,0,0,0,1.55,2.05,3.47,3.47,0,0,0,2.5.35,3,3,0,0,0,1.9-1.5,3,3,0,0,0,.4-2.45,11.2,11.2,0,0,1-.2-4.2A8,8,0,0,0,146.9,74.3Z"/></g><g id="Layer0_2_MEMBER_2_FILL-8" data-name="Layer0 2 MEMBER 2 FILL"><path class="cls-5" d="M139.3,81a2.9,2.9,0,0,0,1.95-1.55,20.21,20.21,0,0,0,1.9-5q-2.35-2.06-6.6-1.15a11.6,11.6,0,0,1-1.15,3.15,3.52,3.52,0,0,0-.3,2.5,3.58,3.58,0,0,0,1.7,1.95A3.47,3.47,0,0,0,139.3,81Z"/><path class="cls-2" d="M135.7,61.3a3,3,0,0,0-1.4,2,3.63,3.63,0,0,0,.55,2.55,9.5,9.5,0,0,1,1.7,7.4q4.24-.9,6.6,1.15a15.46,15.46,0,0,0-2.85-12.3,2.89,2.89,0,0,0-2.1-1.35A3.15,3.15,0,0,0,135.7,61.3Z"/></g><g id="Layer0_2_MEMBER_3_FILL-8" data-name="Layer0 2 MEMBER 3 FILL"><path class="cls-5" d="M122.32,17.25a6.86,6.86,0,0,0-4.69,2.09,6.48,6.48,0,0,0-1.85,4.81L117,65.88a6.48,6.48,0,0,0,2.14,4.64,6.41,6.41,0,0,0,4.81,1.7l8.49-.21a6.58,6.58,0,0,1-4.55-1.76,6.26,6.26,0,0,1-2.09-4.64l-1.27-41.78a6.24,6.24,0,0,1,1.81-4.75,6.78,6.78,0,0,1,4.49-2Z"/><path class="cls-2" d="M168.8,22.54a6.35,6.35,0,0,0-2-4.64A6.64,6.64,0,0,0,162.05,16l-31.18,1a6.78,6.78,0,0,0-4.49,2,6.24,6.24,0,0,0-1.81,4.75l1.27,41.78a6.26,6.26,0,0,0,2.09,4.64A6.58,6.58,0,0,0,132.48,72l31.19-.94a7,7,0,0,0,4.64-2,6.66,6.66,0,0,0,1.81-4.86L168.8,22.54m-3.44,3.66.51,18.44q0,3.3-3.45,3.36l-28.53.91q-3.45.11-3.65-3.24l-.56-18.34-.09-3.15q-.06-3.45,3.44-3.51l28.54-.91q3.59-.11,3.65,3.39Z"/><path class="cls-6" d="M161.71,23q3.4-.15,3.65,3.19l-.14-3.05q-.06-3.49-3.65-3.39L133,20.67q-3.5.06-3.44,3.51l.09,3.15q0-3.36,3.5-3.46Z"/><path class="cls-7" d="M165.87,44.64l-.51-18.44q-.24-3.35-3.65-3.19l-28.53.86q-3.45.11-3.5,3.46l.56,18.34q.19,3.34,3.65,3.24L162.42,48Q165.87,47.94,165.87,44.64Z"/></g><g id="Layer0_2_MEMBER_4_FILL-8" data-name="Layer0 2 MEMBER 4 FILL"><path class="cls-8" d="M134.55,29.63l.62.73a5.58,5.58,0,0,1,5-.85l-.06-2q-4-.87-5.54,2.07m5.84,2.68a2.78,2.78,0,0,0-2-.69,3.17,3.17,0,0,0-2,.81,3,3,0,0,0-.79,2.12,2.9,2.9,0,0,0,3,2.66,2.58,2.58,0,0,0,1.93-.9,2.51,2.51,0,0,0,.79-2,2.82,2.82,0,0,0-.91-2m12.16,8.63a6.48,6.48,0,0,0,1.29-2.14c.42-1.38-.18-2-1.81-2l-7.4.17c-1.63,0-2.06.81-1.28,2.39a6.72,6.72,0,0,0,1.36,1.86,5.45,5.45,0,0,0,4,1.43,5.2,5.2,0,0,0,3.85-1.72m6.83-9.21a3.14,3.14,0,0,0-2.07-.64,2.34,2.34,0,0,0-1.88.81,2.51,2.51,0,0,0-.89,2,2.44,2.44,0,0,0,1,1.92,2.66,2.66,0,0,0,2,.79,2.41,2.41,0,0,0,2-.91,2.59,2.59,0,0,0,.79-2,2.84,2.84,0,0,0-.91-2m1.06-2.83c-1.16-1.9-3-2.49-5.6-1.78l.06,2a5.1,5.1,0,0,1,5,.49Z"/></g><g id="Layer0_2_MEMBER_5_FILL-8" data-name="Layer0 2 MEMBER 5 FILL"><path class="cls-9" d="M145.78,57q0-.69-.66-.63l-3.94.47L140.71,53c0-.44-.25-.61-.71-.53l-3.94.42c-.44,0-.65.27-.63.67l.46,3.83-3.84.42c-.5,0-.74.31-.72.77l.47,3.94a.72.72,0,0,0,.82.63l3.88-.47.37,3.84a.65.65,0,0,0,.82.57l3.89-.36a.58.58,0,0,0,.58-.72l-.47-3.89,4.09-.47c.36,0,.52-.29.47-.72L145.78,57m5.41-3.36a4.62,4.62,0,0,0-1.3,3.54,5,5,0,0,0,1.56,3.56A4.93,4.93,0,0,0,155.09,62a4.85,4.85,0,0,0,1.15-.19,4.77,4.77,0,0,0,1.55,3.31,5,5,0,0,0,3.64,1.34,5.62,5.62,0,0,0,3.6-1.56,5,5,0,0,0,1.35-3.6,4.84,4.84,0,0,0-1.56-3.5,5.4,5.4,0,0,0-3.74-1.39,5.81,5.81,0,0,0-1.1.14,4.48,4.48,0,0,0-1.5-3.21A5.33,5.33,0,0,0,154.79,52a5.18,5.18,0,0,0-3.55,1.61h-.05m1.38,1.26a3.14,3.14,0,0,1,2.28-1,3.2,3.2,0,0,1,2.32.83,3.3,3.3,0,0,1,1,2.17,3.18,3.18,0,0,1-.93,2.28,2.84,2.84,0,0,1-2.22,1,3,3,0,0,1-2.33-.83,2.93,2.93,0,0,1-.92-2.23,2.83,2.83,0,0,1,.78-2.22m5.56,6.68a3.07,3.07,0,0,1,.83-2.22,3.23,3.23,0,0,1,2.27-1,3.15,3.15,0,0,1,2.28.83,2.93,2.93,0,0,1,1,2.17,2.78,2.78,0,0,1-.94,2.23,3,3,0,0,1-2.22,1.07,3.28,3.28,0,0,1-2.27-.93A2.91,2.91,0,0,1,158.13,61.53Z"/><path class="cls-10" d="M159,59.31a3.07,3.07,0,0,0-.83,2.22,2.91,2.91,0,0,0,1,2.18,3.28,3.28,0,0,0,2.27.93,3,3,0,0,0,2.22-1.07,2.78,2.78,0,0,0,.94-2.23,2.93,2.93,0,0,0-1-2.17,3.15,3.15,0,0,0-2.28-.83,3.23,3.23,0,0,0-2.27,1m-4.11-5.43a3.14,3.14,0,0,0-2.28,1,2.83,2.83,0,0,0-.78,2.22,2.93,2.93,0,0,0,.92,2.23,3,3,0,0,0,2.33.83,2.84,2.84,0,0,0,2.22-1,3.18,3.18,0,0,0,.93-2.28,3.3,3.3,0,0,0-1-2.17A3.2,3.2,0,0,0,154.85,53.88Z"/></g><g id="Layer0_2_MEMBER_6_FILL-6" data-name="Layer0 2 MEMBER 6 FILL"><path class="cls-2" d="M130.45,82.55v.1h16V82.6l0,0a7.53,7.53,0,0,0-2.4-5.4,7.63,7.63,0,0,0-5.65-2.4,7.52,7.52,0,0,0-5.6,2.35,7.42,7.42,0,0,0-2.35,5.4Z"/></g><g id="Layer0_2_MEMBER_7_FILL-9" data-name="Layer0 2 MEMBER 7 FILL"><path class="cls-2" d="M144.75,77.1a7.42,7.42,0,0,0-2.35,5.4v.15h15.95V82.6l.05,0a8.22,8.22,0,0,0-8-7.8A7.68,7.68,0,0,0,144.75,77.1Z"/></g><g id="Layer0_2_MEMBER_8_FILL-8" data-name="Layer0 2 MEMBER 8 FILL"><path class="cls-36" d="M114.63,57.4A5.68,5.68,0,0,1,118,59.2q-1.36-7.22,3.7-9.92l-3.75-1.74q-7.53,2.53-9.8,11.86a12.88,12.88,0,0,0-.45,1.46,6.74,6.74,0,0,1,2.17-2.62A6.62,6.62,0,0,1,114.63,57.4Z"/><path class="cls-2" d="M119.5,64.6a6.1,6.1,0,0,0-.94-4.67,5.1,5.1,0,0,0-.57-.73,5.68,5.68,0,0,0-3.36-1.8,6.62,6.62,0,0,0-4.77.84,6.74,6.74,0,0,0-2.17,2.62,5.14,5.14,0,0,0-.41,1.36,5.83,5.83,0,0,0,.94,4.68,5.35,5.35,0,0,0,3.93,2.53,6.08,6.08,0,0,0,4.72-.89A6,6,0,0,0,119.5,64.6Z"/></g><g id="Layer0_2_MEMBER_0_FILL-9" data-name="Layer0 2 MEMBER 0 FILL"><path class="cls-2" d="M271.15,66.65a6.37,6.37,0,0,0,3.1-3.65,5.87,5.87,0,0,0-.45-4.7,6.06,6.06,0,0,0-3.75-3,8.21,8.21,0,0,1-.95-.25,6.49,6.49,0,0,0-6.85,4.4,6.16,6.16,0,0,0,0,3.3,9.81,9.81,0,0,0,.55,1.4,5.76,5.76,0,0,0,3.65,3A5.56,5.56,0,0,0,271.15,66.65Z"/><path class="cls-37" d="M265.65,45.1l-3.95.9q-4.35,6.75-.1,15.3a9.53,9.53,0,0,0,.65,1.4,6.16,6.16,0,0,1,0-3.3A6.49,6.49,0,0,1,269.1,55Q263.55,50.29,265.65,45.1Z"/></g><g id="Layer0_2_MEMBER_1_FILL-10" data-name="Layer0 2 MEMBER 1 FILL"><path class="cls-2" d="M253.3,62.2a3.18,3.18,0,0,0-2.25-1.05,3,3,0,0,0-2.4.9q-6,5.25-5.75,12.25a8,8,0,0,1,6.8-1.45,10.13,10.13,0,0,1,3.35-6,3.34,3.34,0,0,0,1.15-2.25A3.51,3.51,0,0,0,253.3,62.2Z"/><path class="cls-5" d="M242.9,74.3a17.8,17.8,0,0,0,.65,4.3,3.22,3.22,0,0,0,1.55,2.05,3.47,3.47,0,0,0,2.5.35,3,3,0,0,0,1.9-1.5,3,3,0,0,0,.4-2.45,11.2,11.2,0,0,1-.2-4.2A8,8,0,0,0,242.9,74.3Z"/></g><g id="Layer0_2_MEMBER_2_FILL-9" data-name="Layer0 2 MEMBER 2 FILL"><path class="cls-5" d="M235.3,81a2.9,2.9,0,0,0,1.95-1.55,20.21,20.21,0,0,0,1.9-5q-2.35-2.06-6.6-1.15a11.6,11.6,0,0,1-1.15,3.15,3.52,3.52,0,0,0-.3,2.5,3.58,3.58,0,0,0,1.7,1.95A3.47,3.47,0,0,0,235.3,81Z"/><path class="cls-2" d="M231.7,61.3a3,3,0,0,0-1.4,2,3.63,3.63,0,0,0,.55,2.55,9.5,9.5,0,0,1,1.7,7.4q4.24-.9,6.6,1.15a15.46,15.46,0,0,0-2.85-12.3,2.89,2.89,0,0,0-2.1-1.35A3.15,3.15,0,0,0,231.7,61.3Z"/></g><g id="Layer0_2_MEMBER_3_FILL-9" data-name="Layer0 2 MEMBER 3 FILL"><path class="cls-5" d="M219.15,16.65a6.81,6.81,0,0,0-4.75,2,6.45,6.45,0,0,0-2,4.75V65.1a6.57,6.57,0,0,0,6.75,6.55l8.5,0a6.59,6.59,0,0,1-4.5-1.9,6.22,6.22,0,0,1-2-4.7V23.3a6.2,6.2,0,0,1,2-4.7,6.73,6.73,0,0,1,4.55-1.9Z"/><path class="cls-2" d="M265.45,23.35a6.39,6.39,0,0,0-1.9-4.7,6.66,6.66,0,0,0-4.65-2l-31.2.05a6.73,6.73,0,0,0-4.55,1.9,6.2,6.2,0,0,0-2,4.7V65.1a6.22,6.22,0,0,0,2,4.7,6.59,6.59,0,0,0,4.5,1.9h31.2a7,7,0,0,0,4.7-1.85,6.65,6.65,0,0,0,1.95-4.8l-.05-41.7M261.9,26.9l0,18.45q-.11,3.3-3.55,3.25l-28.55,0c-2.3,0-3.49-1.12-3.55-3.35V23.8c0-2.3,1.21-3.44,3.55-3.4l28.55,0c2.4,0,3.58,1.16,3.55,3.5Z"/><path class="cls-6" d="M258.35,23.6c2.26,0,3.45,1.06,3.55,3.3l0-3c0-2.34-1.15-3.5-3.55-3.5l-28.55,0c-2.34,0-3.52,1.1-3.55,3.4V27c.1-2.24,1.3-3.35,3.6-3.35Z"/><path class="cls-7" d="M261.85,45.35l0-18.45c-.1-2.24-1.29-3.34-3.55-3.3H229.8c-2.3,0-3.5,1.11-3.6,3.35V45.3c.06,2.23,1.25,3.35,3.55,3.35l28.55,0Q261.75,48.65,261.85,45.35Z"/></g><g id="Layer0_2_MEMBER_4_FILL-9" data-name="Layer0 2 MEMBER 4 FILL"><path class="cls-8" d="M231,29.4l.6.75a5.53,5.53,0,0,1,5-.7V27.5c-2.64-.67-4.5,0-5.6,1.9m5.75,2.85a2.82,2.82,0,0,0-2-.75,3.09,3.09,0,0,0-2,.75,3,3,0,0,0-.85,2.1,2.42,2.42,0,0,0,.85,1.9,2.47,2.47,0,0,0,2.05.85,2.62,2.62,0,0,0,1.95-.85,2.5,2.5,0,0,0,.85-2,2.81,2.81,0,0,0-.85-2m11.9,9a6.61,6.61,0,0,0,1.35-2.1c.46-1.37-.12-2-1.75-2l-7.4-.05c-1.64,0-2.09.75-1.35,2.35a6.92,6.92,0,0,0,1.3,1.9,5.45,5.45,0,0,0,3.95,1.55,5.25,5.25,0,0,0,3.9-1.6m7.1-9a3.11,3.11,0,0,0-2.05-.7,2.3,2.3,0,0,0-1.9.75,2.48,2.48,0,0,0-1,2,2.42,2.42,0,0,0,.9,2,2.65,2.65,0,0,0,2,.85,2.44,2.44,0,0,0,2-.85,2.62,2.62,0,0,0,.85-2,2.81,2.81,0,0,0-.85-2m1.15-2.8q-1.65-2.91-5.55-1.95v2a5.1,5.1,0,0,1,5,.65Z"/></g><g id="Layer0_2_MEMBER_5_FILL-9" data-name="Layer0 2 MEMBER 5 FILL"><path class="cls-9" d="M241.4,57.05c0-.47-.22-.69-.65-.65l-3.95.35-.35-3.85c0-.44-.24-.62-.7-.55l-3.95.3c-.44,0-.65.25-.65.65l.35,3.85-3.85.3q-.75,0-.75.75l.35,3.95a.71.71,0,0,0,.8.65l3.9-.35.25,3.85a.66.66,0,0,0,.8.6l3.9-.25a.58.58,0,0,0,.6-.7l-.35-3.9,4.1-.35c.36,0,.53-.27.5-.7l-.35-4m5.5-3.2a4.55,4.55,0,0,0-1.4,3.5A5,5,0,0,0,247,61a4.89,4.89,0,0,0,3.6,1.45,4.37,4.37,0,0,0,1.15-.15,4.72,4.72,0,0,0,1.45,3.35,5,5,0,0,0,3.6,1.45,5.68,5.68,0,0,0,3.65-1.45,5,5,0,0,0,1.45-3.55,4.84,4.84,0,0,0-1.45-3.55,5.41,5.41,0,0,0-3.7-1.5,5.77,5.77,0,0,0-1.1.1,4.51,4.51,0,0,0-1.4-3.25,5.35,5.35,0,0,0-3.65-1.5,5.15,5.15,0,0,0-3.6,1.5h0m1.35,1.3a3.1,3.1,0,0,1,2.3-.9,3.23,3.23,0,0,1,2.3.9,3.32,3.32,0,0,1,1,2.2,3.18,3.18,0,0,1-1,2.25,2.84,2.84,0,0,1-2.25.9,3,3,0,0,1-2.3-.9,2.87,2.87,0,0,1-.85-2.25,2.8,2.8,0,0,1,.85-2.2M253.6,62a3.09,3.09,0,0,1,.9-2.2,3.22,3.22,0,0,1,2.3-.9,3.18,3.18,0,0,1,2.25.9A2.92,2.92,0,0,1,260,62a2.78,2.78,0,0,1-1,2.2,3.08,3.08,0,0,1-2.25,1,3.29,3.29,0,0,1-2.25-1A2.89,2.89,0,0,1,253.6,62Z"/><path class="cls-10" d="M254.5,59.8a3.09,3.09,0,0,0-.9,2.2,2.89,2.89,0,0,0,.9,2.2,3.29,3.29,0,0,0,2.25,1,3.08,3.08,0,0,0,2.25-1,2.78,2.78,0,0,0,1-2.2,2.92,2.92,0,0,0-.95-2.2,3.18,3.18,0,0,0-2.25-.9,3.22,3.22,0,0,0-2.3.9m-3.95-5.55a3.1,3.1,0,0,0-2.3.9,2.8,2.8,0,0,0-.85,2.2,2.87,2.87,0,0,0,.85,2.25,3,3,0,0,0,2.3.9,2.84,2.84,0,0,0,2.25-.9,3.18,3.18,0,0,0,1-2.25,3.32,3.32,0,0,0-1-2.2A3.23,3.23,0,0,0,250.55,54.25Z"/></g><g id="Layer0_2_MEMBER_6_FILL-7" data-name="Layer0 2 MEMBER 6 FILL"><path class="cls-2" d="M226.45,82.55v.1h16V82.6l0,0a7.53,7.53,0,0,0-2.4-5.4,7.63,7.63,0,0,0-5.65-2.4,7.52,7.52,0,0,0-5.6,2.35,7.42,7.42,0,0,0-2.35,5.4Z"/></g><g id="Layer0_2_MEMBER_7_FILL-10" data-name="Layer0 2 MEMBER 7 FILL"><path class="cls-2" d="M240.75,77.1a7.42,7.42,0,0,0-2.35,5.4v.15h15.95V82.6l.05,0a8.22,8.22,0,0,0-8-7.8A7.68,7.68,0,0,0,240.75,77.1Z"/></g><g id="Layer0_2_MEMBER_8_FILL-9" data-name="Layer0 2 MEMBER 8 FILL"><path class="cls-38" d="M210.25,56.55a5.71,5.71,0,0,1,3.3,1.9q-1.16-7.26,4-9.8l-3.7-1.85q-7.6,2.3-10.15,11.55a12.48,12.48,0,0,0-.5,1.45,6,6,0,0,1,7.05-3.25Z"/><path class="cls-2" d="M214.9,63.9a6.17,6.17,0,0,0-.8-4.7,6,6,0,0,0-.55-.75,5.71,5.71,0,0,0-3.3-1.9,6,6,0,0,0-7.05,3.25,5.35,5.35,0,0,0-.45,1.35,5.81,5.81,0,0,0,.8,4.7,5.35,5.35,0,0,0,3.85,2.65,6.17,6.17,0,0,0,7.5-4.6Z"/></g><g id="Layer0_2_MEMBER_0_FILL-10" data-name="Layer0 2 MEMBER 0 FILL"><path class="cls-2" d="M367.64,66.36a6.31,6.31,0,0,0,3.18-3.58,5.9,5.9,0,0,0-.34-4.71,6.1,6.1,0,0,0-3.69-3.13,8.59,8.59,0,0,1-.94-.27,6.51,6.51,0,0,0-7,4.25,6.28,6.28,0,0,0-.07,3.3,13.24,13.24,0,0,0,.52,1.41,5.74,5.74,0,0,0,3.58,3A5.53,5.53,0,0,0,367.64,66.36Z"/><path class="cls-39" d="M362.62,44.69l-4,.82q-4.5,6.65-.44,15.29a11.36,11.36,0,0,0,.62,1.42,6.28,6.28,0,0,1,.07-3.3,6.51,6.51,0,0,1,7-4.25Q360.41,49.84,362.62,44.69Z"/></g><g id="Layer0_2_MEMBER_1_FILL-11" data-name="Layer0 2 MEMBER 1 FILL"><path class="cls-2" d="M349.3,62.2a3.18,3.18,0,0,0-2.25-1.05,3,3,0,0,0-2.4.9q-6,5.25-5.75,12.25a8,8,0,0,1,6.8-1.45,10.13,10.13,0,0,1,3.35-6,3.34,3.34,0,0,0,1.15-2.25A3.51,3.51,0,0,0,349.3,62.2Z"/><path class="cls-5" d="M338.9,74.3a17.8,17.8,0,0,0,.65,4.3,3.22,3.22,0,0,0,1.55,2.05,3.47,3.47,0,0,0,2.5.35,3,3,0,0,0,1.9-1.5,3,3,0,0,0,.4-2.45,11.2,11.2,0,0,1-.2-4.2A8,8,0,0,0,338.9,74.3Z"/></g><g id="Layer0_2_MEMBER_2_FILL-10" data-name="Layer0 2 MEMBER 2 FILL"><path class="cls-5" d="M331.3,81a2.9,2.9,0,0,0,1.95-1.55,20.21,20.21,0,0,0,1.9-5q-2.36-2.06-6.6-1.15a11.6,11.6,0,0,1-1.15,3.15,3.52,3.52,0,0,0-.3,2.5,3.58,3.58,0,0,0,1.7,1.95A3.47,3.47,0,0,0,331.3,81Z"/><path class="cls-2" d="M327.7,61.3a3,3,0,0,0-1.4,2,3.63,3.63,0,0,0,.55,2.55,9.5,9.5,0,0,1,1.7,7.4q4.24-.9,6.6,1.15a15.46,15.46,0,0,0-2.85-12.3,2.89,2.89,0,0,0-2.1-1.35A3.15,3.15,0,0,0,327.7,61.3Z"/></g><g id="Layer0_2_MEMBER_3_FILL-10" data-name="Layer0 2 MEMBER 3 FILL"><path class="cls-5" d="M316.76,15.23A6.81,6.81,0,0,0,312,17.07a6.45,6.45,0,0,0-2.11,4.7l-.92,41.74a6.57,6.57,0,0,0,6.6,6.7l8.5.24a6.62,6.62,0,0,1-4.46-2,6.27,6.27,0,0,1-1.84-4.74l.92-41.79a6.3,6.3,0,0,1,2-4.66,6.83,6.83,0,0,1,4.6-1.8Z"/><path class="cls-2" d="M362.9,23a6.41,6.41,0,0,0-1.8-4.75,6.67,6.67,0,0,0-4.6-2.1l-31.19-.64a6.83,6.83,0,0,0-4.6,1.8,6.3,6.3,0,0,0-2,4.66l-.92,41.79a6.27,6.27,0,0,0,1.84,4.74,6.62,6.62,0,0,0,4.46,2l31.19.69A7,7,0,0,0,360,69.39,6.62,6.62,0,0,0,362,64.64L362.9,23m-3.63,3.47-.46,18.44q-.17,3.3-3.62,3.17l-28.54-.58q-3.45-.08-3.48-3.43l.41-18.34.07-3.15q.12-3.45,3.62-3.32l28.55.58c2.4.05,3.55,1.24,3.47,3.58Z"/><path class="cls-6" d="M355.8,23c2.26,0,3.42,1.14,3.47,3.38l0-3.05c.08-2.34-1.07-3.53-3.47-3.58l-28.55-.58q-3.5-.13-3.62,3.32l-.07,3.15q.23-3.34,3.67-3.27Z"/><path class="cls-7" d="M358.81,44.86l.46-18.44c0-2.24-1.21-3.36-3.47-3.38l-28.55-.63q-3.45-.07-3.67,3.27L323.17,44q0,3.36,3.48,3.43l28.54.58Q358.64,48.16,358.81,44.86Z"/></g><g id="Layer0_2_MEMBER_4_FILL-10" data-name="Layer0 2 MEMBER 4 FILL"><path class="cls-8" d="M328.32,28.23l.59.77a5.54,5.54,0,0,1,5-.59l0-1.95c-2.61-.73-4.49-.13-5.64,1.77m5.69,3a2.77,2.77,0,0,0-2-.79,3.13,3.13,0,0,0-2,.7,3,3,0,0,0-.9,2.08,2.46,2.46,0,0,0,.81,1.92,2.5,2.5,0,0,0,2,.9,2.61,2.61,0,0,0,2-.81,2.45,2.45,0,0,0,.89-1.93,2.8,2.8,0,0,0-.8-2.07m11.7,9.26a6.4,6.4,0,0,0,1.39-2.07c.5-1.36-.07-2-1.7-2.09L338,36.1q-2.44-.1-1.4,2.32a7.26,7.26,0,0,0,1.26,1.93A5.45,5.45,0,0,0,341.77,42a5.21,5.21,0,0,0,3.94-1.51m7.3-8.84a3.16,3.16,0,0,0-2-.75,2.34,2.34,0,0,0-1.91.71,2.51,2.51,0,0,0-1,2,2.41,2.41,0,0,0,.86,2,2.59,2.59,0,0,0,2,.89,2.42,2.42,0,0,0,2-.8,2.59,2.59,0,0,0,.89-1.93,2.8,2.8,0,0,0-.8-2.07m1.21-2.77q-1.59-2.94-5.51-2.08l0,2a5.13,5.13,0,0,1,5,.76Z"/></g><g id="Layer0_2_MEMBER_5_FILL-10" data-name="Layer0 2 MEMBER 5 FILL"><path class="cls-9" d="M338.11,56.11c0-.47-.2-.69-.63-.67l-4,.27-.27-3.86c0-.43-.22-.62-.68-.57l-4,.22q-.64,0-.66.63l.26,3.86-3.85.21c-.5,0-.76.27-.77.74l.26,4a.71.71,0,0,0,.79.67l3.9-.26.17,3.85a.66.66,0,0,0,.79.62l3.9-.16a.59.59,0,0,0,.62-.69L333.75,61l4.11-.26q.56,0,.51-.69l-.26-4M343.68,53a4.6,4.6,0,0,0-1.48,3.47,5,5,0,0,0,1.37,3.63,4.89,4.89,0,0,0,3.57,1.53,4.32,4.32,0,0,0,1.15-.13,4.78,4.78,0,0,0,1.38,3.38,5,5,0,0,0,3.57,1.53,5.6,5.6,0,0,0,3.68-1.37,4.91,4.91,0,0,0,1.53-3.51A4.8,4.8,0,0,0,357.07,58a5.44,5.44,0,0,0-3.66-1.59,6.79,6.79,0,0,0-1.1.08A4.53,4.53,0,0,0,351,53.19a5.35,5.35,0,0,0-3.62-1.58A5.19,5.19,0,0,0,343.73,53h-.05M345,54.36a3.11,3.11,0,0,1,2.32-.85,3.24,3.24,0,0,1,2.28,1,3.27,3.27,0,0,1,.9,2.22,3.13,3.13,0,0,1-1.05,2.23,2.82,2.82,0,0,1-2.27.85,3,3,0,0,1-2.28-.95,2.94,2.94,0,0,1-.8-2.27,2.84,2.84,0,0,1,.9-2.18m5.2,7a3.05,3.05,0,0,1,.95-2.17,3.2,3.2,0,0,1,2.32-.85,3.15,3.15,0,0,1,2.23,1,2.9,2.9,0,0,1,.9,2.22,2.73,2.73,0,0,1-1.05,2.17,3,3,0,0,1-2.27,1,3.24,3.24,0,0,1-2.23-1.05A2.88,2.88,0,0,1,350.2,61.32Z"/><path class="cls-10" d="M351.15,59.15a3.05,3.05,0,0,0-.95,2.17,2.88,2.88,0,0,0,.85,2.22,3.24,3.24,0,0,0,2.23,1.05,3,3,0,0,0,2.27-1,2.73,2.73,0,0,0,1.05-2.17,2.9,2.9,0,0,0-.9-2.22,3.15,3.15,0,0,0-2.23-1,3.2,3.2,0,0,0-2.32.85m-3.83-5.64a3.11,3.11,0,0,0-2.32.85,2.84,2.84,0,0,0-.9,2.18,2.94,2.94,0,0,0,.8,2.27,3,3,0,0,0,2.28.95,2.82,2.82,0,0,0,2.27-.85,3.13,3.13,0,0,0,1.05-2.23,3.27,3.27,0,0,0-.9-2.22A3.24,3.24,0,0,0,347.32,53.51Z"/></g><g id="Layer0_2_MEMBER_6_FILL-8" data-name="Layer0 2 MEMBER 6 FILL"><path class="cls-2" d="M322.45,82.55v.1H338.4V82.6l.05,0a7.53,7.53,0,0,0-2.4-5.4,7.63,7.63,0,0,0-5.65-2.4,7.52,7.52,0,0,0-5.6,2.35,7.42,7.42,0,0,0-2.35,5.4Z"/></g><g id="Layer0_2_MEMBER_7_FILL-11" data-name="Layer0 2 MEMBER 7 FILL"><path class="cls-2" d="M336.75,77.1a7.42,7.42,0,0,0-2.35,5.4v.15h16V82.6l0,0a8.22,8.22,0,0,0-8-7.8A7.68,7.68,0,0,0,336.75,77.1Z"/></g><g id="Layer0_2_MEMBER_8_FILL-10" data-name="Layer0 2 MEMBER 8 FILL"><path class="cls-40" d="M307,54.92a5.76,5.76,0,0,1,3.26,2q-1-7.28,4.21-9.71l-3.66-1.93q-7.64,2.13-10.4,11.32c-.35.9-.53,1.38-.53,1.44a6.82,6.82,0,0,1,2.31-2.5A6.59,6.59,0,0,1,307,54.92Z"/><path class="cls-2" d="M311.47,62.37a6.16,6.16,0,0,0-.7-4.72,6.86,6.86,0,0,0-.53-.76,5.76,5.76,0,0,0-3.26-2,6.59,6.59,0,0,0-4.81.59,6.82,6.82,0,0,0-2.31,2.5,5.44,5.44,0,0,0-.48,1.34,5.83,5.83,0,0,0,.7,4.72,5.31,5.31,0,0,0,3.79,2.73,6.17,6.17,0,0,0,7.6-4.43Z"/></g><g id="Layer0_2_MEMBER_0_FILL-11" data-name="Layer0 2 MEMBER 0 FILL"><path class="cls-2" d="M463.41,65.68a6.36,6.36,0,0,0,3.22-3.55,5.9,5.9,0,0,0-.3-4.71,6.09,6.09,0,0,0-3.65-3.17,8.78,8.78,0,0,1-.95-.28,6.47,6.47,0,0,0-7,4.18,6.15,6.15,0,0,0-.11,3.29,10.76,10.76,0,0,0,.51,1.42,5.76,5.76,0,0,0,3.55,3.07A5.54,5.54,0,0,0,463.41,65.68Z"/><path class="cls-41" d="M458.6,44l-4,.78Q450.05,51.34,454,60a10.66,10.66,0,0,0,.6,1.42,6.15,6.15,0,0,1,.11-3.29,6.47,6.47,0,0,1,7-4.18Q456.35,49.1,458.6,44Z"/></g><g id="Layer0_2_MEMBER_1_FILL-12" data-name="Layer0 2 MEMBER 1 FILL"><path class="cls-2" d="M445.3,62.2a3.18,3.18,0,0,0-2.25-1.05,3,3,0,0,0-2.4.9q-6,5.25-5.75,12.25a8,8,0,0,1,6.8-1.45,10.13,10.13,0,0,1,3.35-6,3.34,3.34,0,0,0,1.15-2.25A3.51,3.51,0,0,0,445.3,62.2Z"/><path class="cls-5" d="M434.9,74.3a17.8,17.8,0,0,0,.65,4.3,3.22,3.22,0,0,0,1.55,2.05,3.47,3.47,0,0,0,2.5.35,3,3,0,0,0,1.9-1.5,3,3,0,0,0,.4-2.45,11.2,11.2,0,0,1-.2-4.2A8,8,0,0,0,434.9,74.3Z"/></g><g id="Layer0_2_MEMBER_2_FILL-11" data-name="Layer0 2 MEMBER 2 FILL"><path class="cls-5" d="M427.3,81a2.9,2.9,0,0,0,1.95-1.55,20.21,20.21,0,0,0,1.9-5q-2.36-2.06-6.6-1.15a11.6,11.6,0,0,1-1.15,3.15,3.52,3.52,0,0,0-.3,2.5,3.58,3.58,0,0,0,1.7,1.95A3.47,3.47,0,0,0,427.3,81Z"/><path class="cls-2" d="M423.7,61.3a3,3,0,0,0-1.4,2,3.63,3.63,0,0,0,.55,2.55,9.5,9.5,0,0,1,1.7,7.4q4.24-.9,6.6,1.15a15.46,15.46,0,0,0-2.85-12.3,2.89,2.89,0,0,0-2.1-1.35A3.15,3.15,0,0,0,423.7,61.3Z"/></g><g id="Layer0_2_MEMBER_3_FILL-11" data-name="Layer0 2 MEMBER 3 FILL"><path class="cls-5" d="M413,14a6.83,6.83,0,0,0-4.81,1.8,6.43,6.43,0,0,0-2.15,4.68l-1.34,41.73A6.41,6.41,0,0,0,406.59,67a6.34,6.34,0,0,0,4.69,2l8.49.32a6.55,6.55,0,0,1-4.43-2,6.25,6.25,0,0,1-1.8-4.76l1.33-41.78a6.29,6.29,0,0,1,2.1-4.63,6.79,6.79,0,0,1,4.61-1.76Z"/><path class="cls-2" d="M459.1,22.22a6.37,6.37,0,0,0-1.75-4.76,6.66,6.66,0,0,0-4.58-2.15l-31.19-1A6.79,6.79,0,0,0,417,16.12a6.29,6.29,0,0,0-2.1,4.63l-1.33,41.78a6.25,6.25,0,0,0,1.8,4.76,6.55,6.55,0,0,0,4.43,2l31.19,1a6.94,6.94,0,0,0,4.75-1.7,6.6,6.6,0,0,0,2.11-4.73l1.28-41.68m-3.66,3.43-.64,18.44c-.14,2.2-1.36,3.24-3.65,3.14l-28.54-.87q-3.45-.11-3.44-3.46l.58-18.34.1-3.15q.16-3.45,3.66-3.28l28.54.86q3.6.12,3.43,3.61Z"/><path class="cls-6" d="M452,22.24q3.4.06,3.45,3.41l0-3q.16-3.5-3.43-3.61l-28.54-.86q-3.5-.16-3.66,3.28l-.1,3.15q.25-3.35,3.71-3.23Z"/><path class="cls-7" d="M454.8,44.09l.64-18.44q0-3.34-3.45-3.41l-28.53-.91q-3.45-.12-3.71,3.23l-.58,18.34q0,3.36,3.44,3.46l28.54.87C453.44,47.33,454.66,46.29,454.8,44.09Z"/></g><g id="Layer0_2_MEMBER_4_FILL-11" data-name="Layer0 2 MEMBER 4 FILL"><path class="cls-8" d="M424.47,27.16l.58.77a5.6,5.6,0,0,1,5-.54l.06-1.95c-2.61-.75-4.5-.17-5.66,1.72m5.66,3a2.84,2.84,0,0,0-2-.82,3.14,3.14,0,0,0-2,.69,3,3,0,0,0-.92,2.07,2.45,2.45,0,0,0,.79,1.93,2.49,2.49,0,0,0,2,.91,2.56,2.56,0,0,0,2-.79,2.46,2.46,0,0,0,.91-1.92,2.75,2.75,0,0,0-.78-2.07m11.6,9.37a6.41,6.41,0,0,0,1.42-2c.51-1.36,0-2.06-1.68-2.11l-7.4-.29q-2.44-.12-1.42,2.31a6.84,6.84,0,0,0,1.24,1.94,5.44,5.44,0,0,0,3.9,1.68,5.2,5.2,0,0,0,3.94-1.48m7.39-8.77a3.12,3.12,0,0,0-2-.76,2.33,2.33,0,0,0-1.92.69,2.48,2.48,0,0,0-1,2,2.42,2.42,0,0,0,.83,2,2.65,2.65,0,0,0,2,.92,2.43,2.43,0,0,0,2-.79,2.57,2.57,0,0,0,.91-1.92,2.78,2.78,0,0,0-.78-2.08M450.36,28q-1.56-3-5.49-2.13l-.06,2a5.14,5.14,0,0,1,5,.81Z"/></g><g id="Layer0_2_MEMBER_5_FILL-11" data-name="Layer0 2 MEMBER 5 FILL"><path class="cls-9" d="M434,55.13c0-.47-.19-.69-.63-.67l-4,.22-.23-3.85c0-.44-.21-.63-.68-.58l-4,.18c-.44,0-.66.23-.67.63l.23,3.85-3.86.18a.7.7,0,0,0-.78.73l.23,4a.71.71,0,0,0,.78.67l3.91-.22.12,3.85a.66.66,0,0,0,.78.63l3.91-.13a.57.57,0,0,0,.62-.68L429.58,60l4.11-.22c.36,0,.54-.25.52-.68l-.23-4m5.6-3a4.62,4.62,0,0,0-1.51,3.45,5,5,0,0,0,1.34,3.65A4.88,4.88,0,0,0,443,60.77a4.36,4.36,0,0,0,1.15-.11,4.74,4.74,0,0,0,1.34,3.39A5,5,0,0,0,449,65.62a5.62,5.62,0,0,0,3.69-1.34,4.88,4.88,0,0,0,1.56-3.5,4.8,4.8,0,0,0-1.33-3.59,5.43,5.43,0,0,0-3.65-1.62,5.92,5.92,0,0,0-1.11.07,4.5,4.5,0,0,0-1.29-3.3,5.31,5.31,0,0,0-3.6-1.61,5.17,5.17,0,0,0-3.65,1.38h-.05m1.31,1.34a3.12,3.12,0,0,1,2.33-.82,3.19,3.19,0,0,1,2.27,1,3.31,3.31,0,0,1,.88,2.23A3.12,3.12,0,0,1,445.3,58a2.81,2.81,0,0,1-2.28.83,3,3,0,0,1-2.27-1,2.91,2.91,0,0,1-.78-2.28,2.85,2.85,0,0,1,.92-2.17m5.13,7a3.11,3.11,0,0,1,1-2.17,3.32,3.32,0,0,1,4.55.14,3,3,0,0,1,.88,2.23,2.77,2.77,0,0,1-1.07,2.17,3,3,0,0,1-2.28.93,3.26,3.26,0,0,1-2.22-1.07A2.9,2.9,0,0,1,446,60.47Z"/><path class="cls-10" d="M447,58.3a3.11,3.11,0,0,0-1,2.17,2.9,2.9,0,0,0,.83,2.23,3.26,3.26,0,0,0,2.22,1.07,3,3,0,0,0,2.28-.93,2.77,2.77,0,0,0,1.07-2.17,3,3,0,0,0-.88-2.23A3.32,3.32,0,0,0,447,58.3m-3.77-5.67a3.12,3.12,0,0,0-2.33.82,2.85,2.85,0,0,0-.92,2.17,2.91,2.91,0,0,0,.78,2.28,3,3,0,0,0,2.27,1A2.81,2.81,0,0,0,445.3,58a3.12,3.12,0,0,0,1.07-2.21,3.31,3.31,0,0,0-.88-2.23A3.19,3.19,0,0,0,443.22,52.63Z"/></g><g id="Layer0_2_MEMBER_6_FILL-9" data-name="Layer0 2 MEMBER 6 FILL"><path class="cls-2" d="M418.45,82.55v.1H434.4V82.6l.05,0a7.53,7.53,0,0,0-2.4-5.4,7.63,7.63,0,0,0-5.65-2.4,7.52,7.52,0,0,0-5.6,2.35,7.42,7.42,0,0,0-2.35,5.4Z"/></g><g id="Layer0_2_MEMBER_7_FILL-12" data-name="Layer0 2 MEMBER 7 FILL"><path class="cls-2" d="M432.75,77.1a7.42,7.42,0,0,0-2.35,5.4v.15h16V82.6l0,0a8.22,8.22,0,0,0-8-7.8A7.68,7.68,0,0,0,432.75,77.1Z"/></g><g id="Layer0_2_MEMBER_8_FILL-11" data-name="Layer0 2 MEMBER 8 FILL"><path class="cls-42" d="M402.87,53.64a5.69,5.69,0,0,1,3.23,2q-.92-7.28,4.31-9.67l-3.63-2q-7.68,2.06-10.52,11.22a12.5,12.5,0,0,0-.54,1.43,6.68,6.68,0,0,1,2.33-2.48A6.61,6.61,0,0,1,402.87,53.64Z"/><path class="cls-2" d="M407.28,61.13a6.15,6.15,0,0,0-.65-4.72,5.84,5.84,0,0,0-.53-.77,5.69,5.69,0,0,0-3.23-2,6.61,6.61,0,0,0-4.82.54,6.68,6.68,0,0,0-2.33,2.48,5.24,5.24,0,0,0-.5,1.33,5.85,5.85,0,0,0,.65,4.73,5.38,5.38,0,0,0,3.77,2.77,6.12,6.12,0,0,0,4.77-.6A6,6,0,0,0,407.28,61.13Z"/></g></svg>