<?xml version="1.0" encoding="utf-8"?>
<!-- Generator: Adobe Illustrator 23.0.6, SVG Export Plug-In . SVG Version: 6.00 Build 0)  -->
<svg version="1.1" id="Lag_1" xmlns="http://www.w3.org/2000/svg" xmlns:xlink="http://www.w3.org/1999/xlink" x="0px" y="0px"
	 viewBox="0 0 783 580" style="enable-background:new 0 0 783 580;" xml:space="preserve">
<style type="text/css">
	.st0{fill:#EE000D;}
	.st1{fill:#FFC716;}
	.st2{fill:#D23B00;}
	.st3{fill:#E88300;}
	.st4{fill:#D4FDFF;}
</style>
<title>gameover</title>
<g id="gameover">
	<g id="Layer_10">
		<path class="st0" d="M174.7,148.6l-0.2,0.5l15.7,11.7c-2.8,8.7-5.4,18.2-7.9,28.5c-2.4,10.4-4.8,21.8-7,34.2l3.2-1.1
			c1-0.4,2-0.7,3.1-1.1c0,0.1,0,0.2,0,0.3c0,0.1,0,0.2,0,0.2l15.7,11.6c1.1,26.1,1.5,48.5,1.1,67.1s-1.6,33.6-3.5,44.8
			c-3.4,0.2-6.8,0.3-10.2,0.4l-9.9,0.3l-8.9,0.3c-2.7,0.1-5.1,0.1-7,0.1c-8.5,5.8-17.6,10.8-27.1,14.8c-8,3.4-16.4,5.8-25,7
			c-7.6,1.1-16.5,0.1-26.9-3.1c-4.3-1.4-8.4-3.6-12-6.4l-12.2-9.1c-2.4-1.5-4.7-3.1-6.9-5c-2.3-2-4.6-4.2-6.6-6.4
			c-2.1-2.1-3.9-4.4-5.4-6.9c-2.1-3.5-4-7.2-5.7-11c-1.4-5-2.6-9.3-3.5-12.9s-1.5-6.6-1.9-8.9c-2.9-19.5-1.2-39.4,5-58.1
			c1.5-3.8,3.1-7.6,5-11.2c2-3.9,4.2-7.6,6.7-11.2c6-7.4,12.5-14.3,19.6-20.6c2.5-2.3,5.1-4.4,7.6-6.4c2.5-2,5.1-3.8,7.6-5.5
			c2-1.4,4-2.6,5.9-3.7s3.9-2.2,5.8-3.2c2.6-1.5,5.6-3,9.2-4.7c3.6-1.7,7.5-3.5,11.9-5.3c4.4-1.8,9.2-3.7,14.3-5.7
			c5.1-2,10.6-3.9,16.4-5.8L174.7,148.6z M143.2,165.1c-23.7,7.9-40.4,14.8-50,20.7c-14.9,7-29.7,19.5-44.4,37.6
			c-4.2,6.1-7.6,12.7-10.1,19.7c-5.7,17.4-7.3,36-4.7,54.2c0.6,4.2,2.3,10.9,5,20.1c3.6,8.2,6.6,13.1,8.9,14.8
			c6.4,7,12.6,11.5,18.6,13.4c9.3,2.8,17.1,3.7,23.3,2.8c15.5-2,32.4-9.3,50.8-21.9c7.7-0.1,18.2-0.4,31.5-0.9
			c3.1-17.6,3.6-48.5,1.7-92.7c-7.1,2.4-21.1,8.3-42.1,17.5c-11.5,4.1-17.2,6.7-17.1,7.7l0.9,6.1c0.3,2.2,0.8,10.1,1.4,23.7
			c0.4,2.5-4.6,5.6-14.8,9.4c-10.5,1.5-16.4-2.3-17.8-11.5c-0.7-7.5,0.6-15.7,3.7-24.5c5.7-11.3,13.5-19.5,23.5-24.6
			c13.5-7.8,25.2-12.5,34.9-13.9l3-0.4c4.5-28.7,8.8-49.4,12.8-62.1L143.2,165.1z M108.5,288.2V288
			C108.5,288.1,108.5,288.1,108.5,288.2C108.5,288.1,108.5,288.1,108.5,288.2L108.5,288.2z M115,349.8l2.1-0.9
			c0.7-0.3,1.4-0.6,2.2-1c-0.8,0.4-1.5,0.6-2.2,0.9S115.8,349.4,115,349.8z M124.8,345.3l0.8-0.4c0.3-0.2,0.6-0.3,0.9-0.4l-0.8,0.4
			L124.8,345.3z M126.8,344.3c-0.1,0-0.2,0-0.2,0.1c-0.1,0-0.1,0.1-0.2,0.1c0.1,0,0.1,0,0.2-0.1
			C126.6,344.4,126.7,344.3,126.8,344.3L126.8,344.3z"/>
		<path class="st0" d="M297.8,111.8c0,0.2,0.1,0.3,0.1,0.5l15.5,11.6c1.3,4.1,2.6,8.4,3.9,12.8c1.3,4.4,2.5,8.7,3.5,13.1
			c1.2,4.4,2.3,8.8,3.4,13.2s2.3,8.7,3.4,13.1c0.5,1.5,0.9,3,1.3,4.5s0.8,3.1,1.3,4.5h0.1c0.1,0.3,0.2,0.5,0.2,0.8
			c0.1,0.3,0.1,0.5,0.2,0.8c0.3,1.2,0.7,2.6,1.1,4s0.9,3,1.4,4.7c0.4,1.2,0.7,2.3,0.9,3.4s0.5,2,0.8,3c0.6,2,1.1,3.7,1.5,5.1
			s0.7,2.4,0.9,3.1h-0.1c0.6,1.7,1.4,4.2,2.2,7.3s1.9,7,3.1,11.7c1,3.8,1.9,7.5,2.9,11.3c1,3.8,1.9,7.6,2.9,11.3h0.1
			c0.7,2.4,1.3,4.8,2,7.2s1.3,4.8,2,7.2l1.6,6.2c0.5,2,0.9,3.9,1.3,5.7c1,3.1,1.8,6.1,2.4,9c0.6,2.8,1.1,5.7,1.6,8.7
			c-3.8,4.1-7.9,7.9-12.3,11.5c-4.7,3.8-10,7.7-15.9,11.6c-0.9,0.8-2,1.7-3.3,2.9l-4.2,3.6l-4.6,4l-4.6,4l-4,3.5
			c-1.2,1-2.2,1.9-2.9,2.6l-15.6-11.6c-0.1,0.1-0.2,0.2-0.3,0.3c-1-4-2.1-8.1-3.2-12.1c-1-4-2.1-8-3.1-11.7s-1.9-7.2-2.8-10.5
			s-1.6-6.1-2.3-8.5c-1.3,5.7-2.6,10.4-3.8,14.2c-1,3.2-2.3,6.2-3.9,9.1c-1,1.5-2.4,2.6-4,3.3c-2.4,1-5,1.7-7.7,2L245.2,302l-0.3,0
			c-5.9-10.3-20.2-26.8-42.9-49.5c1.7-4.3,3.2-8.7,4.4-13.2c1.4-4.9,2.7-10.4,4-16.5c2.6-7.1,5.9-20.8,9.8-41.3l10.7-49.1
			c8.2-3.3,16.9-7,26.1-11.2c9.1-4.2,18.8-8.9,29-14.2L297.8,111.8z M289.9,114.6c-20.5,10.6-37.7,18.6-51.5,24l-9.7,44.5
			c-4,20.7-7.3,34.6-10,41.9c-2.7,12.3-4.9,20.8-6.7,25.4c20.3,20.4,32.7,34.6,37.3,42.4c0.3,0,0.5-0.3,0.4-0.6
			c2.9-4.5,5.8-14.4,8.7-29.8c12.1,1.3,20.5,2.4,25.3,3.1l2.3,8.4c0.6,1.7,4,14.6,10.2,38.5l14.4-12.5c11.5-7.7,19.6-14,24.3-19.1
			c-0.8-4.4-1.9-8.8-3.3-13.1c-0.7-3.6-1.6-7.4-2.7-11.6l-4-14.3l-5.8-22.8c-2.3-9.3-4-15.6-5.2-18.7c-0.6-2.1-2-6.9-4.2-14.5
			c-1.2-4.2-2.2-7.6-2.9-10.3l-2.6-9.2l-6.8-26.4C295,131.3,292.5,122.8,289.9,114.6L289.9,114.6z M267.3,196.1
			c4.6,12.7,8.4,25.6,11.4,38.8c-5.9,0.5-11.8,0.1-17.5-1.3C261.5,225.7,263.5,213.2,267.3,196.1z"/>
		<path class="st0" d="M535.2,36.4v0.4l15.6,11.6c2.8,16.4,5.4,31.6,8,45.4s5.2,26.7,7.8,38.6h-0.1c4,14.6,7.8,27.9,11.4,40
			c3.6,12.1,7.2,23.1,10.6,33.1c3,10.3,6,19.7,8.9,28.2c2.9,8.5,5.8,16.1,8.6,22.9L593.3,268c-1.6,1.3-3.4,2.8-5.5,4.5
			s-4.4,3.7-6.8,5.8c-2.4,2.1-5,4.3-7.7,6.6s-5.4,4.7-8.2,7.1c-2.7,2.4-5.5,4.8-8.2,7.3l-7.8,6.9l-15.7-11.7
			c-0.1,0.1-0.2,0.1-0.3,0.2c-1.4-3-2.8-6.3-4.3-10c-1.4-3.7-2.8-7.5-4.1-11.6c-1.3-4.1-2.6-8.5-3.9-13c-1.3-4.5-2.5-9.2-3.6-14.1
			c-0.9-3.8-1.9-7.7-3-11.8c-1.1-4.1-2.3-8.3-3.6-12.7c-0.5,2.4-0.9,5.3-1.4,8.8s-0.9,7.6-1.3,12.3l-8.9,1.3
			c-5.5,0.8-17.1,3.8-34.8,8.9l-15.7-11.7c0,0-0.1,0-0.1,0c0,0-0.1,0.1-0.1,0.1c-2.2-2.9-5.2-7.5-9-13.8c0.6,9.7,1.2,19,1.9,28
			c0.7,9,1.3,17.5,2,25.4c0.7,7.9,1.3,15.1,2,21.7c0.7,6.6,1.3,12.3,1.8,17.1c-2.8-0.6-6-1.4-9.8-2.2s-7.7-1.7-12-2.6L412,312
			c-4.6-1-9-1.9-13.5-2.8l-12.8-2.6c-4.1-0.8-7.8-1.5-11.1-2.1L359.3,293c-0.1,0-0.2,0-0.3,0c-0.1,0-0.2,0-0.3,0
			c-0.1-2.7-0.1-6.5-0.1-11.3v-17c0-6.5,0-13.7,0-21.5c0-7.8,0-16.1,0.1-24.7c0.2-15.4-0.1-32.8-0.9-52.3
			c-0.8-19.4-2.1-40.9-3.8-64.4c1.6-1,3.7-2.3,6.4-3.9s5.6-3.4,8.9-5.4l10.6-6.5c3.8-2.3,7.6-4.7,11.5-7.1c4.3-2.7,8.5-5.7,12.6-8.9
			c4.2-3.3,8.3-6.9,12.4-10.8c0.1,0.3,0.2,0.5,0.4,0.7L432,71.4c1.8,3.4,3.5,6.6,5.1,9.5l4.4,8.3l4,7.4c1.3,2.4,2.5,4.6,3.8,6.9
			v-0.1c0.3-2.4,0.6-4.9,1-7.7s0.7-5.6,1-8.6s0.7-5.7,1.1-8.6s0.6-5.4,1-7.8c5-2.7,10.3-5.6,15.9-8.7c5.6-3.1,11.4-6.4,17.3-9.8
			c5.9-3.4,11.9-7,18-10.6c6.1-3.7,12.1-7.3,18.1-11L535.2,36.4z M527,37.9c-23.9,14.8-45.8,27.6-65.8,38.2l-3.5,28.4
			c-1.3,9.5-2.8,21.1-4.3,34.9c-12.6-19.1-25.7-41.3-39.3-66.5c-3.4,3.3-9.5,7.6-18.4,13c-15.4,9.7-26.4,16.4-32.9,20.4
			c3.2,43.7,4.6,81,4.3,112.1c-0.2,34.4-0.2,56.9-0.1,67.5c19.8,3.7,38,7.5,54.6,11.3c-2.8-24.3-5.5-61.8-8-112.6
			c0.2,0,0.4-0.2,0.4-0.4c0,0,0-0.1,0-0.1l-0.5,0.1c0.3-7.6,0.2-12.8-0.2-15.6l0.6-0.1c2.3,4.8,10.1,17.5,23.2,38.2
			c8.4,14.9,13.2,23.2,14.5,24.9c14.5-4.2,24.7-6.7,30.6-7.5l2.6-0.4c0.9-10.4,2.2-17.5,3.7-21.3c2.2-13.7,5.7-30.1,10.5-49.4
			l0.5-0.1c0.1,0.3-0.1,0.5-0.3,0.6c-0.1,0-0.1,0-0.2,0c1.1,2.7,3.3,10.7,6.6,24c7.8,21.9,14.5,44.1,20,66.7
			c4.6,19.4,8.1,31.7,10.6,36.9c14.8-13.3,26.8-23.7,36.1-31.2l8.2-7.4c-4.2-10-9.4-25.5-15.5-46.4c-6.8-20-14.2-44.6-22.2-73.8
			C537.7,98.7,532.4,70.6,527,37.9z"/>
		<path class="st0" d="M710.7,13.7c0,0.1,0,0.1,0,0.2c0,0,0,0.1,0,0.1l15.7,11.6c0.3,3.5,0.7,6.7,1,9.8c0.3,3.1,0.7,6.1,1.2,9.1
			c0.2,1.1,0.3,2.1,0.4,3.1s0.3,2,0.5,3l1.3,9c0.2,1.3,0.4,2.6,0.6,3.9s0.5,2.7,0.8,4.2l1.8,8.7c-3.7,4.8-10.4,8.6-20.1,11.6
			c-1.5,0.7-3.8,1.7-6.7,3s-6.6,2.7-11.1,4.5l3.6,2.7l2.2,20.4l0.6,4c0.4,3,0.9,6,1.5,8.9c2.8-1.3,5.6-2.7,8.6-4.1
			c3-1.4,6.1-2.8,9.3-4.3c2.6-1.1,5.2-1.9,7.9-2.6c3.2-0.8,6.8-1.5,10.9-2.1l0.1,0.4l15.6,11.6c0.4,3.6,0.9,7.4,1.4,11.5
			c0.5,4,1,7.9,1.4,11.7c0.5,3.8,0.9,7.2,1.3,10.4s0.8,5.7,1,7.6l3.8,25.9c-5.8,0.8-15,4.3-27.8,10.4c-12.8,6.1-29.2,14.8-49.2,26.2
			c-6.4,3.2-13.3,6.8-20.7,10.9c-7.3,4-15.1,8.6-23.4,13.6L628.5,247c-0.1,0-0.2,0.1-0.3,0.2c-2.7-4.4-5-9-7.1-13.7
			c-2.3-5.4-4.4-10.9-6.1-16.5c-3-10.7-6.9-23-11.6-37.1c-4.7-14.1-10.3-30.1-16.8-48.1c-0.3-0.9-0.7-2.1-1.3-3.9s-1.2-3.9-2.1-6.4
			c-0.4-1.2-0.8-2.4-1.3-3.8c-0.4-1.4-0.9-2.9-1.4-4.4c-4.2-10.5-7.4-19.4-9.8-26.7c-2-5.6-3.5-11.4-4.5-17.3
			c3.8-2.2,9.5-5,17.1-8.4c7.6-3.4,17.1-7.3,28.6-11.7c26.2-11.1,55.1-25.1,86.6-41.9L710.7,13.7z M702.3,14.5
			c-32.1,17.1-61.3,31.1-87.4,42.3c-22.6,8.9-35.8,14.4-39.6,16.7c0.6,3.8,4.9,16,13,36.5c3.2,10.1,5.2,16.4,6.1,18.9
			c13,35.8,22.5,64.3,28.6,85.7c3.5,11.3,6.1,18.3,7.9,21.1c11.8-7.2,24.4-14,37.6-20.5c40.8-23.2,64.6-35.3,71.6-36.3l-2.6-17.8
			c-1.1-7.6-2.5-18.6-4.2-33.1c-2.8,0.5-5.4,1.4-7.9,2.7c-19.2,8.7-33.1,15.5-41.7,20.6c-8.9,5.1-18.1,9.9-27.6,14.4l-1,0.1
			c-1.1-3.5-1.9-7-2.5-10.6l-0.2-1.5l31.3-16.5c-2.2-7.2-4.1-16.9-5.8-29.3l-1.3-12.3c-2.5,0.4-14.3,5.7-35.6,16.1
			c-1.5-4.8-2.7-9.6-3.7-14.5c6.1-4.2,12.5-7.9,19.1-11.1c9.2-4.2,15.7-7.4,19.4-9.6c10.1-4,16.5-6.7,19.1-8
			c8.3-2.5,13.1-4.5,14.3-6l-1.1-5c-0.9-4-1.5-7.6-1.9-10.9l-1-6.6C704.2,32.4,703.2,23.9,702.3,14.5z"/>
		<path class="st0" d="M288.7,332.6c0,0.2,0.1,0.3,0.2,0.5l17.2,10.9c2.9,7.2,5.9,14.3,9,21.4c3.1,7,6.3,14,9.5,21.1
			c0.3-8.7,0.4-17.1,0.4-25.4c0-8.2-0.1-16.4-0.3-24.4l73.8-20.4c0,0.1-0.1,0.3-0.1,0.4l17.4,11c-0.2,1.9-0.5,4.3-0.7,7.1
			c-0.3,2.8-0.6,5.9-0.9,9.3s-0.7,6.9-1,10.6s-0.7,7.5-1.1,11.3s-0.7,7.6-1,11.3s-0.7,7.3-0.9,10.7c-0.9,8.6-1.6,17.1-2.2,25.6
			c-0.6,8.4-1,17-1.4,25.6c-0.9,8.6-1.6,16.9-2.2,24.9c-0.5,8-0.9,15.8-1.1,23.5c-0.1,2.3-0.3,4.6-0.4,7s-0.3,4.6-0.3,6.6
			s-0.2,3.9-0.3,5.5s-0.2,2.8-0.2,3.5l-15,9.9l0.1,0.1c-3.6,2.5-7.3,5-11.2,7.7c-3.9,2.7-7.6,5.3-11.2,7.9c-3.6,2.5-6.9,4.9-10,7.1
			s-5.6,4-7.7,5.6l-17.4-11c0,0-0.1,0.1-0.1,0.1c0,0,0,0-0.1,0.1c-6.8-7.6-13.1-15-18.9-22.3c-5.8-7.3-11.1-14.2-15.7-20.8
			c-0.9-1.2-2.1-2.9-3.7-5.2s-3.4-5-5.4-8.3s-4.4-6.9-7-11s-5.4-8.6-8.3-13.5c-2.9-4.1-8.2-13.7-15.8-28.6
			c-7.7-15-17.7-35.3-30.1-60.9c3.6-4,7.4-7.7,11.6-11.1c4.5-3.7,9.2-7.2,14-10.4c4.1-3.2,8.4-6.3,12.9-9.2c4.5-3,9-5.7,13.6-8.3
			L288.7,332.6z M280.6,336.1c-9,4.9-17.5,10.6-25.6,16.9c-9.7,6.3-16.4,11.6-20.1,15.6c23.6,48.7,37.9,76.4,42.9,83.2
			c14.5,23.8,22.6,36.4,24.2,37.8c8.9,12.6,18.5,24.7,28.7,36.3c8.2-6,19.5-13.9,33.9-23.9l11.4-7.6c0.2-3,0.5-9.1,1.1-18.3
			c0.4-15.4,1.5-31.6,3.2-48.7c0.7-17.2,1.9-34.3,3.6-51.4c1.8-20.1,3.2-36.1,4.4-47.9l-54.8,15.2c0.8,26.3-0.2,57.6-2.9,94
			l-8.9-13.8c-4.4-7.7-8.1-14.7-11.1-21C299.8,380.4,289.7,358.3,280.6,336.1L280.6,336.1z"/>
		<path class="st0" d="M560.5,312c0,0,0,0.1,0,0.1c0,0,0,0.1,0,0.1l5.9,3.7l11.4,7.3c0.4,4.9,1,9.5,1.6,13.9c0.6,4.4,1.3,8.7,2,12.8
			l1,7.3c0.2,1.5,0.5,3.2,0.8,5s0.7,3.9,1.2,6v0.1c0.1,0.5,0.3,1.2,0.4,2.1s0.4,1.9,0.6,2.9s0.4,1.9,0.6,2.8s0.3,1.5,0.4,2
			c-1.7,1.9-3.6,3.6-5.8,5c-1.9,1.3-4.1,2.2-6.3,2.7c-1.1,0.3-2.5,0.5-4,0.8s-3.3,0.5-5.2,0.7c-1.1,0.4-2.2,0.7-3.4,0.9l-4.4,1
			c-1.4,0.3-2.8,0.6-4.3,0.9l-5.2,1.1l6.6,4.1c0.3,7,0.8,13.4,1.4,19c0.6,5,1.4,10,2.5,14.9c0.1,0.6,0.3,1.5,0.6,2.5
			s0.6,2.2,0.9,3.4l0.7-0.2c0.5-0.2,1-0.3,1.5-0.4l1.6-0.3c2-0.4,4-0.6,6-0.5c3,0.1,6,0.3,9,0.8c0,0.1,0,0.2,0,0.2
			c0,0.1,0,0.1,0,0.2L596,446c0.5,3.8,1,7.8,1.5,11.9s1.1,8,1.6,11.7c0.5,3.7,1,7.2,1.5,10.4c0.4,3.2,0.8,5.8,1.1,7.8
			c0.2,1.3,0.4,2.9,0.8,4.9s0.7,4.1,1,6.2s0.7,4.2,1,6.2s0.6,3.6,0.8,4.8c-19.2,4.7-37.5,10.2-55.1,16.3c-17.2,6-34.1,13-50.5,20.9
			l-17.3-11c-0.1,0-0.1,0.1-0.2,0.1c-0.1,0-0.1,0.1-0.2,0.1c-2.8-9-5.9-18.7-9.2-29s-6.6-20.8-10.1-31.6
			c-3.4-10.7-6.9-21.5-10.5-32.3c-3.5-10.8-7-21.2-10.3-31.3c-0.5-1.5-1.3-4-2.4-7.6s-2.5-8.2-4.2-13.9
			c-6.8-18.8-11.2-32.9-13.4-42.4c-0.6-2.5-1-4.6-1.2-6.5c8.1-3.3,16.5-5.9,25.1-7.7c5.6-1.3,12.5-2.8,20.7-4.4
			c12.3-3,25.4-6.6,39.2-10.8c13.8-4.2,28.2-8.9,43.2-14.3L560.5,312z M551.7,313c-30.7,10.9-58.5,19.4-83.5,25.4
			c-21.6,4.4-34.3,7.4-37.9,9c0.6,4.1,5.1,17.8,13.4,40.9c3.3,11.2,5.5,18.3,6.4,21.2c13.3,40.2,25.7,78.4,37.1,114.6
			c26.6-12.8,56.9-23.4,90.7-31.7l-2.3-14.3c-1.3-8.2-2.9-20.1-4.8-35.4c-2.6-0.2-5.1,0.2-7.6,1c-9,2.1-17.8,4.9-26.2,8.4
			c-8.5,3.4-17.3,6.5-26.3,9.1l-0.9-0.1c-1.3-4.6-2.8-11-4.5-19.1l-0.2-1.6l29.9-10.4c-3.6-12.2-5.7-24.9-6.2-37.6
			c-2.3-0.2-13.7,2.9-33.9,9.2c-1.6-5.3-2.9-10.6-3.9-16c5.8-3.1,12-5.5,18.3-7.4c6.3-1.6,12.5-3.5,18.5-5.8
			c9.7-2,15.8-3.4,18.3-4.2c8-0.9,12.5-1.9,13.6-3.2l-1.1-5.5c-0.9-4.3-1.6-8.2-2.1-11.8l-1-7C554,332.1,552.7,323,551.7,313
			L551.7,313z"/>
		<path class="st0" d="M627.2,303c3.4-1.8,6.8-3.4,10.4-4.8c3.5-1.4,7.1-2.5,10.7-3.3c2.2-0.5,4.5-0.9,6.8-1.2
			c2.3-0.3,4.5-0.4,6.8-0.5c12.2-0.4,22,2.4,29.4,8.2l14.6,9.2c1.6,1,3,2.1,4.4,3.4c4.7,5.2,7.9,11.5,9.4,18.3
			c2.5,10.9,1.2,24.3-3.8,40.2c-1.1,2.5-2,4.5-2.8,6.3l-2.2,4.9c-0.7,1.5-1.4,3-2.2,4.5s-1.6,3.1-2.7,5c6.5,3.4,13.8,6.9,21.8,10.5
			s16.7,7.2,26.1,10.9l-0.2,0.3l17.4,11l-28.8,56.2L725,471l-0.1,0.2L700,454.6c0.2,0.5,0.4,1,0.7,1.5c0.3,0.5,0.5,0.9,0.7,1.3
			c1.6,3.6,3,7.2,4.2,10.9c1.6,4.8,3.5,11,5.6,18.4c-12.2-2-24-3.5-35.2-4.4c-11.2-1-22.1-1.4-32.6-1.3l-17.2-10.8
			c-0.1,0-0.2,0-0.3,0c-0.1,0-0.2,0-0.3,0c-0.5-1.9-1.2-4.4-2.1-7.5s-1.8-6.4-2.9-10s-2.3-7.4-3.5-11.4s-2.5-7.9-3.7-11.7
			c-1.7-5.3-4-12-6.8-20s-6.1-17.2-9.8-27.6c-0.4-1-0.9-2.5-1.7-4.5l-2.6-7c-1-2.7-2-5.6-3.2-8.8c-1.2-3.2-2.4-6.6-3.7-10.1
			c4.3-9.4,9.9-18.2,16.5-26.1c7.1-8.3,15.2-15.7,24.1-22L627.2,303z M631.4,310.8c-17.3,12.4-29.4,26.2-36.3,41.2
			c5.2,14,8.5,23,10,27.1c7.6,21.3,13.1,37.2,16.6,47.7c5.1,15.3,8.6,26.8,10.6,34.5c16.5-0.1,33,1.1,49.3,3.8
			c-1.4-5.2-3.3-10.2-5.6-15c-2.1-4.4-6.9-14.9-14.4-31.5l59.9,39.8l20.1-39.2c-21.9-8.7-40.6-17.9-56.1-27.6l-8.8-5.6
			c4.5-8.3,9-17.5,13.6-27.6c7-22.5,5.7-39-3.9-49.6c-5.4-4.8-13.5-7-24.2-6.7C651.5,302.4,640.9,305.4,631.4,310.8L631.4,310.8z
			 M635.2,361.8c5.2-7.1,9.3-11.4,12.4-12.9c4.3-2.6,7.4-1.7,9.4,2.5c2.5,5.1-0.4,13.8-8.4,26.2l-3.7,4.8l-4.9-9.5
			C638.8,370.6,637.3,366.9,635.2,361.8L635.2,361.8z"/>
		<path class="st0" d="M131.6,250.3c-11.5,4.1-17.2,6.7-17.1,7.7l0.9,6.1c0.3,2.2,0.8,10.1,1.4,23.7c0.4,2.5-4.6,5.6-14.8,9.4
			c-10.5,1.5-16.4-2.3-17.8-11.5c-0.7-7.5,0.6-15.7,3.7-24.5c5.7-11.3,13.5-19.5,23.5-24.6c13.5-7.8,25.2-12.5,34.9-13.9l3-0.4
			c4.5-28.7,8.8-49.4,12.8-62.1l-19.1,4.8c-23.7,7.9-40.4,14.8-50,20.7c-14.9,7-29.7,19.5-44.4,37.6c-4.2,6.1-7.6,12.7-10.1,19.7
			c-5.7,17.4-7.3,36-4.6,54.2c0.6,4.2,2.3,10.9,5,20.1c3.6,8.2,6.6,13.1,8.9,14.8c6.4,7,12.6,11.5,18.6,13.4
			c9.3,2.8,17.1,3.7,23.3,2.8c15.5-2,32.4-9.3,50.8-21.9c7.7-0.1,18.2-0.4,31.5-0.9c3.1-17.6,3.6-48.5,1.7-92.7
			C166.7,235.3,152.6,241.1,131.6,250.3z"/>
		<path class="st0" d="M328.7,256.3l-4-14.3l-5.8-22.8c-2.3-9.3-4-15.6-5.2-18.7c-0.6-2.1-2-6.9-4.2-14.5c-1.2-4.2-2.2-7.6-2.9-10.3
			l-2.6-9.2l-6.8-26.4c-2.2-8.7-4.7-17.2-7.3-25.4c-20.5,10.6-37.7,18.6-51.5,24l-9.7,44.5c-4,20.7-7.3,34.6-10,41.9
			c-2.7,12.3-4.9,20.8-6.7,25.4c20.3,20.4,32.7,34.6,37.3,42.4c0.3,0,0.5-0.3,0.4-0.6c2.9-4.5,5.8-14.4,8.7-29.8
			c12.1,1.3,20.5,2.4,25.3,3.1l2.3,8.4c0.6,1.7,4,14.6,10.2,38.5l14.4-12.5c11.5-7.7,19.6-14,24.3-19.1c-0.8-4.4-1.9-8.8-3.3-13.1
			C330.7,264.3,329.8,260.4,328.7,256.3z M261.1,233.6c0.3-7.9,2.4-20.4,6.2-37.4c4.6,12.7,8.4,25.6,11.4,38.8
			C272.8,235.4,266.9,235,261.1,233.6L261.1,233.6z"/>
		<path class="st0" d="M542.8,122.3c-5.1-23.5-10.4-51.7-15.8-84.4c-23.9,14.8-45.8,27.6-65.8,38.2l-3.5,28.4
			c-1.3,9.5-2.8,21.1-4.3,34.9c-12.6-19.1-25.7-41.3-39.3-66.5c-3.4,3.3-9.5,7.6-18.4,13c-15.4,9.7-26.4,16.4-32.9,20.4
			c3.2,43.7,4.6,81,4.3,112.1c-0.2,34.4-0.2,56.9-0.1,67.5c19.8,3.7,38,7.5,54.6,11.3c-2.8-24.3-5.5-61.8-8-112.6
			c0.2,0,0.4-0.2,0.4-0.4c0,0,0-0.1,0-0.1l-0.5,0.1c0.3-7.6,0.2-12.8-0.2-15.6l0.6-0.1c2.3,4.8,10.1,17.5,23.2,38.2
			c8.4,14.9,13.2,23.2,14.5,24.9c14.5-4.2,24.7-6.7,30.6-7.5l2.6-0.4c0.9-10.4,2.2-17.5,3.7-21.3c2.2-13.7,5.7-30.1,10.5-49.4
			l0.5-0.1c0.1,0.3-0.1,0.5-0.3,0.6c-0.1,0-0.1,0-0.2,0c1.1,2.7,3.3,10.7,6.6,24c7.8,21.9,14.5,44.1,20,66.7
			c4.6,19.4,8.1,31.7,10.6,36.9c14.8-13.3,26.8-23.7,36.1-31.2l8.2-7.4c-4.2-10-9.4-25.5-15.5-46.4
			C558.2,176.1,550.8,151.5,542.8,122.3z"/>
		<path class="st0" d="M733.4,128c-2.8,0.5-5.4,1.4-7.9,2.7c-19.2,8.7-33.1,15.5-41.7,20.6c-8.9,5.1-18.1,9.9-27.6,14.4l-1,0.1
			c-1.1-3.5-1.9-7-2.5-10.6l-0.2-1.5l31.3-16.5c-2.2-7.2-4.1-16.9-5.8-29.3l-1.3-12.3c-2.5,0.4-14.3,5.7-35.6,16.1
			c-1.5-4.8-2.7-9.6-3.7-14.5c6.1-4.2,12.5-7.9,19.1-11.1c9.2-4.2,15.7-7.4,19.4-9.6c10.1-4,16.5-6.7,19.1-8
			c8.3-2.5,13.1-4.5,14.3-6l-1.1-5c-0.9-4-1.5-7.6-1.9-10.9l-1-6.6c-1.3-7.7-2.4-16.2-3.2-25.6c-32.1,17.1-61.3,31.1-87.4,42.3
			c-22.6,8.9-35.8,14.4-39.6,16.7c0.6,3.8,4.9,16,13,36.5c3.2,10.1,5.2,16.4,6.1,18.9c13,35.8,22.5,64.3,28.6,85.7
			c3.5,11.3,6.1,18.3,7.9,21.1c11.8-7.2,24.4-14,37.6-20.5c40.8-23.2,64.6-35.3,71.6-36.3l-2.6-17.8
			C736.5,153.5,735.1,142.5,733.4,128z"/>
		<path class="st0" d="M330.8,437.4l-8.9-13.8c-4.4-7.7-8.1-14.7-11.1-21c-11-22.1-21.1-44.2-30.2-66.4c-9,4.9-17.5,10.6-25.6,16.9
			c-9.7,6.3-16.4,11.6-20.1,15.6c23.6,48.7,37.9,76.4,42.9,83.2c14.5,23.8,22.6,36.4,24.2,37.8c8.9,12.6,18.5,24.7,28.7,36.3
			c8.2-6,19.5-13.9,33.9-23.9l11.4-7.6c0.2-3,0.5-9.1,1.1-18.3c0.4-15.4,1.5-31.6,3.2-48.7c0.7-17.2,1.9-34.3,3.6-51.4
			c1.8-20.1,3.2-36.1,4.4-47.9l-54.8,15.2C334.5,369.6,333.5,401,330.8,437.4z"/>
		<path class="st0" d="M570.8,442.5c-2.6-0.2-5.1,0.2-7.6,1c-9,2.1-17.8,4.9-26.2,8.5c-8.5,3.4-17.3,6.5-26.3,9.1l-0.9-0.1
			c-1.3-4.6-2.8-11-4.5-19.1l-0.2-1.6l29.9-10.4c-3.6-12.2-5.7-24.9-6.2-37.6c-2.3-0.2-13.7,2.9-33.9,9.2c-1.6-5.3-2.9-10.6-3.9-16
			c5.8-3.1,12-5.5,18.3-7.4c6.3-1.6,12.5-3.5,18.5-5.8c9.7-2,15.8-3.4,18.3-4.2c8-0.9,12.5-1.9,13.6-3.2l-1.1-5.5
			c-0.9-4.3-1.6-8.2-2.1-11.8l-1-7c-1.5-8.3-2.8-17.4-3.8-27.4c-30.7,10.9-58.5,19.4-83.5,25.4c-21.6,4.4-34.3,7.4-37.9,9
			c0.6,4.1,5.1,17.8,13.4,40.9c3.3,11.2,5.5,18.3,6.4,21.2c13.3,40.2,25.7,78.4,37.1,114.6c26.6-12.8,56.9-23.4,90.7-31.7l-2.3-14.4
			C574.4,469.7,572.8,457.9,570.8,442.5z"/>
		<path class="st0" d="M676.8,386c4.5-8.3,9-17.5,13.6-27.6c7-22.5,5.7-39-3.9-49.6c-5.4-4.8-13.5-7-24.2-6.7
			c-10.8,0.4-21.4,3.4-30.8,8.8C614.1,323.2,602,337,595.2,352c5.2,14,8.5,23,10,27.1c7.6,21.3,13.1,37.2,16.6,47.7
			c5.1,15.3,8.6,26.8,10.6,34.5c16.5-0.1,33,1.1,49.3,3.8c-1.4-5.2-3.3-10.2-5.6-15c-2.1-4.4-6.9-14.9-14.4-31.5l59.9,39.8
			l20.1-39.2c-21.9-8.7-40.6-17.9-56.1-27.6L676.8,386z M648.6,377.6l-3.7,4.8l-4.9-9.5c-1.1-2.3-2.6-6-4.7-11.1
			c5.2-7.1,9.3-11.4,12.4-12.9c4.3-2.6,7.4-1.7,9.4,2.5C659.5,356.5,656.6,365.2,648.6,377.6L648.6,377.6z"/>
		<path d="M174.7,148.6l-0.2,0.5l15.7,11.7c-2.8,8.7-5.4,18.2-7.9,28.5c-2.4,10.4-4.8,21.8-7,34.2l3.2-1.1c1-0.4,2-0.7,3.1-1.1
			c0,0.1,0,0.2,0,0.3c0,0.1,0,0.2,0,0.2l15.7,11.6c1.1,26.1,1.5,48.5,1.1,67.1s-1.6,33.6-3.5,44.8c-3.4,0.2-6.8,0.3-10.2,0.4
			l-9.9,0.3l-8.9,0.3c-2.7,0.1-5.1,0.1-7,0.1c-8.5,5.8-17.6,10.8-27.1,14.8c-8,3.4-16.4,5.8-25,7c-7.6,1.1-16.5,0.1-26.9-3.1
			c-4.3-1.4-8.4-3.6-12-6.4l-12.2-9.1c-2.4-1.5-4.7-3.1-6.9-5c-2.3-2-4.6-4.2-6.6-6.4c-2.1-2.1-3.9-4.4-5.4-6.9
			c-2.1-3.5-4-7.2-5.7-11c-1.4-5-2.6-9.3-3.5-12.9s-1.5-6.6-1.9-8.9c-2.9-19.5-1.2-39.4,5-58.1c1.5-3.8,3.1-7.6,5-11.2
			c2-3.9,4.2-7.6,6.7-11.2c6-7.4,12.5-14.3,19.6-20.6c2.5-2.3,5.1-4.4,7.6-6.4c2.5-2,5.1-3.8,7.6-5.5c2-1.4,4-2.6,5.9-3.7
			s3.9-2.2,5.8-3.2c2.6-1.5,5.6-3,9.2-4.7c3.6-1.7,7.5-3.5,11.9-5.3c4.4-1.8,9.2-3.7,14.3-5.7c5.1-2,10.6-3.9,16.4-5.8L174.7,148.6z
			 M143.2,165.1c-23.7,7.9-40.4,14.8-50,20.7c-14.9,7-29.7,19.5-44.4,37.6c-4.2,6.1-7.6,12.7-10.1,19.7c-5.7,17.4-7.3,36-4.7,54.2
			c0.6,4.2,2.3,10.9,5,20.1c3.6,8.2,6.6,13.1,8.9,14.8c6.4,7,12.6,11.5,18.6,13.4c9.3,2.8,17.1,3.7,23.3,2.8
			c15.5-2,32.4-9.3,50.8-21.9c7.7-0.1,18.2-0.4,31.5-0.9c3.1-17.6,3.6-48.5,1.7-92.7c-7.1,2.4-21.1,8.3-42.1,17.5
			c-11.5,4.1-17.2,6.7-17.1,7.7l0.9,6.1c0.3,2.2,0.8,10.1,1.4,23.7c0.4,2.5-4.6,5.6-14.8,9.4c-10.5,1.5-16.4-2.3-17.8-11.5
			c-0.7-7.5,0.6-15.7,3.7-24.5c5.7-11.3,13.5-19.5,23.5-24.6c13.5-7.8,25.2-12.5,34.9-13.9l3-0.4c4.5-28.7,8.8-49.4,12.8-62.1
			L143.2,165.1z M108.5,288.2V288C108.5,288.1,108.5,288.1,108.5,288.2C108.5,288.1,108.5,288.1,108.5,288.2L108.5,288.2z
			 M115,349.8l2.1-0.9c0.7-0.3,1.4-0.6,2.2-1c-0.8,0.4-1.5,0.6-2.2,0.9S115.8,349.4,115,349.8z M124.8,345.3l0.8-0.4
			c0.3-0.2,0.6-0.3,0.9-0.4l-0.8,0.4L124.8,345.3z M126.8,344.3c-0.1,0-0.2,0-0.2,0.1c-0.1,0-0.1,0.1-0.2,0.1c0.1,0,0.1,0,0.2-0.1
			C126.6,344.4,126.7,344.3,126.8,344.3L126.8,344.3z"/>
		<path d="M297.8,111.8c0,0.2,0.1,0.3,0.1,0.5l15.5,11.6c1.3,4.1,2.6,8.4,3.9,12.8c1.3,4.4,2.5,8.7,3.5,13.1
			c1.2,4.4,2.3,8.8,3.4,13.2s2.3,8.7,3.4,13.1c0.5,1.5,0.9,3,1.3,4.5s0.8,3.1,1.3,4.5h0.1c0.1,0.3,0.2,0.5,0.2,0.8
			c0.1,0.3,0.1,0.5,0.2,0.8c0.3,1.2,0.7,2.6,1.1,4s0.9,3,1.4,4.7c0.4,1.2,0.7,2.3,0.9,3.4s0.5,2,0.8,3c0.6,2,1.1,3.7,1.5,5.1
			s0.7,2.4,0.9,3.1h-0.1c0.6,1.7,1.4,4.2,2.2,7.3s1.9,7,3.1,11.7c1,3.8,1.9,7.5,2.9,11.3c1,3.8,1.9,7.6,2.9,11.3h0.1
			c0.7,2.4,1.3,4.8,2,7.2s1.3,4.8,2,7.2l1.6,6.2c0.5,2,0.9,3.9,1.3,5.7c1,3.1,1.8,6.1,2.4,9c0.6,2.8,1.1,5.7,1.6,8.7
			c-3.8,4.1-7.9,7.9-12.3,11.5c-4.7,3.8-10,7.7-15.9,11.6c-0.9,0.8-2,1.7-3.3,2.9l-4.2,3.6l-4.6,4l-4.6,4l-4,3.5
			c-1.2,1-2.2,1.9-2.9,2.6l-15.6-11.6c-0.1,0.1-0.2,0.2-0.3,0.3c-1-4-2.1-8.1-3.2-12.1c-1-4-2.1-8-3.1-11.7s-1.9-7.2-2.8-10.5
			s-1.6-6.1-2.3-8.5c-1.3,5.7-2.6,10.4-3.8,14.2c-1,3.2-2.3,6.2-3.9,9.1c-1,1.5-2.4,2.6-4,3.3c-2.4,1-5,1.7-7.7,2L245.2,302l-0.3,0
			c-5.9-10.3-20.2-26.8-42.9-49.5c1.7-4.3,3.2-8.7,4.4-13.2c1.4-4.9,2.7-10.4,4-16.5c2.6-7.1,5.9-20.8,9.8-41.3l10.7-49.1
			c8.2-3.3,16.9-7,26.1-11.2c9.1-4.2,18.8-8.9,29-14.2L297.8,111.8z M289.9,114.6c-20.5,10.6-37.7,18.6-51.5,24l-9.7,44.5
			c-4,20.7-7.3,34.6-10,41.9c-2.7,12.3-4.9,20.8-6.7,25.4c20.3,20.4,32.7,34.6,37.3,42.4c0.3,0,0.5-0.3,0.4-0.6
			c2.9-4.5,5.8-14.4,8.7-29.8c12.1,1.3,20.5,2.4,25.3,3.1l2.3,8.4c0.6,1.7,4,14.6,10.2,38.5l14.4-12.5c11.5-7.7,19.6-14,24.3-19.1
			c-0.8-4.4-1.9-8.8-3.3-13.1c-0.7-3.6-1.6-7.4-2.7-11.6l-4-14.3l-5.8-22.8c-2.3-9.3-4-15.6-5.2-18.7c-0.6-2.1-2-6.9-4.2-14.5
			c-1.2-4.2-2.2-7.6-2.9-10.3l-2.6-9.2l-6.8-26.4C295,131.3,292.5,122.8,289.9,114.6L289.9,114.6z M267.3,196.1
			c4.6,12.7,8.4,25.6,11.4,38.8c-5.9,0.5-11.8,0.1-17.5-1.3C261.5,225.7,263.5,213.2,267.3,196.1z"/>
		<path d="M535.2,36.4v0.4l15.6,11.6c2.8,16.4,5.4,31.6,8,45.4s5.2,26.7,7.8,38.6h-0.1c4,14.6,7.8,27.9,11.4,40
			c3.6,12.1,7.2,23.1,10.6,33.1c3,10.3,6,19.7,8.9,28.2c2.9,8.5,5.8,16.1,8.6,22.9L593.3,268c-1.6,1.3-3.4,2.8-5.5,4.5
			s-4.4,3.7-6.8,5.8c-2.4,2.1-5,4.3-7.7,6.6s-5.4,4.7-8.2,7.1c-2.7,2.4-5.5,4.8-8.2,7.3l-7.8,6.9l-15.7-11.7
			c-0.1,0.1-0.2,0.1-0.3,0.2c-1.4-3-2.8-6.3-4.3-10c-1.4-3.7-2.8-7.5-4.1-11.6c-1.3-4.1-2.6-8.5-3.9-13c-1.3-4.5-2.5-9.2-3.6-14.1
			c-0.9-3.8-1.9-7.7-3-11.8c-1.1-4.1-2.3-8.3-3.6-12.7c-0.5,2.4-0.9,5.3-1.4,8.8s-0.9,7.6-1.3,12.3l-8.9,1.3
			c-5.5,0.8-17.1,3.8-34.8,8.9l-15.7-11.7c0,0-0.1,0-0.1,0c0,0-0.1,0.1-0.1,0.1c-2.2-2.9-5.2-7.5-9-13.8c0.6,9.7,1.2,19,1.9,28
			c0.7,9,1.3,17.5,2,25.4c0.7,7.9,1.3,15.1,2,21.7c0.7,6.6,1.3,12.3,1.8,17.1c-2.8-0.6-6-1.4-9.8-2.2s-7.7-1.7-12-2.6L412,312
			c-4.6-1-9-1.9-13.5-2.8l-12.8-2.6c-4.1-0.8-7.8-1.5-11.1-2.1L359.3,293c-0.1,0-0.2,0-0.3,0c-0.1,0-0.2,0-0.3,0
			c-0.1-2.7-0.1-6.5-0.1-11.3v-17c0-6.5,0-13.7,0-21.5c0-7.8,0-16.1,0.1-24.7c0.2-15.4-0.1-32.8-0.9-52.3
			c-0.8-19.4-2.1-40.9-3.8-64.4c1.6-1,3.7-2.3,6.4-3.9s5.6-3.4,8.9-5.4l10.6-6.5c3.8-2.3,7.6-4.7,11.5-7.1c4.3-2.7,8.5-5.7,12.6-8.9
			c4.2-3.3,8.3-6.9,12.4-10.8c0.1,0.3,0.2,0.5,0.4,0.7L432,71.4c1.8,3.4,3.5,6.6,5.1,9.5l4.4,8.3l4,7.4c1.3,2.4,2.5,4.6,3.8,6.9
			v-0.1c0.3-2.4,0.6-4.9,1-7.7s0.7-5.6,1-8.6s0.7-5.7,1.1-8.6s0.6-5.4,1-7.8c5-2.7,10.3-5.6,15.9-8.7c5.6-3.1,11.4-6.4,17.3-9.8
			c5.9-3.4,11.9-7,18-10.6c6.1-3.7,12.1-7.3,18.1-11L535.2,36.4z M527,37.9c-23.9,14.8-45.8,27.6-65.8,38.2l-3.5,28.4
			c-1.3,9.5-2.8,21.1-4.3,34.9c-12.6-19.1-25.7-41.3-39.3-66.5c-3.4,3.3-9.5,7.6-18.4,13c-15.4,9.7-26.4,16.4-32.9,20.4
			c3.2,43.7,4.6,81,4.3,112.1c-0.2,34.4-0.2,56.9-0.1,67.5c19.8,3.7,38,7.5,54.6,11.3c-2.8-24.3-5.5-61.8-8-112.6
			c0.2,0,0.4-0.2,0.4-0.4c0,0,0-0.1,0-0.1l-0.5,0.1c0.3-7.6,0.2-12.8-0.2-15.6l0.6-0.1c2.3,4.8,10.1,17.5,23.2,38.2
			c8.4,14.9,13.2,23.2,14.5,24.9c14.5-4.2,24.7-6.7,30.6-7.5l2.6-0.4c0.9-10.4,2.2-17.5,3.7-21.3c2.2-13.7,5.7-30.1,10.5-49.4
			l0.5-0.1c0.1,0.3-0.1,0.5-0.3,0.6c-0.1,0-0.1,0-0.2,0c1.1,2.7,3.3,10.7,6.6,24c7.8,21.9,14.5,44.1,20,66.7
			c4.6,19.4,8.1,31.7,10.6,36.9c14.8-13.3,26.8-23.7,36.1-31.2l8.2-7.4c-4.2-10-9.4-25.5-15.5-46.4c-6.8-20-14.2-44.6-22.2-73.8
			C537.7,98.7,532.4,70.6,527,37.9z"/>
		<path d="M710.7,13.7c0,0.1,0,0.1,0,0.2c0,0,0,0.1,0,0.1l15.7,11.6c0.3,3.5,0.7,6.7,1,9.8c0.3,3.1,0.7,6.1,1.2,9.1
			c0.2,1.1,0.3,2.1,0.4,3.1s0.3,2,0.5,3l1.3,9c0.2,1.3,0.4,2.6,0.6,3.9s0.5,2.7,0.8,4.2l1.8,8.7c-3.7,4.8-10.4,8.6-20.1,11.6
			c-1.5,0.7-3.8,1.7-6.7,3s-6.6,2.7-11.1,4.5l3.6,2.7l2.2,20.4l0.6,4c0.4,3,0.9,6,1.5,8.9c2.8-1.3,5.6-2.7,8.6-4.1
			c3-1.4,6.1-2.8,9.3-4.3c2.6-1.1,5.2-1.9,7.9-2.6c3.2-0.8,6.8-1.5,10.9-2.1l0.1,0.4l15.6,11.6c0.4,3.6,0.9,7.4,1.4,11.5
			c0.5,4,1,7.9,1.4,11.7c0.5,3.8,0.9,7.2,1.3,10.4s0.8,5.7,1,7.6l3.8,25.9c-5.8,0.8-15,4.3-27.8,10.4c-12.8,6.1-29.2,14.8-49.2,26.2
			c-6.4,3.2-13.3,6.8-20.7,10.9c-7.3,4-15.1,8.6-23.4,13.6L628.5,247c-0.1,0-0.2,0.1-0.3,0.2c-2.7-4.4-5-9-7.1-13.7
			c-2.3-5.4-4.4-10.9-6.1-16.5c-3-10.7-6.9-23-11.6-37.1c-4.7-14.1-10.3-30.1-16.8-48.1c-0.3-0.9-0.7-2.1-1.3-3.9s-1.2-3.9-2.1-6.4
			c-0.4-1.2-0.8-2.4-1.3-3.8c-0.4-1.4-0.9-2.9-1.4-4.4c-4.2-10.5-7.4-19.4-9.8-26.7c-2-5.6-3.5-11.4-4.5-17.3
			c3.8-2.2,9.5-5,17.1-8.4c7.6-3.4,17.1-7.3,28.6-11.7c26.2-11.1,55.1-25.1,86.6-41.9L710.7,13.7z M702.3,14.5
			c-32.1,17.1-61.3,31.1-87.4,42.3c-22.6,8.9-35.8,14.4-39.6,16.7c0.6,3.8,4.9,16,13,36.5c3.2,10.1,5.2,16.4,6.1,18.9
			c13,35.8,22.5,64.3,28.6,85.7c3.5,11.3,6.1,18.3,7.9,21.1c11.8-7.2,24.4-14,37.6-20.5c40.8-23.2,64.6-35.3,71.6-36.3l-2.6-17.8
			c-1.1-7.6-2.5-18.6-4.2-33.1c-2.8,0.5-5.4,1.4-7.9,2.7c-19.2,8.7-33.1,15.5-41.7,20.6c-8.9,5.1-18.1,9.9-27.6,14.4l-1,0.1
			c-1.1-3.5-1.9-7-2.5-10.6l-0.2-1.5l31.3-16.5c-2.2-7.2-4.1-16.9-5.8-29.3l-1.3-12.3c-2.5,0.4-14.3,5.7-35.6,16.1
			c-1.5-4.8-2.7-9.6-3.7-14.5c6.1-4.2,12.5-7.9,19.1-11.1c9.2-4.2,15.7-7.4,19.4-9.6c10.1-4,16.5-6.7,19.1-8
			c8.3-2.5,13.1-4.5,14.3-6l-1.1-5c-0.9-4-1.5-7.6-1.9-10.9l-1-6.6C704.2,32.4,703.2,23.9,702.3,14.5z"/>
		<path d="M288.7,332.6c0,0.2,0.1,0.3,0.2,0.5l17.2,10.9c2.9,7.2,5.9,14.3,9,21.4c3.1,7,6.3,14,9.5,21.1c0.3-8.7,0.4-17.1,0.4-25.4
			c0-8.2-0.1-16.4-0.3-24.4l73.8-20.4c0,0.1-0.1,0.3-0.1,0.4l17.4,11c-0.2,1.9-0.5,4.3-0.7,7.1c-0.3,2.8-0.6,5.9-0.9,9.3
			s-0.7,6.9-1,10.6s-0.7,7.5-1.1,11.3s-0.7,7.6-1,11.3s-0.7,7.3-0.9,10.7c-0.9,8.6-1.6,17.1-2.2,25.6c-0.6,8.4-1,17-1.4,25.6
			c-0.9,8.6-1.6,16.9-2.2,24.9c-0.5,8-0.9,15.8-1.1,23.5c-0.1,2.3-0.3,4.6-0.4,7s-0.3,4.6-0.3,6.6s-0.2,3.9-0.3,5.5
			s-0.2,2.8-0.2,3.5l-15,9.9l0.1,0.1c-3.6,2.5-7.3,5-11.2,7.7c-3.9,2.7-7.6,5.3-11.2,7.9c-3.6,2.5-6.9,4.9-10,7.1s-5.6,4-7.7,5.6
			l-17.4-11c0,0-0.1,0.1-0.1,0.1c0,0,0,0-0.1,0.1c-6.8-7.6-13.1-15-18.9-22.3c-5.8-7.3-11.1-14.2-15.7-20.8
			c-0.9-1.2-2.1-2.9-3.7-5.2s-3.4-5-5.4-8.3s-4.4-6.9-7-11s-5.4-8.6-8.3-13.5c-2.9-4.1-8.2-13.7-15.8-28.6
			c-7.7-15-17.7-35.3-30.1-60.9c3.6-4,7.4-7.7,11.6-11.1c4.5-3.7,9.2-7.2,14-10.4c4.1-3.2,8.4-6.3,12.9-9.2c4.5-3,9-5.7,13.6-8.3
			L288.7,332.6z M280.6,336.1c-9,4.9-17.5,10.6-25.6,16.9c-9.7,6.3-16.4,11.6-20.1,15.6c23.6,48.7,37.9,76.4,42.9,83.2
			c14.5,23.8,22.6,36.4,24.2,37.8c8.9,12.6,18.5,24.7,28.7,36.3c8.2-6,19.5-13.9,33.9-23.9l11.4-7.6c0.2-3,0.5-9.1,1.1-18.3
			c0.4-15.4,1.5-31.6,3.2-48.7c0.7-17.2,1.9-34.3,3.6-51.4c1.8-20.1,3.2-36.1,4.4-47.9l-54.8,15.2c0.8,26.3-0.2,57.6-2.9,94
			l-8.9-13.8c-4.4-7.7-8.1-14.7-11.1-21C299.8,380.4,289.7,358.3,280.6,336.1L280.6,336.1z"/>
		<path d="M560.5,312c0,0,0,0.1,0,0.1c0,0,0,0.1,0,0.1l5.9,3.7l11.4,7.3c0.4,4.9,1,9.5,1.6,13.9c0.6,4.4,1.3,8.7,2,12.8l1,7.3
			c0.2,1.5,0.5,3.2,0.8,5s0.7,3.9,1.2,6v0.1c0.1,0.5,0.3,1.2,0.4,2.1s0.4,1.9,0.6,2.9s0.4,1.9,0.6,2.8s0.3,1.5,0.4,2
			c-1.7,1.9-3.6,3.6-5.8,5c-1.9,1.3-4.1,2.2-6.3,2.7c-1.1,0.3-2.5,0.5-4,0.8s-3.3,0.5-5.2,0.7c-1.1,0.4-2.2,0.7-3.4,0.9l-4.4,1
			c-1.4,0.3-2.8,0.6-4.3,0.9l-5.2,1.1l6.6,4.1c0.3,7,0.8,13.4,1.4,19c0.6,5,1.4,10,2.5,14.9c0.1,0.6,0.3,1.5,0.6,2.5
			s0.6,2.2,0.9,3.4l0.7-0.2c0.5-0.2,1-0.3,1.5-0.4l1.6-0.3c2-0.4,4-0.6,6-0.5c3,0.1,6,0.3,9,0.8c0,0.1,0,0.2,0,0.2
			c0,0.1,0,0.1,0,0.2L596,446c0.5,3.8,1,7.8,1.5,11.9s1.1,8,1.6,11.7c0.5,3.7,1,7.2,1.5,10.4c0.4,3.2,0.8,5.8,1.1,7.8
			c0.2,1.3,0.4,2.9,0.8,4.9s0.7,4.1,1,6.2s0.7,4.2,1,6.2s0.6,3.6,0.8,4.8c-19.2,4.7-37.5,10.2-55.1,16.3c-17.2,6-34.1,13-50.5,20.9
			l-17.3-11c-0.1,0-0.1,0.1-0.2,0.1c-0.1,0-0.1,0.1-0.2,0.1c-2.8-9-5.9-18.7-9.2-29s-6.6-20.8-10.1-31.6
			c-3.4-10.7-6.9-21.5-10.5-32.3c-3.5-10.8-7-21.2-10.3-31.3c-0.5-1.5-1.3-4-2.4-7.6s-2.5-8.2-4.2-13.9
			c-6.8-18.8-11.2-32.9-13.4-42.4c-0.6-2.5-1-4.6-1.2-6.5c8.1-3.3,16.5-5.9,25.1-7.7c5.6-1.3,12.5-2.8,20.7-4.4
			c12.3-3,25.4-6.6,39.2-10.8c13.8-4.2,28.2-8.9,43.2-14.3L560.5,312z M551.7,313c-30.7,10.9-58.5,19.4-83.5,25.4
			c-21.6,4.4-34.3,7.4-37.9,9c0.6,4.1,5.1,17.8,13.4,40.9c3.3,11.2,5.5,18.3,6.4,21.2c13.3,40.2,25.7,78.4,37.1,114.6
			c26.6-12.8,56.9-23.4,90.7-31.7l-2.3-14.3c-1.3-8.2-2.9-20.1-4.8-35.4c-2.6-0.2-5.1,0.2-7.6,1c-9,2.1-17.8,4.9-26.2,8.4
			c-8.5,3.4-17.3,6.5-26.3,9.1l-0.9-0.1c-1.3-4.6-2.8-11-4.5-19.1l-0.2-1.6l29.9-10.4c-3.6-12.2-5.7-24.9-6.2-37.6
			c-2.3-0.2-13.7,2.9-33.9,9.2c-1.6-5.3-2.9-10.6-3.9-16c5.8-3.1,12-5.5,18.3-7.4c6.3-1.6,12.5-3.5,18.5-5.8
			c9.7-2,15.8-3.4,18.3-4.2c8-0.9,12.5-1.9,13.6-3.2l-1.1-5.5c-0.9-4.3-1.6-8.2-2.1-11.8l-1-7C554,332.1,552.7,323,551.7,313
			L551.7,313z"/>
		<path d="M627.2,303c3.4-1.8,6.8-3.4,10.4-4.8c3.5-1.4,7.1-2.5,10.7-3.3c2.2-0.5,4.5-0.9,6.8-1.2c2.3-0.3,4.5-0.4,6.8-0.5
			c12.2-0.4,22,2.4,29.4,8.2l14.6,9.2c1.6,1,3,2.1,4.4,3.4c4.7,5.2,7.9,11.5,9.4,18.3c2.5,10.9,1.2,24.3-3.8,40.2
			c-1.1,2.5-2,4.5-2.8,6.3l-2.2,4.9c-0.7,1.5-1.4,3-2.2,4.5s-1.6,3.1-2.7,5c6.5,3.4,13.8,6.9,21.8,10.5s16.7,7.2,26.1,10.9l-0.2,0.3
			l17.4,11l-28.8,56.2L725,471l-0.1,0.2L700,454.6c0.2,0.5,0.4,1,0.7,1.5c0.3,0.5,0.5,0.9,0.7,1.3c1.6,3.6,3,7.2,4.2,10.9
			c1.6,4.8,3.5,11,5.6,18.4c-12.2-2-24-3.5-35.2-4.4c-11.2-1-22.1-1.4-32.6-1.3l-17.2-10.8c-0.1,0-0.2,0-0.3,0c-0.1,0-0.2,0-0.3,0
			c-0.5-1.9-1.2-4.4-2.1-7.5s-1.8-6.4-2.9-10s-2.3-7.4-3.5-11.4s-2.5-7.9-3.7-11.7c-1.7-5.3-4-12-6.8-20s-6.1-17.2-9.8-27.6
			c-0.4-1-0.9-2.5-1.7-4.5l-2.6-7c-1-2.7-2-5.6-3.2-8.8c-1.2-3.2-2.4-6.6-3.7-10.1c4.3-9.4,9.9-18.2,16.5-26.1
			c7.1-8.3,15.2-15.7,24.1-22L627.2,303z M631.4,310.8c-17.3,12.4-29.4,26.2-36.3,41.2c5.2,14,8.5,23,10,27.1
			c7.6,21.3,13.1,37.2,16.6,47.7c5.1,15.3,8.6,26.8,10.6,34.5c16.5-0.1,33,1.1,49.3,3.8c-1.4-5.2-3.3-10.2-5.6-15
			c-2.1-4.4-6.9-14.9-14.4-31.5l59.9,39.8l20.1-39.2c-21.9-8.7-40.6-17.9-56.1-27.6l-8.8-5.6c4.5-8.3,9-17.5,13.6-27.6
			c7-22.5,5.7-39-3.9-49.6c-5.4-4.8-13.5-7-24.2-6.7C651.5,302.4,640.9,305.4,631.4,310.8L631.4,310.8z M635.2,361.8
			c5.2-7.1,9.3-11.4,12.4-12.9c4.3-2.6,7.4-1.7,9.4,2.5c2.5,5.1-0.4,13.8-8.4,26.2l-3.7,4.8l-4.9-9.5
			C638.8,370.6,637.3,366.9,635.2,361.8L635.2,361.8z"/>
		<path class="st0" d="M131.6,250.3c-11.5,4.1-17.2,6.7-17.1,7.7l0.9,6.1c0.3,2.2,0.8,10.1,1.4,23.7c0.4,2.5-4.6,5.6-14.8,9.4
			c-10.5,1.5-16.4-2.3-17.8-11.5c-0.7-7.5,0.6-15.7,3.7-24.5c5.7-11.3,13.5-19.5,23.5-24.6c13.5-7.8,25.2-12.5,34.9-13.9l3-0.4
			c4.5-28.7,8.8-49.4,12.8-62.1l-19.1,4.8c-23.7,7.9-40.4,14.8-50,20.7c-14.9,7-29.7,19.5-44.4,37.6c-4.2,6.1-7.6,12.7-10.1,19.7
			c-5.7,17.4-7.3,36-4.6,54.2c0.6,4.2,2.3,10.9,5,20.1c3.6,8.2,6.6,13.1,8.9,14.8c6.4,7,12.6,11.5,18.6,13.4
			c9.3,2.8,17.1,3.7,23.3,2.8c15.5-2,32.4-9.3,50.8-21.9c7.7-0.1,18.2-0.4,31.5-0.9c3.1-17.6,3.6-48.5,1.7-92.7
			C166.7,235.3,152.6,241.1,131.6,250.3z"/>
		<path class="st0" d="M328.7,256.3l-4-14.3l-5.8-22.8c-2.3-9.3-4-15.6-5.2-18.7c-0.6-2.1-2-6.9-4.2-14.5c-1.2-4.2-2.2-7.6-2.9-10.3
			l-2.6-9.2l-6.8-26.4c-2.2-8.7-4.7-17.2-7.3-25.4c-20.5,10.6-37.7,18.6-51.5,24l-9.7,44.5c-4,20.7-7.3,34.6-10,41.9
			c-2.7,12.3-4.9,20.8-6.7,25.4c20.3,20.4,32.7,34.6,37.3,42.4c0.3,0,0.5-0.3,0.4-0.6c2.9-4.5,5.8-14.4,8.7-29.8
			c12.1,1.3,20.5,2.4,25.3,3.1l2.3,8.4c0.6,1.7,4,14.6,10.2,38.5l14.4-12.5c11.5-7.7,19.6-14,24.3-19.1c-0.8-4.4-1.9-8.8-3.3-13.1
			C330.7,264.3,329.8,260.4,328.7,256.3z M261.1,233.6c0.3-7.9,2.4-20.4,6.2-37.4c4.6,12.7,8.4,25.6,11.4,38.8
			C272.8,235.4,266.9,235,261.1,233.6L261.1,233.6z"/>
		<path class="st0" d="M542.8,122.3c-5.1-23.5-10.4-51.7-15.8-84.4c-23.9,14.8-45.8,27.6-65.8,38.2l-3.5,28.4
			c-1.3,9.5-2.8,21.1-4.3,34.9c-12.6-19.1-25.7-41.3-39.3-66.5c-3.4,3.3-9.5,7.6-18.4,13c-15.4,9.7-26.4,16.4-32.9,20.4
			c3.2,43.7,4.6,81,4.3,112.1c-0.2,34.4-0.2,56.9-0.1,67.5c19.8,3.7,38,7.5,54.6,11.3c-2.8-24.3-5.5-61.8-8-112.6
			c0.2,0,0.4-0.2,0.4-0.4c0,0,0-0.1,0-0.1l-0.5,0.1c0.3-7.6,0.2-12.8-0.2-15.6l0.6-0.1c2.3,4.8,10.1,17.5,23.2,38.2
			c8.4,14.9,13.2,23.2,14.5,24.9c14.5-4.2,24.7-6.7,30.6-7.5l2.6-0.4c0.9-10.4,2.2-17.5,3.7-21.3c2.2-13.7,5.7-30.1,10.5-49.4
			l0.5-0.1c0.1,0.3-0.1,0.5-0.3,0.6c-0.1,0-0.1,0-0.2,0c1.1,2.7,3.3,10.7,6.6,24c7.8,21.9,14.5,44.1,20,66.7
			c4.6,19.4,8.1,31.7,10.6,36.9c14.8-13.3,26.8-23.7,36.1-31.2l8.2-7.4c-4.2-10-9.4-25.5-15.5-46.4
			C558.2,176.1,550.8,151.5,542.8,122.3z"/>
		<path class="st0" d="M733.4,128c-2.8,0.5-5.4,1.4-7.9,2.7c-19.2,8.7-33.1,15.5-41.7,20.6c-8.9,5.1-18.1,9.9-27.6,14.4l-1,0.1
			c-1.1-3.5-1.9-7-2.5-10.6l-0.2-1.5l31.3-16.5c-2.2-7.2-4.1-16.9-5.8-29.3l-1.3-12.3c-2.5,0.4-14.3,5.7-35.6,16.1
			c-1.5-4.8-2.7-9.6-3.7-14.5c6.1-4.2,12.5-7.9,19.1-11.1c9.2-4.2,15.7-7.4,19.4-9.6c10.1-4,16.5-6.7,19.1-8
			c8.3-2.5,13.1-4.5,14.3-6l-1.1-5c-0.9-4-1.5-7.6-1.9-10.9l-1-6.6c-1.3-7.7-2.4-16.2-3.2-25.6c-32.1,17.1-61.3,31.1-87.4,42.3
			c-22.6,8.9-35.8,14.4-39.6,16.7c0.6,3.8,4.9,16,13,36.5c3.2,10.1,5.2,16.4,6.1,18.9c13,35.8,22.5,64.3,28.6,85.7
			c3.5,11.3,6.1,18.3,7.9,21.1c11.8-7.2,24.4-14,37.6-20.5c40.8-23.2,64.6-35.3,71.6-36.3l-2.6-17.8
			C736.5,153.5,735.1,142.5,733.4,128z"/>
		<path class="st0" d="M330.8,437.4l-8.9-13.8c-4.4-7.7-8.1-14.7-11.1-21c-11-22.1-21.1-44.2-30.2-66.4c-9,4.9-17.5,10.6-25.6,16.9
			c-9.7,6.3-16.4,11.6-20.1,15.6c23.6,48.7,37.9,76.4,42.9,83.2c14.5,23.8,22.6,36.4,24.2,37.8c8.9,12.6,18.5,24.7,28.7,36.3
			c8.2-6,19.5-13.9,33.9-23.9l11.4-7.6c0.2-3,0.5-9.1,1.1-18.3c0.4-15.4,1.5-31.6,3.2-48.7c0.7-17.2,1.9-34.3,3.6-51.4
			c1.8-20.1,3.2-36.1,4.4-47.9l-54.8,15.2C334.5,369.6,333.5,401,330.8,437.4z"/>
		<path class="st0" d="M570.8,442.5c-2.6-0.2-5.1,0.2-7.6,1c-9,2.1-17.8,4.9-26.2,8.5c-8.5,3.4-17.3,6.5-26.3,9.1l-0.9-0.1
			c-1.3-4.6-2.8-11-4.5-19.1l-0.2-1.6l29.9-10.4c-3.6-12.2-5.7-24.9-6.2-37.6c-2.3-0.2-13.7,2.9-33.9,9.2c-1.6-5.3-2.9-10.6-3.9-16
			c5.8-3.1,12-5.5,18.3-7.4c6.3-1.6,12.5-3.5,18.5-5.8c9.7-2,15.8-3.4,18.3-4.2c8-0.9,12.5-1.9,13.6-3.2l-1.1-5.5
			c-0.9-4.3-1.6-8.2-2.1-11.8l-1-7c-1.5-8.3-2.8-17.4-3.8-27.4c-30.7,10.9-58.5,19.4-83.5,25.4c-21.6,4.4-34.3,7.4-37.9,9
			c0.6,4.1,5.1,17.8,13.4,40.9c3.3,11.2,5.5,18.3,6.4,21.2c13.3,40.2,25.7,78.4,37.1,114.6c26.6-12.8,56.9-23.4,90.7-31.7l-2.3-14.4
			C574.4,469.7,572.8,457.9,570.8,442.5z"/>
		<path class="st0" d="M676.8,386c4.5-8.3,9-17.5,13.6-27.6c7-22.5,5.7-39-3.9-49.6c-5.4-4.8-13.5-7-24.2-6.7
			c-10.8,0.4-21.4,3.4-30.8,8.8C614.1,323.2,602,337,595.2,352c5.2,14,8.5,23,10,27.1c7.6,21.3,13.1,37.2,16.6,47.7
			c5.1,15.3,8.6,26.8,10.6,34.5c16.5-0.1,33,1.1,49.3,3.8c-1.4-5.2-3.3-10.2-5.6-15c-2.1-4.4-6.9-14.9-14.4-31.5l59.9,39.8
			l20.1-39.2c-21.9-8.7-40.6-17.9-56.1-27.6L676.8,386z M648.6,377.6l-3.7,4.8l-4.9-9.5c-1.1-2.3-2.6-6-4.7-11.1
			c5.2-7.1,9.3-11.4,12.4-12.9c4.3-2.6,7.4-1.7,9.4,2.5C659.5,356.5,656.6,365.2,648.6,377.6L648.6,377.6z"/>
	</g>
	<path class="st1" d="M37.7,411.9c0.6-0.9,0.8-2,0.6-3c-0.2-1.1-0.8-2-1.8-2.5c-0.7-0.7-1.7-0.9-2.6-0.7c-1.1,0.2-2,0.8-2.5,1.8
		L22.6,421c-1.2,1.9-0.6,4.4,1.3,5.6c0.9,0.6,1.9,0.8,3,0.5c1.1-0.2,2-0.8,2.5-1.8L37.7,411.9z"/>
	<path class="st2" d="M35.1,392.1c-0.2-1.1-0.9-2-1.8-2.5l-13.5-8.8c-0.9-0.5-2-0.8-3-0.6c-1.1,0.2-2,0.8-2.5,1.8
		c-1.2,1.8-0.8,4.2,1,5.4c0.1,0,0.1,0.1,0.2,0.1l13.5,8.8c0.9,0.6,2,0.8,3,0.6C34.2,396.4,35.5,394.3,35.1,392.1L35.1,392.1z"/>
	<path class="st3" d="M32.9,373.9c-0.6,0.9-0.8,2-0.6,3l2.5,11.5c0.5,2.2,2.6,3.5,4.8,3.1c2.2-0.5,3.5-2.6,3.1-4.8l-2.5-11.5
		c-0.2-1.1-0.9-2-1.8-2.5c-1.8-1.2-4.3-0.8-5.5,1C33,373.8,32.9,373.8,32.9,373.9L32.9,373.9z"/>
	<path class="st3" d="M13.9,405.4c0.2,1.1,0.8,2,1.8,2.5c0.9,0.6,2,0.8,3,0.6l11.5-2.5c1.1-0.2,2-0.9,2.5-1.8
		c1.2-1.9,0.6-4.4-1.3-5.6c-0.9-0.6-1.9-0.8-3-0.5L17,400.6C14.8,401.1,13.5,403.2,13.9,405.4L13.9,405.4z"/>
	<path d="M44,406l36.2,23.4l-6.6,10.1c-2.5,3.6-1.6,8.5,2,10.9c0.1,0.1,0.2,0.1,0.3,0.2l9.7,6.2c-4.3,14.3-4.9,29.4-1.8,44
		c2.5,11.5,7.2,22.3,13.9,31.9c13,18.9,33,31.8,55.5,35.9c23.3,4.4,47.4-0.7,66.8-14.3c18.9-13,31.8-32.9,35.9-55.5
		c4.4-23.3-0.7-47.4-14.3-66.8c-13-18.9-33-31.8-55.5-35.9c-11.5-2.1-23.4-2-34.8,0.4c-14.6,3.1-28.2,9.9-39.4,19.7l-9.7-6.2
		c-3.6-2.4-8.5-1.5-10.9,2.1c-0.1,0.1-0.1,0.2-0.2,0.3l-6.6,10.1l-36.2-23.4L44,406z"/>
	<path class="st1" d="M44.5,387.2c-1.2,1.8-0.8,4.2,1,5.4c0.1,0,0.1,0.1,0.2,0.1c0.9,0.6,2,0.8,3,0.6c1.1-0.2,2-0.9,2.5-1.8L60,378
		c0.6-0.9,0.8-2,0.6-3c-0.3-1-0.9-1.9-1.8-2.5c-0.9-0.6-2-0.8-3-0.6c-1.1,0.2-2,0.9-2.5,1.8L44.5,387.2z"/>
	<path class="st4" d="M109.6,453.7c-2,0.8-3.5,2.4-4.3,4.3c-7.6,18-7.6,38.4,0.1,56.3c0.8,2,2.4,3.5,4.3,4.3c2,0.8,4.1,0.6,6-0.3
		c0.9-0.4,1.8-0.8,2.6-1.4c2.6-2.6,3.2-5.5,1.7-8.6c-2.8-6.9-4.4-14.3-4.6-21.8c0-7.5,1.5-15,4.6-21.9c0.9-2,0.9-4.3,0-6.3
		c-0.8-2-2.4-3.5-4.3-4.3C113.7,453.1,111.5,453,109.6,453.7z"/>
</g>
</svg>
