<svg id="Lag_1" data-name="Lag 1" xmlns="http://www.w3.org/2000/svg" width="856" height="567" viewBox="0 0 856 567"><defs><style>.cls-1{fill:#419fdd;}.cls-2{fill:#31d978;}.cls-3{fill:#aeecf3;}.cls-4{fill:#28b162;}.cls-5{fill:#e86a17;}.cls-6{fill:#ff9513;}.cls-7{fill:#a2e7ee;}.cls-8{fill:#2ecc71;stroke:#004902;stroke-miterlimit:10;}</style></defs><title>garden-scene</title><rect class="cls-1" x="-117.5" y="-216.5" width="1155" height="580"/><path class="cls-2" d="M-95,286c6-1,182-72,426-21,87.86,18.37,156.54,35,219.19,46.82C661.51,332.73,753.82,338.16,901,310c230-44,356-66,356-66l26,614L-67,875-93,293Z"/><path class="cls-3" d="M258,578c27-17,110-11,201-127s83.16-141.28,83.16-141.28l14.53,4S518,400,558,448,701,573,728,582s-7,86-7,86l-466,2Z"/><path class="cls-4" d="M625,481s.85-1.13,2.37-3.24c15.54-21.5,101-144.82,63.63-206.76-41-68,7-24,11-23s45,86-48,233Z"/><path class="cls-5" d="M653,252c-4,2-71,48-37,66s76-54.17,67.51-65.08S653,252,653,252Z"/><path class="cls-5" d="M685,228.79a2.28,2.28,0,0,1,.33,4.34c-.11,0-.1,0,.07-.12,11.83-9.09,74.83-59.38,37.58-73-41-15-81,30-71,48C659.14,220.86,676,226.57,685,228.79Z"/><path class="cls-5" d="M672.94,239.71C665.88,231.89,749,205,752,223c8,30-15.1,46.06-53,35S672.94,239.71,672.94,239.71Z"/><path class="cls-5" d="M671.34,248S616,267,608,247s-16-36,7-40,66.91,25.1,66.91,25.1Z"/><ellipse class="cls-6" cx="677.5" cy="233.5" rx="22.5" ry="25.5" transform="translate(-38.37 266.01) rotate(-21.62)"/><path class="cls-7" d="M524,382s3,65-41,97-79,48-89,69-32,71-22,81,20-48,20-48,17-51,56-68,72-49,78-66S524,382,524,382Z"/><path class="cls-7" d="M534.21,377.81s-23,60.87,8.91,104.94,60.23,70.12,63.23,93.18,8.42,77.43-4.19,83.83S598,607.93,598,607.93s-.35-53.76-32.16-82S512.6,457,512.16,439,534.21,377.81,534.21,377.81Z"/><path class="cls-8" d="M497,495c14.32,6.83-5.15,33.68-23,21,28,14-32,53-39,21-33.29,0-18.75-33.62-1-33C427.81,464.83,507.4,467,497,495Z"/></svg>